<svg xmlns="http://www.w3.org/2000/svg" xmlns:xlink="http://www.w3.org/1999/xlink" width="1024" zoomAndPan="magnify" viewBox="0 0 768 767.999994" height="1024" preserveAspectRatio="xMidYMid meet" version="1.0"><path fill="#00d8ff" d="M 630.933594 264.101562 C 623 261.363281 614.765625 258.773438 606.265625 256.320312 C 607.671875 250.628906 608.957031 245.011719 610.097656 239.488281 C 628.746094 148.796875 616.5625 75.734375 574.859375 51.679688 C 534.859375 28.617188 469.476562 52.664062 403.429688 110.160156 C 397.082031 115.6875 390.707031 121.539062 384.359375 127.675781 C 380.109375 123.617188 375.886719 119.695312 371.664062 115.941406 C 302.445312 54.46875 233.070312 28.558594 191.414062 52.683594 C 151.46875 75.816406 139.636719 144.5 156.453125 230.449219 C 158.074219 238.75 159.972656 247.230469 162.117188 255.847656 C 152.300781 258.636719 142.820312 261.609375 133.753906 264.769531 C 52.605469 293.070312 0.785156 337.425781 0.785156 383.4375 C 0.785156 430.9375 56.417969 478.617188 140.933594 507.515625 C 147.601562 509.792969 154.523438 511.949219 161.65625 513.984375 C 159.339844 523.300781 157.328125 532.433594 155.636719 541.359375 C 139.609375 625.816406 152.125 692.875 191.964844 715.84375 C 233.113281 739.59375 302.179688 715.1875 369.417969 656.394531 C 374.75 651.753906 380.078125 646.8125 385.40625 641.660156 C 392.351562 648.308594 399.269531 654.628906 406.125 660.558594 C 471.269531 716.625 535.609375 739.265625 575.398438 716.234375 C 616.503906 692.425781 629.886719 620.367188 612.519531 532.734375 C 611.203125 526.027344 609.648438 519.199219 607.941406 512.25 C 612.789062 510.8125 617.550781 509.3125 622.191406 507.785156 C 710.0625 478.644531 767.214844 431.59375 767.214844 383.4375 C 767.214844 337.257812 713.714844 292.605469 630.933594 264.101562 Z M 611.890625 476.699219 C 607.699219 478.078125 603.390625 479.425781 599.019531 480.710938 C 589.320312 450.015625 576.234375 417.339844 560.1875 383.585938 C 575.488281 350.640625 588.0625 318.398438 597.492188 287.878906 C 605.335938 290.148438 612.941406 292.542969 620.273438 295.066406 C 691.199219 319.496094 734.460938 355.613281 734.460938 383.4375 C 734.460938 413.054688 687.757812 451.542969 611.890625 476.699219 Z M 580.398438 539.082031 C 588.089844 577.839844 589.167969 612.878906 584.078125 640.28125 C 579.527344 664.902344 570.335938 681.3125 558.992188 687.871094 C 534.832031 701.859375 483.1875 683.679688 427.5 635.730469 C 421.09375 630.21875 414.65625 624.351562 408.21875 618.152344 C 429.804688 594.519531 451.390625 567.058594 472.46875 536.539062 C 509.503906 533.273438 544.5 527.882812 576.265625 520.546875 C 577.824219 526.863281 579.199219 533.035156 580.398438 539.082031 Z M 262.089844 685.445312 C 238.492188 693.804688 219.695312 694.042969 208.335938 687.484375 C 184.160156 673.527344 174.109375 619.679688 187.816406 547.46875 C 189.390625 539.203125 191.257812 530.699219 193.414062 522.011719 C 224.808594 528.960938 259.558594 533.960938 296.695312 536.957031 C 317.90625 566.816406 340.121094 594.25 362.484375 618.269531 C 357.605469 623.003906 352.726562 627.496094 347.875 631.71875 C 318.148438 657.742188 288.351562 676.191406 262.089844 685.445312 Z M 151.535156 476.519531 C 114.164062 463.730469 83.300781 447.140625 62.144531 428.988281 C 43.132812 412.726562 33.539062 396.554688 33.539062 383.4375 C 33.539062 355.523438 75.144531 319.902344 144.539062 295.699219 C 152.960938 292.761719 161.773438 289.996094 170.921875 287.394531 C 180.511719 318.601562 193.09375 351.242188 208.277344 384.214844 C 192.894531 417.699219 180.136719 450.851562 170.449219 482.449219 C 163.929688 480.5625 157.613281 478.585938 151.535156 476.519531 Z M 188.59375 224.160156 C 174.191406 150.519531 183.753906 94.972656 207.828125 81.03125 C 233.46875 66.183594 290.167969 87.351562 349.910156 140.4375 C 353.742188 143.828125 357.574219 147.378906 361.4375 151.054688 C 339.164062 174.972656 317.160156 202.203125 296.136719 231.878906 C 260.089844 235.222656 225.585938 240.589844 193.863281 247.78125 C 191.867188 239.753906 190.101562 231.867188 188.59375 224.160156 Z M 519.175781 305.824219 C 511.601562 292.71875 503.816406 279.925781 495.882812 267.476562 C 520.34375 270.570312 543.753906 274.679688 565.761719 279.699219 C 559.171875 300.878906 550.941406 323.019531 541.242188 345.730469 C 534.292969 332.515625 526.929688 319.203125 519.175781 305.824219 Z M 384.363281 174.460938 C 399.480469 190.828125 414.601562 209.101562 429.480469 228.925781 C 414.480469 228.21875 399.300781 227.851562 384.003906 227.851562 C 368.855469 227.851562 353.792969 228.210938 338.886719 228.910156 C 353.765625 209.265625 369.035156 191.015625 384.363281 174.460938 Z M 248.6875 306.050781 C 241.113281 319.1875 233.894531 332.429688 227.050781 345.699219 C 217.515625 323.078125 209.359375 300.832031 202.699219 279.351562 C 224.566406 274.460938 247.882812 270.457031 272.183594 267.421875 C 264.132812 279.980469 256.28125 292.871094 248.6875 306.046875 Z M 272.878906 501.765625 C 247.777344 498.980469 224.105469 495.179688 202.246094 490.417969 C 209.015625 468.554688 217.351562 445.851562 227.089844 422.730469 C 233.949219 435.996094 241.191406 449.234375 248.816406 462.414062 C 256.582031 475.832031 264.625 488.949219 272.878906 501.765625 Z M 385.261719 594.699219 C 369.753906 577.957031 354.273438 559.417969 339.15625 539.503906 C 353.824219 540.074219 368.792969 540.371094 384.003906 540.371094 C 399.632812 540.371094 415.078125 540.011719 430.257812 539.351562 C 415.347656 559.628906 400.257812 578.199219 385.261719 594.699219 Z M 541.539062 421.5625 C 551.777344 444.921875 560.429688 467.503906 567.285156 489.007812 C 545.074219 494.070312 521.0625 498.144531 495.792969 501.199219 C 503.757812 488.589844 511.601562 475.5625 519.324219 462.171875 C 527.140625 448.636719 534.535156 435.070312 541.539062 421.5625 Z M 490.945312 445.820312 C 478.96875 466.605469 466.664062 486.433594 454.179688 505.152344 C 431.457031 506.769531 407.953125 507.605469 384.003906 507.605469 C 360.140625 507.605469 336.941406 506.886719 314.605469 505.421875 C 301.613281 486.460938 289.050781 466.578125 277.148438 446 L 277.152344 446 C 265.277344 425.484375 254.351562 404.789062 244.449219 384.214844 C 254.347656 363.609375 265.25 342.886719 277.054688 322.410156 L 277.050781 322.410156 C 288.886719 301.882812 301.34375 282.082031 314.214844 263.230469 C 337 261.503906 360.382812 260.605469 384.003906 260.605469 C 407.746094 260.605469 431.125 261.511719 453.910156 263.25 C 466.605469 281.964844 478.96875 301.699219 490.855469 322.234375 C 502.859375 343.003906 513.90625 363.582031 523.875 383.765625 C 513.9375 404.28125 502.917969 425.066406 490.945312 445.820312 Z M 558.484375 80.046875 C 584.171875 94.855469 594.140625 154.566406 578.003906 232.867188 C 576.988281 237.863281 575.820312 242.953125 574.5625 248.109375 C 542.765625 240.769531 508.25 235.308594 472.113281 231.917969 C 451.035156 201.914062 429.210938 174.640625 407.296875 151.027344 C 413.191406 145.363281 419.089844 139.957031 424.929688 134.855469 C 481.511719 85.597656 534.414062 66.148438 558.484375 80.046875 Z M 384.003906 314.957031 C 421.785156 314.957031 452.441406 345.601562 452.441406 383.425781 C 452.441406 421.222656 421.785156 451.890625 384.003906 451.890625 C 346.21875 451.890625 315.5625 421.222656 315.5625 383.425781 C 315.5625 345.601562 346.21875 314.957031 384.003906 314.957031 Z M 384.003906 314.957031 " fill-opacity="1" fill-rule="nonzero"/></svg>