<svg xmlns="http://www.w3.org/2000/svg" xmlns:xlink="http://www.w3.org/1999/xlink" width="1024" zoomAndPan="magnify" viewBox="0 0 768 767.999994" height="1024" preserveAspectRatio="xMidYMid meet" version="1.0"><path fill="#fdf151" d="M 218.042969 645.035156 L 61.683594 136.074219 L 601.90625 37.722656 L 758.261719 546.6875 Z M 218.042969 645.035156 " fill-opacity="1" fill-rule="nonzero"/><path fill="#0b122d" d="M 218.035156 654.203125 C 214.082031 654.203125 210.480469 651.628906 209.28125 647.726562 L 52.925781 138.765625 C 52.15625 136.261719 52.496094 133.550781 53.855469 131.3125 C 55.214844 129.078125 57.46875 127.527344 60.042969 127.058594 L 600.265625 28.707031 C 604.839844 27.878906 609.300781 30.589844 610.667969 35.03125 L 767.023438 543.996094 C 767.792969 546.496094 767.453125 549.210938 766.09375 551.445312 C 764.734375 553.683594 762.480469 555.230469 759.90625 555.699219 L 219.691406 654.050781 C 219.136719 654.152344 218.582031 654.199219 218.039062 654.199219 Z M 73.476562 143.242188 L 224.414062 634.5625 L 746.472656 539.519531 L 595.535156 48.199219 Z M 73.476562 143.242188 " fill-opacity="1" fill-rule="nonzero"/><path fill="#0b122d" d="M 531.9375 452.742188 C 547.203125 466.742188 563.164062 479.914062 587.066406 475.5625 C 607.144531 471.90625 614.789062 460.585938 610.796875 447.578125 C 606.015625 432.011719 593.421875 428.46875 568.550781 423.429688 L 554.945312 420.769531 C 515.707031 413.164062 487.085938 399.894531 475.726562 362.921875 C 465.261719 328.847656 484.980469 297.878906 528.242188 290.003906 C 559.050781 284.394531 584.273438 290.417969 608.328125 313.835938 L 577.582031 343.421875 C 564.992188 330.964844 554.328125 327.097656 540.417969 329.632812 C 526.222656 332.214844 519.828125 342.292969 523.214844 353.320312 C 527.402344 366.949219 538.097656 370.824219 561.472656 375.480469 L 575.078125 378.136719 C 621.347656 387.164062 649.761719 399.816406 661.417969 437.765625 C 673.980469 478.648438 646.589844 507.300781 600.578125 515.675781 C 555.574219 523.867188 523.484375 507.242188 501.167969 483.492188 L 531.933594 452.734375 Z M 531.9375 452.742188 " fill-opacity="1" fill-rule="nonzero"/><path fill="#0b122d" d="M 578.332031 526.914062 C 546.195312 526.914062 517.546875 514.308594 494.492188 489.773438 C 491.101562 486.164062 491.191406 480.515625 494.691406 477.015625 L 525.457031 446.261719 C 528.925781 442.785156 534.515625 442.667969 538.132812 445.988281 C 553.167969 459.78125 566.210938 470.050781 585.425781 466.546875 C 593.46875 465.082031 599.171875 462.1875 601.476562 458.394531 C 602.839844 456.148438 603.023438 453.492188 602.035156 450.269531 C 598.964844 440.277344 591.753906 437.480469 566.726562 432.414062 L 553.1875 429.765625 C 516.460938 422.648438 480.582031 409.945312 466.964844 365.613281 C 461.394531 347.472656 463.296875 329.308594 472.324219 314.460938 C 482.726562 297.355469 502 285.46875 526.601562 280.988281 C 561.730469 274.601562 589.730469 282.941406 614.722656 307.273438 C 616.5 309.003906 617.5 311.386719 617.492188 313.867188 C 617.484375 316.347656 616.472656 318.71875 614.679688 320.441406 L 583.9375 350.03125 C 580.351562 353.476562 574.675781 353.441406 571.136719 349.941406 C 559.300781 338.230469 551.515625 336.933594 542.058594 338.65625 C 537.453125 339.492188 534.054688 341.375 532.484375 343.949219 C 531.355469 345.804688 531.183594 348.058594 531.976562 350.636719 C 534.378906 358.460938 539.007812 361.667969 563.265625 366.496094 L 576.839844 369.152344 C 624.839844 378.515625 657.199219 392.8125 670.183594 435.078125 C 676.089844 454.304688 674.363281 472.441406 665.183594 487.535156 C 653.851562 506.171875 631.492188 519.371094 602.226562 524.699219 C 594.078125 526.183594 586.105469 526.921875 578.335938 526.921875 Z M 514.164062 483.464844 C 537.546875 504.851562 566.023438 512.65625 598.9375 506.664062 C 622.980469 502.285156 640.945312 492.109375 649.519531 478.007812 C 655.984375 467.371094 657.042969 454.738281 652.65625 440.457031 C 642.261719 406.621094 616.753906 395.613281 573.320312 387.136719 L 559.714844 384.476562 C 536.925781 379.9375 520.359375 375.246094 514.453125 356.015625 C 512.125 348.4375 512.964844 340.765625 516.820312 334.425781 C 521.144531 327.3125 528.941406 322.410156 538.773438 320.617188 C 553.21875 317.992188 565.128906 321.082031 577.355469 330.921875 L 594.859375 314.074219 C 576.070312 298.746094 556.140625 294.234375 529.878906 299.023438 C 510.507812 302.546875 495.625 311.414062 487.984375 323.984375 C 481.621094 334.441406 480.414062 346.976562 484.480469 360.230469 C 494.660156 393.367188 520.707031 404.796875 556.683594 411.769531 L 570.300781 414.433594 C 593.160156 419.066406 612.84375 423.054688 619.554688 444.886719 C 622.097656 453.167969 621.261719 461.128906 617.132812 467.914062 C 613.550781 473.808594 605.710938 481.480469 588.707031 484.578125 C 563.507812 489.15625 545.296875 476.675781 532.265625 465.363281 L 514.164062 483.460938 Z M 514.164062 483.464844 " fill-opacity="1" fill-rule="nonzero"/><path fill="#0b122d" d="M 358.429688 485.554688 C 369.960938 496.980469 384.527344 504.734375 401.121094 501.714844 C 417 498.824219 424.320312 491.25 417.265625 468.277344 L 371.273438 318.570312 L 421.289062 309.464844 L 469.503906 466.40625 C 484.128906 514.007812 461.476562 541.003906 418.675781 548.792969 C 380.003906 555.835938 344.507812 536.230469 326.089844 515.367188 L 358.429688 485.550781 Z M 358.429688 485.554688 " fill-opacity="1" fill-rule="nonzero"/><path fill="#0b122d" d="M 402.179688 559.457031 C 366.125 559.457031 335.738281 540.144531 319.222656 521.4375 C 315.921875 517.703125 316.214844 512.015625 319.878906 508.636719 L 352.21875 478.816406 C 355.820312 475.496094 361.398438 475.59375 364.882812 479.046875 C 376.167969 490.234375 387.804688 494.820312 399.480469 492.695312 C 405.070312 491.679688 408.53125 490.125 409.773438 488.085938 C 410.765625 486.457031 411.914062 482.070312 408.503906 470.96875 L 362.511719 321.261719 C 361.742188 318.757812 362.082031 316.046875 363.441406 313.808594 C 364.800781 311.574219 367.054688 310.027344 369.628906 309.554688 L 419.644531 300.449219 C 424.226562 299.613281 428.679688 302.335938 430.046875 306.773438 L 478.261719 463.71875 C 485.8125 488.296875 484.578125 509.09375 474.582031 525.527344 C 464.558594 542.007812 445.792969 553.175781 420.3125 557.816406 C 414.140625 558.9375 408.082031 559.457031 402.171875 559.457031 Z M 339.261719 515.695312 C 357.546875 532.417969 386.757812 545.289062 417.039062 539.777344 C 437.214844 536.105469 451.699219 527.882812 458.925781 515.996094 C 466.078125 504.230469 466.691406 488.453125 460.746094 469.09375 L 414.921875 319.933594 L 383.066406 325.734375 L 426.027344 465.578125 C 430.351562 479.65625 430.164062 489.832031 425.4375 497.601562 C 419.921875 506.667969 409.855469 509.433594 402.765625 510.722656 C 387.550781 513.496094 372.394531 509.078125 358.53125 497.925781 L 339.265625 515.691406 Z M 339.261719 515.695312 " fill-opacity="1" fill-rule="nonzero"/><path fill="#fdf151" d="M 61.683594 136.074219 L 9.46875 221.699219 L 165.824219 730.660156 L 218.042969 645.035156 Z M 61.683594 136.074219 " fill-opacity="1" fill-rule="nonzero"/><path fill="#0b122d" d="M 165.828125 739.824219 C 165.449219 739.824219 165.066406 739.800781 164.683594 739.753906 C 161.105469 739.304688 158.125 736.800781 157.0625 733.351562 L 0.707031 224.386719 C -0.0625 221.882812 0.277344 219.164062 1.644531 216.925781 L 53.859375 131.296875 C 55.738281 128.21875 59.226562 126.527344 62.824219 126.976562 C 66.402344 127.425781 69.382812 129.929688 70.441406 133.378906 L 226.800781 642.339844 C 227.570312 644.847656 227.230469 647.566406 225.867188 649.804688 L 173.648438 735.429688 C 171.972656 738.179688 168.992188 739.824219 165.824219 739.824219 Z M 19.441406 222.949219 L 168.605469 708.5 L 208.070312 643.785156 L 58.90625 158.234375 L 19.445312 222.949219 Z M 19.441406 222.949219 " fill-opacity="1" fill-rule="nonzero"/><path fill="#fdf151" d="M 758.261719 546.6875 L 706.046875 632.316406 L 165.824219 730.660156 L 218.042969 645.035156 Z M 758.261719 546.6875 " fill-opacity="1" fill-rule="nonzero"/><path fill="#0b122d" d="M 165.824219 739.824219 C 162.839844 739.824219 160 738.367188 158.269531 735.847656 C 156.226562 732.871094 156.121094 728.972656 158.003906 725.890625 L 210.21875 640.265625 C 211.582031 638.035156 213.832031 636.488281 216.402344 636.019531 L 756.621094 537.667969 C 760.171875 537.019531 763.773438 538.523438 765.816406 541.496094 C 767.859375 544.476562 767.964844 548.371094 766.085938 551.453125 L 713.871094 637.082031 C 712.507812 639.3125 710.257812 640.855469 707.6875 641.328125 L 167.46875 739.675781 C 166.921875 739.777344 166.371094 739.824219 165.824219 739.824219 Z M 223.726562 653.316406 L 184.292969 717.988281 L 700.363281 624.035156 L 739.796875 559.367188 Z M 223.726562 653.316406 " fill-opacity="1" fill-rule="nonzero"/></svg>