<svg xmlns="http://www.w3.org/2000/svg" xmlns:xlink="http://www.w3.org/1999/xlink" width="1024" zoomAndPan="magnify" viewBox="0 0 768 767.999994" height="1024" preserveAspectRatio="xMidYMid meet" version="1.0"><defs><clipPath id="41844791cb"><path d="M 0 560 L 768 560 L 768 656.339844 L 0 656.339844 Z M 0 560 " clip-rule="nonzero"/></clipPath><clipPath id="9c9e6d108c"><path d="M 0 111.839844 L 768 111.839844 L 768 209 L 0 209 Z M 0 111.839844 " clip-rule="nonzero"/></clipPath></defs><path fill="#000000" d="M 720 336.074219 L 48 336.074219 C 21.488281 336.074219 0 357.570312 0 384.089844 C 0 410.609375 21.488281 432.105469 48 432.105469 L 720 432.105469 C 746.511719 432.105469 768 410.609375 768 384.089844 C 768 357.570312 746.511719 336.074219 720 336.074219 Z M 720 336.074219 " fill-opacity="1" fill-rule="nonzero"/><g clip-path="url(#41844791cb)"><path fill="#000000" d="M 720 560.152344 L 48 560.152344 C 21.488281 560.152344 0 581.644531 0 608.167969 C 0 634.6875 21.488281 656.183594 48 656.183594 L 720 656.183594 C 746.511719 656.183594 768 634.6875 768 608.167969 C 768 581.644531 746.511719 560.152344 720 560.152344 Z M 720 560.152344 " fill-opacity="1" fill-rule="nonzero"/></g><g clip-path="url(#9c9e6d108c)"><path fill="#000000" d="M 48 208.03125 L 720 208.03125 C 746.511719 208.03125 768 186.535156 768 160.011719 C 768 133.492188 746.511719 111.996094 720 111.996094 L 48 111.996094 C 21.488281 111.996094 0 133.492188 0 160.011719 C 0 186.535156 21.488281 208.03125 48 208.03125 Z M 48 208.03125 " fill-opacity="1" fill-rule="nonzero"/></g></svg>