<svg xmlns="http://www.w3.org/2000/svg" xmlns:xlink="http://www.w3.org/1999/xlink" width="1024" zoomAndPan="magnify" viewBox="0 0 768 767.999994" height="1024" preserveAspectRatio="xMidYMid meet" version="1.0"><defs><clipPath id="cbcaf71b80"><path d="M 0 111.839844 L 768 111.839844 L 768 208 L 0 208 Z M 0 111.839844 " clip-rule="nonzero"/></clipPath></defs><path fill="#ffffff" d="M 720 335.996094 L 48 335.996094 C 21.488281 335.996094 0 357.484375 0 383.996094 C 0 410.507812 21.488281 431.996094 48 431.996094 L 720 431.996094 C 746.511719 431.996094 768 410.507812 768 383.996094 C 768 357.484375 746.511719 335.996094 720 335.996094 Z M 720 335.996094 " fill-opacity="1" fill-rule="nonzero"/><path fill="#ffffff" d="M 720 559.996094 L 48 559.996094 C 21.488281 559.996094 0 581.484375 0 607.996094 C 0 634.507812 21.488281 655.996094 48 655.996094 L 720 655.996094 C 746.511719 655.996094 768 634.507812 768 607.996094 C 768 581.484375 746.511719 559.996094 720 559.996094 Z M 720 559.996094 " fill-opacity="1" fill-rule="nonzero"/><g clip-path="url(#cbcaf71b80)"><path fill="#ffffff" d="M 48 207.996094 L 720 207.996094 C 746.511719 207.996094 768 186.507812 768 159.996094 C 768 133.484375 746.511719 111.996094 720 111.996094 L 48 111.996094 C 21.488281 111.996094 0 133.484375 0 159.996094 C 0 186.507812 21.488281 207.996094 48 207.996094 Z M 48 207.996094 " fill-opacity="1" fill-rule="nonzero"/></g></svg>