<svg xmlns="http://www.w3.org/2000/svg" xmlns:xlink="http://www.w3.org/1999/xlink" width="1024" zoomAndPan="magnify" viewBox="0 0 768 767.999994" height="1024" preserveAspectRatio="xMidYMid meet" version="1.0"><defs><clipPath id="4ed1d5495a"><path d="M 51.359375 0 L 716.609375 0 L 716.609375 768 L 51.359375 768 Z M 51.359375 0 " clip-rule="nonzero"/></clipPath></defs><g clip-path="url(#4ed1d5495a)"><path fill="#ffffff" d="M 51.359375 691.050781 C 51.359375 692.304688 51.390625 693.5625 51.453125 694.816406 C 51.515625 696.070312 51.605469 697.324219 51.730469 698.574219 C 51.851562 699.824219 52.007812 701.070312 52.191406 702.3125 C 52.375 703.554688 52.589844 704.792969 52.835938 706.023438 C 53.078125 707.257812 53.355469 708.480469 53.660156 709.699219 C 53.964844 710.917969 54.300781 712.128906 54.664062 713.332031 C 55.03125 714.535156 55.425781 715.726562 55.847656 716.910156 C 56.269531 718.09375 56.722656 719.265625 57.203125 720.425781 C 57.683594 721.585938 58.191406 722.734375 58.730469 723.871094 C 59.265625 725.003906 59.832031 726.125 60.425781 727.234375 C 61.015625 728.34375 61.636719 729.433594 62.28125 730.511719 C 62.925781 731.589844 63.597656 732.652344 64.296875 733.695312 C 64.996094 734.742188 65.71875 735.765625 66.464844 736.777344 C 67.214844 737.785156 67.988281 738.777344 68.785156 739.746094 C 69.582031 740.71875 70.402344 741.667969 71.246094 742.597656 C 72.089844 743.53125 72.953125 744.441406 73.84375 745.328125 C 74.730469 746.214844 75.640625 747.082031 76.570312 747.925781 C 77.503906 748.769531 78.453125 749.589844 79.425781 750.386719 C 80.394531 751.183594 81.386719 751.957031 82.394531 752.707031 C 83.402344 753.453125 84.429688 754.175781 85.476562 754.875 C 86.519531 755.574219 87.582031 756.246094 88.660156 756.890625 C 89.734375 757.535156 90.828125 758.15625 91.9375 758.746094 C 93.042969 759.339844 94.167969 759.90625 95.300781 760.441406 C 96.4375 760.980469 97.585938 761.488281 98.746094 761.96875 C 99.90625 762.449219 101.078125 762.902344 102.261719 763.324219 C 103.445312 763.746094 104.636719 764.140625 105.839844 764.507812 C 107.042969 764.871094 108.25 765.207031 109.46875 765.511719 C 110.6875 765.816406 111.914062 766.089844 113.148438 766.335938 C 114.378906 766.582031 115.617188 766.796875 116.859375 766.980469 C 118.101562 767.164062 119.347656 767.320312 120.597656 767.441406 C 121.847656 767.566406 123.101562 767.65625 124.355469 767.71875 C 125.609375 767.78125 126.867188 767.8125 128.121094 767.8125 L 486.347656 767.8125 C 487.601562 767.8125 488.859375 767.78125 490.113281 767.71875 C 491.367188 767.65625 492.621094 767.566406 493.871094 767.441406 C 495.121094 767.320312 496.367188 767.164062 497.609375 766.980469 C 498.851562 766.796875 500.089844 766.582031 501.320312 766.335938 C 502.554688 766.089844 503.78125 765.816406 505 765.511719 C 506.214844 765.207031 507.425781 764.871094 508.628906 764.507812 C 509.832031 764.140625 511.023438 763.746094 512.207031 763.324219 C 513.390625 762.902344 514.5625 762.449219 515.722656 761.96875 C 516.882812 761.488281 518.03125 760.980469 519.167969 760.441406 C 520.300781 759.90625 521.425781 759.339844 522.53125 758.746094 C 523.640625 758.15625 524.734375 757.535156 525.808594 756.890625 C 526.886719 756.246094 527.949219 755.574219 528.992188 754.875 C 530.039062 754.175781 531.066406 753.453125 532.074219 752.707031 C 533.082031 751.957031 534.074219 751.183594 535.042969 750.386719 C 536.015625 749.589844 536.964844 748.769531 537.898438 747.925781 C 538.828125 747.082031 539.738281 746.214844 540.625 745.328125 C 541.515625 744.441406 542.378906 743.53125 543.222656 742.597656 C 544.066406 741.667969 544.886719 740.71875 545.683594 739.746094 C 546.480469 738.777344 547.253906 737.785156 548.003906 736.777344 C 548.75 735.765625 549.472656 734.742188 550.171875 733.695312 C 550.871094 732.652344 551.542969 731.589844 552.1875 730.511719 C 552.832031 729.433594 553.453125 728.34375 554.042969 727.234375 C 554.636719 726.125 555.203125 725.003906 555.738281 723.871094 C 556.277344 722.734375 556.785156 721.585938 557.265625 720.425781 C 557.746094 719.265625 558.199219 718.09375 558.621094 716.910156 C 559.042969 715.726562 559.4375 714.535156 559.804688 713.332031 C 560.167969 712.128906 560.503906 710.917969 560.808594 709.699219 C 561.113281 708.480469 561.386719 707.257812 561.632812 706.023438 C 561.878906 704.792969 562.09375 703.554688 562.277344 702.3125 C 562.460938 701.070312 562.617188 699.824219 562.738281 698.574219 C 562.863281 697.324219 562.953125 696.070312 563.015625 694.816406 C 563.078125 693.5625 563.109375 692.304688 563.109375 691.050781 L 563.109375 665.460938 L 639.871094 665.460938 C 641.128906 665.460938 642.382812 665.429688 643.636719 665.371094 C 644.890625 665.308594 646.144531 665.214844 647.394531 665.09375 C 648.644531 664.96875 649.890625 664.816406 651.132812 664.632812 C 652.378906 664.445312 653.613281 664.230469 654.847656 663.988281 C 656.078125 663.742188 657.304688 663.464844 658.523438 663.160156 C 659.742188 662.855469 660.953125 662.519531 662.152344 662.15625 C 663.355469 661.792969 664.546875 661.398438 665.730469 660.972656 C 666.914062 660.550781 668.085938 660.097656 669.246094 659.617188 C 670.40625 659.136719 671.554688 658.628906 672.691406 658.089844 C 673.828125 657.554688 674.949219 656.988281 676.054688 656.398438 C 677.164062 655.804688 678.257812 655.1875 679.335938 654.539062 C 680.414062 653.894531 681.472656 653.222656 682.519531 652.523438 C 683.5625 651.828125 684.589844 651.105469 685.597656 650.355469 C 686.605469 649.605469 687.597656 648.835938 688.570312 648.039062 C 689.539062 647.242188 690.492188 646.421875 691.421875 645.578125 C 692.351562 644.734375 693.261719 643.867188 694.148438 642.980469 C 695.039062 642.089844 695.90625 641.179688 696.75 640.25 C 697.59375 639.320312 698.414062 638.367188 699.210938 637.398438 C 700.007812 636.425781 700.777344 635.4375 701.527344 634.425781 C 702.277344 633.417969 703 632.390625 703.695312 631.347656 C 704.394531 630.300781 705.066406 629.242188 705.710938 628.164062 C 706.359375 627.085938 706.976562 625.992188 707.570312 624.886719 C 708.160156 623.777344 708.726562 622.65625 709.261719 621.519531 C 709.800781 620.382812 710.308594 619.234375 710.789062 618.074219 C 711.269531 616.914062 711.722656 615.742188 712.144531 614.558594 C 712.570312 613.375 712.964844 612.183594 713.328125 610.980469 C 713.691406 609.78125 714.027344 608.570312 714.332031 607.351562 C 714.636719 606.132812 714.914062 604.90625 715.160156 603.675781 C 715.402344 602.441406 715.617188 601.207031 715.800781 599.960938 C 715.988281 598.71875 716.140625 597.472656 716.265625 596.222656 C 716.386719 594.972656 716.480469 593.722656 716.539062 592.464844 C 716.601562 591.210938 716.632812 589.957031 716.632812 588.699219 L 716.632812 76.949219 C 716.632812 75.695312 716.601562 74.4375 716.539062 73.183594 C 716.480469 71.929688 716.386719 70.675781 716.265625 69.425781 C 716.140625 68.175781 715.988281 66.929688 715.800781 65.6875 C 715.617188 64.445312 715.402344 63.207031 715.160156 61.976562 C 714.914062 60.742188 714.636719 59.519531 714.332031 58.300781 C 714.027344 57.082031 713.691406 55.871094 713.328125 54.667969 C 712.964844 53.464844 712.570312 52.273438 712.144531 51.089844 C 711.722656 49.90625 711.269531 48.734375 710.789062 47.574219 C 710.308594 46.414062 709.800781 45.265625 709.261719 44.128906 C 708.726562 42.996094 708.160156 41.875 707.570312 40.765625 C 706.976562 39.65625 706.359375 38.566406 705.710938 37.488281 C 705.066406 36.410156 704.394531 35.347656 703.695312 34.304688 C 703 33.257812 702.277344 32.234375 701.527344 31.222656 C 700.777344 30.214844 700.007812 29.222656 699.210938 28.253906 C 698.414062 27.28125 697.59375 26.332031 696.75 25.398438 C 695.90625 24.46875 695.039062 23.558594 694.148438 22.671875 C 693.261719 21.785156 692.351562 20.917969 691.421875 20.074219 C 690.492188 19.230469 689.539062 18.410156 688.570312 17.613281 C 687.597656 16.816406 686.605469 16.042969 685.597656 15.292969 C 684.589844 14.546875 683.5625 13.824219 682.519531 13.125 C 681.472656 12.425781 680.414062 11.753906 679.335938 11.109375 C 678.257812 10.464844 677.164062 9.84375 676.054688 9.253906 C 674.949219 8.660156 673.828125 8.09375 672.691406 7.558594 C 671.554688 7.019531 670.40625 6.511719 669.246094 6.03125 C 668.085938 5.550781 666.914062 5.097656 665.730469 4.675781 C 664.546875 4.253906 663.355469 3.859375 662.152344 3.492188 C 660.953125 3.128906 659.742188 2.792969 658.523438 2.488281 C 657.304688 2.183594 656.078125 1.910156 654.847656 1.664062 C 653.613281 1.417969 652.378906 1.203125 651.132812 1.019531 C 649.890625 0.835938 648.644531 0.679688 647.394531 0.558594 C 646.144531 0.433594 644.890625 0.34375 643.636719 0.28125 C 642.382812 0.21875 641.128906 0.1875 639.871094 0.1875 L 281.648438 0.1875 C 280.390625 0.1875 279.136719 0.21875 277.878906 0.28125 C 276.625 0.34375 275.375 0.433594 274.121094 0.558594 C 272.871094 0.679688 271.625 0.835938 270.382812 1.019531 C 269.140625 1.203125 267.902344 1.417969 266.671875 1.664062 C 265.4375 1.910156 264.214844 2.183594 262.996094 2.488281 C 261.777344 2.792969 260.566406 3.128906 259.363281 3.492188 C 258.160156 3.859375 256.96875 4.253906 255.785156 4.675781 C 254.605469 5.097656 253.433594 5.550781 252.269531 6.03125 C 251.109375 6.511719 249.960938 7.019531 248.828125 7.558594 C 247.691406 8.09375 246.570312 8.660156 245.460938 9.253906 C 244.355469 9.84375 243.261719 10.464844 242.183594 11.109375 C 241.105469 11.753906 240.042969 12.425781 239 13.125 C 237.957031 13.824219 236.929688 14.546875 235.917969 15.292969 C 234.910156 16.042969 233.921875 16.816406 232.949219 17.613281 C 231.976562 18.410156 231.027344 19.230469 230.097656 20.074219 C 229.164062 20.917969 228.257812 21.785156 227.367188 22.671875 C 226.480469 23.558594 225.613281 24.46875 224.769531 25.398438 C 223.925781 26.332031 223.105469 27.28125 222.308594 28.253906 C 221.511719 29.222656 220.738281 30.214844 219.992188 31.222656 C 219.242188 32.234375 218.519531 33.257812 217.820312 34.304688 C 217.125 35.347656 216.453125 36.410156 215.804688 37.488281 C 215.160156 38.566406 214.539062 39.65625 213.949219 40.765625 C 213.355469 41.875 212.792969 42.996094 212.253906 44.128906 C 211.71875 45.265625 211.207031 46.414062 210.726562 47.574219 C 210.246094 48.734375 209.796875 49.90625 209.371094 51.089844 C 208.949219 52.273438 208.554688 53.464844 208.191406 54.667969 C 207.824219 55.871094 207.492188 57.082031 207.183594 58.300781 C 206.878906 59.519531 206.605469 60.742188 206.359375 61.976562 C 206.113281 63.207031 205.898438 64.445312 205.714844 65.6875 C 205.53125 66.929688 205.378906 68.175781 205.253906 69.425781 C 205.132812 70.675781 205.039062 71.929688 204.976562 73.183594 C 204.914062 74.4375 204.882812 75.695312 204.882812 76.949219 L 204.882812 102.539062 L 128.121094 102.539062 C 126.867188 102.539062 125.609375 102.570312 124.355469 102.628906 C 123.101562 102.691406 121.847656 102.785156 120.597656 102.90625 C 119.347656 103.03125 118.101562 103.183594 116.859375 103.367188 C 115.617188 103.554688 114.378906 103.769531 113.148438 104.011719 C 111.914062 104.257812 110.6875 104.535156 109.46875 104.839844 C 108.253906 105.144531 107.042969 105.480469 105.839844 105.84375 C 104.636719 106.207031 103.445312 106.601562 102.261719 107.023438 C 101.078125 107.449219 99.90625 107.902344 98.746094 108.382812 C 97.585938 108.863281 96.4375 109.371094 95.300781 109.90625 C 94.167969 110.445312 93.042969 111.011719 91.9375 111.601562 C 90.828125 112.195312 89.734375 112.8125 88.660156 113.460938 C 87.582031 114.105469 86.519531 114.777344 85.476562 115.476562 C 84.429688 116.171875 83.402344 116.894531 82.394531 117.644531 C 81.386719 118.394531 80.394531 119.164062 79.425781 119.960938 C 78.453125 120.757812 77.503906 121.578125 76.570312 122.421875 C 75.640625 123.265625 74.730469 124.132812 73.84375 125.019531 C 72.953125 125.910156 72.089844 126.820312 71.246094 127.75 C 70.402344 128.679688 69.582031 129.632812 68.785156 130.601562 C 67.988281 131.574219 67.214844 132.5625 66.464844 133.574219 C 65.71875 134.582031 64.996094 135.609375 64.296875 136.652344 C 63.597656 137.699219 62.925781 138.757812 62.28125 139.835938 C 61.636719 140.914062 61.015625 142.007812 60.425781 143.113281 C 59.832031 144.222656 59.265625 145.34375 58.730469 146.480469 C 58.191406 147.617188 57.683594 148.765625 57.203125 149.925781 C 56.722656 151.085938 56.269531 152.257812 55.847656 153.441406 C 55.425781 154.621094 55.03125 155.816406 54.664062 157.015625 C 54.300781 158.21875 53.964844 159.429688 53.660156 160.648438 C 53.355469 161.867188 53.078125 163.09375 52.835938 164.324219 C 52.589844 165.558594 52.375 166.792969 52.191406 168.039062 C 52.007812 169.28125 51.851562 170.527344 51.730469 171.777344 C 51.605469 173.027344 51.515625 174.277344 51.453125 175.535156 C 51.390625 176.789062 51.359375 178.042969 51.359375 179.300781 Z M 256.058594 76.949219 C 256.058594 76.113281 256.101562 75.277344 256.183594 74.441406 C 256.265625 73.609375 256.386719 72.78125 256.550781 71.957031 C 256.714844 71.136719 256.917969 70.324219 257.160156 69.523438 C 257.40625 68.722656 257.6875 67.933594 258.007812 67.160156 C 258.328125 66.382812 258.6875 65.628906 259.082031 64.890625 C 259.476562 64.148438 259.90625 63.433594 260.371094 62.734375 C 260.835938 62.039062 261.335938 61.367188 261.867188 60.71875 C 262.398438 60.070312 262.960938 59.449219 263.554688 58.859375 C 264.144531 58.265625 264.765625 57.703125 265.414062 57.171875 C 266.0625 56.640625 266.734375 56.140625 267.429688 55.675781 C 268.128906 55.210938 268.847656 54.78125 269.585938 54.382812 C 270.324219 53.988281 271.082031 53.632812 271.855469 53.3125 C 272.628906 52.992188 273.417969 52.707031 274.21875 52.464844 C 275.019531 52.222656 275.832031 52.019531 276.65625 51.855469 C 277.476562 51.691406 278.304688 51.570312 279.140625 51.488281 C 279.972656 51.40625 280.808594 51.363281 281.648438 51.363281 L 639.871094 51.363281 C 640.710938 51.363281 641.546875 51.40625 642.378906 51.488281 C 643.214844 51.570312 644.039062 51.691406 644.863281 51.855469 C 645.683594 52.019531 646.496094 52.222656 647.296875 52.464844 C 648.101562 52.707031 648.890625 52.992188 649.664062 53.3125 C 650.4375 53.632812 651.195312 53.988281 651.933594 54.382812 C 652.671875 54.78125 653.390625 55.210938 654.085938 55.675781 C 654.785156 56.140625 655.457031 56.640625 656.101562 57.171875 C 656.75 57.703125 657.371094 58.265625 657.964844 58.859375 C 658.554688 59.449219 659.117188 60.070312 659.648438 60.71875 C 660.183594 61.367188 660.679688 62.039062 661.144531 62.734375 C 661.613281 63.433594 662.042969 64.148438 662.4375 64.890625 C 662.832031 65.628906 663.191406 66.382812 663.511719 67.160156 C 663.832031 67.933594 664.113281 68.722656 664.355469 69.523438 C 664.601562 70.324219 664.804688 71.136719 664.964844 71.957031 C 665.128906 72.78125 665.253906 73.609375 665.335938 74.441406 C 665.417969 75.277344 665.457031 76.113281 665.457031 76.949219 L 665.457031 588.699219 C 665.457031 589.539062 665.417969 590.375 665.335938 591.207031 C 665.253906 592.042969 665.128906 592.871094 664.964844 593.691406 C 664.804688 594.511719 664.601562 595.324219 664.355469 596.128906 C 664.113281 596.929688 663.832031 597.71875 663.511719 598.492188 C 663.191406 599.265625 662.832031 600.023438 662.4375 600.761719 C 662.042969 601.5 661.613281 602.21875 661.144531 602.914062 C 660.679688 603.613281 660.183594 604.285156 659.648438 604.933594 C 659.117188 605.578125 658.554688 606.199219 657.964844 606.792969 C 657.371094 607.386719 656.75 607.945312 656.101562 608.480469 C 655.457031 609.011719 654.785156 609.507812 654.085938 609.972656 C 653.390625 610.441406 652.671875 610.871094 651.933594 611.265625 C 651.195312 611.660156 650.4375 612.019531 649.664062 612.339844 C 648.890625 612.660156 648.101562 612.941406 647.296875 613.183594 C 646.496094 613.429688 645.683594 613.632812 644.863281 613.796875 C 644.039062 613.957031 643.214844 614.082031 642.378906 614.164062 C 641.546875 614.246094 640.710938 614.285156 639.871094 614.285156 L 563.109375 614.285156 L 563.109375 179.300781 C 563.109375 178.042969 563.078125 176.789062 563.015625 175.535156 C 562.953125 174.277344 562.863281 173.027344 562.738281 171.777344 C 562.617188 170.527344 562.460938 169.28125 562.277344 168.035156 C 562.09375 166.792969 561.878906 165.558594 561.632812 164.324219 C 561.386719 163.09375 561.113281 161.867188 560.808594 160.648438 C 560.503906 159.429688 560.167969 158.21875 559.804688 157.015625 C 559.4375 155.816406 559.042969 154.621094 558.621094 153.441406 C 558.199219 152.257812 557.746094 151.085938 557.265625 149.925781 C 556.785156 148.765625 556.277344 147.617188 555.738281 146.480469 C 555.203125 145.34375 554.636719 144.222656 554.042969 143.113281 C 553.453125 142.007812 552.832031 140.914062 552.1875 139.835938 C 551.542969 138.757812 550.871094 137.699219 550.171875 136.652344 C 549.472656 135.609375 548.75 134.582031 548.003906 133.574219 C 547.253906 132.5625 546.480469 131.574219 545.683594 130.601562 C 544.886719 129.632812 544.066406 128.679688 543.222656 127.75 C 542.378906 126.820312 541.515625 125.910156 540.625 125.019531 C 539.738281 124.132812 538.828125 123.265625 537.898438 122.421875 C 536.964844 121.578125 536.015625 120.757812 535.042969 119.960938 C 534.074219 119.164062 533.082031 118.394531 532.074219 117.644531 C 531.066406 116.894531 530.039062 116.171875 528.992188 115.476562 C 527.949219 114.777344 526.886719 114.105469 525.808594 113.460938 C 524.734375 112.8125 523.640625 112.195312 522.53125 111.601562 C 521.425781 111.011719 520.300781 110.445312 519.167969 109.90625 C 518.03125 109.371094 516.882812 108.863281 515.722656 108.382812 C 514.5625 107.902344 513.390625 107.449219 512.207031 107.023438 C 511.023438 106.601562 509.832031 106.207031 508.628906 105.84375 C 507.425781 105.480469 506.214844 105.144531 505 104.839844 C 503.78125 104.535156 502.554688 104.257812 501.320312 104.011719 C 500.089844 103.769531 498.851562 103.554688 497.609375 103.367188 C 496.367188 103.183594 495.121094 103.03125 493.871094 102.90625 C 492.621094 102.785156 491.367188 102.691406 490.113281 102.628906 C 488.859375 102.570312 487.601562 102.539062 486.347656 102.539062 L 256.058594 102.539062 Z M 102.535156 179.300781 C 102.535156 178.460938 102.574219 177.625 102.65625 176.792969 C 102.738281 175.957031 102.863281 175.128906 103.027344 174.308594 C 103.191406 173.488281 103.394531 172.675781 103.636719 171.871094 C 103.878906 171.070312 104.160156 170.28125 104.484375 169.507812 C 104.804688 168.734375 105.160156 167.976562 105.554688 167.238281 C 105.953125 166.5 106.382812 165.78125 106.847656 165.085938 C 107.3125 164.386719 107.8125 163.714844 108.34375 163.066406 C 108.875 162.421875 109.4375 161.800781 110.027344 161.207031 C 110.621094 160.613281 111.242188 160.054688 111.890625 159.519531 C 112.539062 158.988281 113.210938 158.492188 113.90625 158.023438 C 114.601562 157.558594 115.320312 157.128906 116.058594 156.734375 C 116.800781 156.339844 117.554688 155.980469 118.332031 155.660156 C 119.105469 155.339844 119.894531 155.058594 120.695312 154.816406 C 121.496094 154.570312 122.308594 154.367188 123.128906 154.203125 C 123.953125 154.042969 124.78125 153.917969 125.613281 153.835938 C 126.449219 153.753906 127.285156 153.714844 128.121094 153.714844 L 486.347656 153.714844 C 487.183594 153.714844 488.019531 153.753906 488.855469 153.835938 C 489.6875 153.917969 490.515625 154.042969 491.339844 154.203125 C 492.160156 154.367188 492.972656 154.570312 493.773438 154.816406 C 494.574219 155.058594 495.363281 155.339844 496.136719 155.660156 C 496.914062 155.980469 497.667969 156.339844 498.410156 156.734375 C 499.148438 157.128906 499.867188 157.558594 500.5625 158.023438 C 501.257812 158.492188 501.929688 158.988281 502.578125 159.519531 C 503.226562 160.054688 503.847656 160.613281 504.441406 161.207031 C 505.03125 161.800781 505.59375 162.421875 506.125 163.066406 C 506.65625 163.714844 507.15625 164.386719 507.621094 165.085938 C 508.085938 165.78125 508.515625 166.5 508.914062 167.238281 C 509.308594 167.976562 509.664062 168.734375 509.984375 169.507812 C 510.308594 170.28125 510.589844 171.070312 510.832031 171.871094 C 511.074219 172.675781 511.277344 173.488281 511.441406 174.308594 C 511.605469 175.128906 511.726562 175.957031 511.8125 176.792969 C 511.894531 177.625 511.933594 178.460938 511.933594 179.300781 L 511.933594 691.050781 C 511.933594 691.886719 511.894531 692.722656 511.8125 693.558594 C 511.726562 694.390625 511.605469 695.21875 511.441406 696.039062 C 511.277344 696.863281 511.074219 697.675781 510.832031 698.476562 C 510.589844 699.277344 510.308594 700.066406 509.984375 700.839844 C 509.664062 701.617188 509.308594 702.371094 508.914062 703.109375 C 508.515625 703.851562 508.085938 704.566406 507.621094 705.265625 C 507.15625 705.960938 506.65625 706.632812 506.125 707.28125 C 505.59375 707.929688 505.03125 708.550781 504.441406 709.140625 C 503.847656 709.734375 503.226562 710.296875 502.578125 710.828125 C 501.929688 711.359375 501.257812 711.859375 500.5625 712.324219 C 499.867188 712.789062 499.148438 713.21875 498.410156 713.617188 C 497.667969 714.011719 496.914062 714.367188 496.136719 714.6875 C 495.363281 715.007812 494.574219 715.292969 493.773438 715.535156 C 492.972656 715.777344 492.160156 715.980469 491.339844 716.144531 C 490.515625 716.308594 489.6875 716.429688 488.855469 716.511719 C 488.019531 716.59375 487.183594 716.636719 486.347656 716.636719 L 128.121094 716.636719 C 127.285156 716.636719 126.449219 716.59375 125.613281 716.511719 C 124.78125 716.429688 123.953125 716.308594 123.128906 716.144531 C 122.308594 715.980469 121.496094 715.777344 120.695312 715.535156 C 119.894531 715.292969 119.105469 715.007812 118.332031 714.6875 C 117.554688 714.367188 116.800781 714.011719 116.058594 713.617188 C 115.320312 713.21875 114.601562 712.789062 113.90625 712.324219 C 113.210938 711.859375 112.539062 711.359375 111.890625 710.828125 C 111.242188 710.296875 110.621094 709.734375 110.027344 709.140625 C 109.4375 708.550781 108.875 707.929688 108.34375 707.28125 C 107.8125 706.632812 107.3125 705.960938 106.847656 705.265625 C 106.382812 704.566406 105.953125 703.851562 105.554688 703.109375 C 105.160156 702.371094 104.804688 701.617188 104.484375 700.839844 C 104.160156 700.066406 103.878906 699.277344 103.636719 698.476562 C 103.394531 697.675781 103.191406 696.863281 103.027344 696.039062 C 102.863281 695.21875 102.738281 694.390625 102.65625 693.558594 C 102.574219 692.722656 102.535156 691.886719 102.535156 691.050781 Z M 102.535156 179.300781 " fill-opacity="1" fill-rule="nonzero"/></g></svg>