<svg xmlns="http://www.w3.org/2000/svg" xmlns:xlink="http://www.w3.org/1999/xlink" width="500" zoomAndPan="magnify" viewBox="0 0 375 374.999991" height="500" preserveAspectRatio="xMidYMid meet" version="1.0"><defs><clipPath id="6cb9883159"><path d="M 40 198 L 362.953125 198 L 362.953125 209 L 40 209 Z M 40 198 " clip-rule="nonzero"/></clipPath></defs><path fill="#332a51" d="M 110.539062 340.34375 C 110.539062 344.644531 98.207031 348.128906 82.996094 348.128906 C 67.785156 348.128906 55.453125 344.644531 55.453125 340.34375 C 55.453125 336.042969 67.785156 332.558594 82.996094 332.558594 C 98.207031 332.558594 110.539062 336.042969 110.539062 340.34375 " fill-opacity="1" fill-rule="nonzero"/><path fill="#332a51" d="M 348.484375 343.175781 C 348.484375 345.910156 340.636719 348.128906 330.957031 348.128906 C 321.277344 348.128906 313.433594 345.910156 313.433594 343.175781 C 313.433594 340.4375 317.894531 338.222656 330.957031 338.222656 C 340.636719 338.222656 348.484375 340.4375 348.484375 343.175781 " fill-opacity="1" fill-rule="nonzero"/><path fill="#332a51" d="M 197.183594 290.082031 C 185.582031 285.632812 187.359375 281.664062 158.46875 269.082031 C 132.8125 257.910156 71.949219 281.207031 47.296875 202.035156 C 12.066406 88.90625 124.949219 0.00390625 255.972656 41.445312 C 282.714844 49.902344 362.851562 100.191406 351.097656 190.199219 C 345.023438 236.6875 311.800781 276.570312 267.035156 289.453125 C 246.6875 295.308594 221.511719 299.40625 197.183594 290.082031 " fill-opacity="1" fill-rule="nonzero"/><path fill="#ffffff" d="M 204.28125 198.503906 L 154.929688 198.503906 L 154.929688 105.234375 L 204.28125 105.234375 L 204.28125 198.503906 " fill-opacity="1" fill-rule="nonzero"/><path fill="#ffffff" d="M 204.28125 101.316406 L 154.929688 101.316406 L 154.929688 8.054688 L 204.28125 8.054688 L 204.28125 101.316406 " fill-opacity="1" fill-rule="nonzero"/><path fill="#ffffff" d="M 257.554688 198.503906 L 208.199219 198.503906 L 208.199219 105.234375 L 257.554688 105.234375 L 257.554688 198.503906 " fill-opacity="1" fill-rule="nonzero"/><path fill="#ffffff" d="M 257.554688 101.316406 L 208.199219 101.316406 L 208.199219 8.054688 L 257.554688 8.054688 L 257.554688 101.316406 " fill-opacity="1" fill-rule="nonzero"/><path fill="#ffffff" d="M 310.824219 198.503906 L 261.472656 198.503906 L 261.472656 105.234375 L 310.824219 105.234375 L 310.824219 198.503906 " fill-opacity="1" fill-rule="nonzero"/><path fill="#ffffff" d="M 310.824219 101.316406 L 261.46875 101.316406 L 261.46875 8.054688 L 310.824219 8.054688 L 310.824219 101.316406 " fill-opacity="1" fill-rule="nonzero"/><path fill="#332a51" d="M 163.792969 355.882812 C 163.792969 366.441406 195.4375 375 234.476562 375 C 273.515625 375 305.164062 366.441406 305.164062 355.882812 C 305.164062 345.328125 273.515625 336.769531 234.476562 336.769531 C 195.4375 336.769531 163.792969 345.328125 163.792969 355.882812 " fill-opacity="1" fill-rule="nonzero"/><path fill="#332a51" d="M 83.292969 335.789062 C 83.292969 349.503906 134.570312 360.625 197.828125 360.625 C 261.085938 360.625 312.363281 349.503906 312.363281 335.789062 C 312.363281 322.074219 261.085938 310.953125 197.828125 310.953125 C 134.570312 310.953125 83.292969 322.074219 83.292969 335.789062 " fill-opacity="1" fill-rule="nonzero"/><path fill="#ae9ae3" d="M 217.121094 312.421875 L 174.972656 317.863281 L 132.660156 311.695312 L 130.347656 312.796875 L 128.527344 316.695312 L 174.980469 327.726562 L 221.433594 316.695312 L 219.597656 313.332031 L 217.121094 312.421875 " fill-opacity="1" fill-rule="nonzero"/><path fill="#7764a6" d="M 219.601562 313.328125 L 174.972656 319.234375 L 130.359375 312.804688 L 128.527344 316.695312 L 174.980469 327.753906 L 221.433594 316.695312 L 219.601562 313.328125 " fill-opacity="1" fill-rule="nonzero"/><path fill="#ae9ae3" d="M 224.15625 335.691406 L 180.113281 317.644531 C 176.832031 316.230469 173.113281 316.230469 169.835938 317.644531 L 125.523438 335.691406 L 124.671875 344.445312 L 127.257812 345.195312 L 172.296875 328.929688 C 174.03125 328.308594 175.929688 328.308594 177.664062 328.929688 L 222.667969 345.164062 L 225.289062 344.445312 L 224.15625 335.691406 " fill-opacity="1" fill-rule="nonzero"/><path fill="#7764a6" d="M 221.773438 336.855469 L 179.863281 319.679688 C 176.742188 318.335938 173.207031 318.335938 170.082031 319.679688 L 127.917969 336.855469 L 127.109375 345.179688 L 172.425781 328.886719 C 174.078125 328.292969 175.882812 328.292969 177.535156 328.886719 L 222.855469 345.179688 L 221.773438 336.855469 " fill-opacity="1" fill-rule="nonzero"/><path fill="#7764a6" d="M 174.980469 321.171875 C 172.214844 321.171875 169.972656 318.929688 169.972656 316.164062 L 169.972656 261.558594 C 169.972656 260.371094 170.9375 259.40625 172.125 259.40625 L 177.839844 259.40625 C 179.027344 259.40625 179.988281 260.371094 179.988281 261.558594 L 179.988281 316.164062 C 179.988281 318.929688 177.746094 321.171875 174.980469 321.171875 " fill-opacity="1" fill-rule="nonzero"/><path fill="#ae9ae3" d="M 95.886719 197.890625 C 96.914062 192.652344 99.332031 190.6875 100.457031 189.886719 C 105.164062 186.546875 111.574219 188.652344 113.257812 189.199219 C 121.34375 191.855469 125.65625 199.007812 126.738281 200.859375 C 130.414062 207.148438 130.199219 211.007812 135.449219 218.691406 C 137.242188 221.3125 138.457031 220.851562 138.640625 220.746094 C 139.953125 220 136.574219 211.488281 135.898438 210.230469 C 129.4375 198.238281 122.566406 190.738281 114.628906 175.027344 C 113.191406 172.183594 111.714844 168.058594 112.554688 163.140625 C 113.3125 158.710938 115.800781 155.597656 117.125 154.457031 C 125.03125 147.605469 141.449219 143.589844 158.941406 142.132812 C 170.070312 141.210938 177.570312 140.996094 191.019531 142.132812 C 208.511719 143.617188 224.929688 147.605469 232.835938 154.457031 C 234.160156 155.597656 236.648438 158.710938 237.40625 163.140625 C 238.246094 168.058594 236.769531 172.183594 235.332031 175.027344 C 227.394531 190.738281 220.523438 198.238281 214.0625 210.230469 C 213.386719 211.488281 210.007812 220 211.320312 220.746094 C 211.5 220.851562 212.722656 221.3125 214.511719 218.691406 C 219.761719 211.007812 219.546875 207.148438 223.222656 200.859375 C 224.304688 199.007812 228.617188 191.855469 236.703125 189.199219 C 238.386719 188.652344 244.796875 186.546875 249.503906 189.886719 C 250.628906 190.6875 253.046875 192.652344 254.074219 197.890625 C 255.785156 206.613281 247.136719 226.910156 239.675781 237.890625 C 234.75 245.148438 232.183594 248.851562 227.335938 252.523438 C 219.152344 258.714844 210.703125 260.964844 203.339844 261.4375 C 193.203125 262.09375 156.757812 262.09375 146.621094 261.4375 C 139.257812 260.964844 130.808594 258.714844 122.625 252.523438 C 117.777344 248.851562 115.210938 245.148438 110.285156 237.890625 C 102.828125 226.910156 94.175781 206.613281 95.886719 197.890625 " fill-opacity="1" fill-rule="nonzero"/><path fill="#7764a6" d="M 250.09375 197.5625 C 251.152344 204.683594 240.445312 229.179688 227.046875 237.078125 C 221.335938 240.445312 216.90625 242.71875 208.171875 243.445312 C 181.195312 245.683594 164.679688 246.929688 137.5 243.007812 C 128.296875 241.679688 123.449219 240.21875 118.84375 236.636719 C 107.214844 227.597656 103.097656 215.472656 101.726562 211.613281 C 100.34375 207.722656 96.445312 194.328125 102.175781 190.296875 C 109.195312 185.351562 119.5 193.382812 121.191406 195.046875 C 126 199.785156 128.550781 205.824219 129.460938 208.246094 C 130.800781 211.820312 132.894531 218.882812 138.292969 221.851562 C 146.824219 226.539062 192.335938 235.113281 212.074219 221.441406 C 215.773438 218.875 218.339844 211.667969 218.339844 211.667969 C 219.332031 209.542969 221.414062 203.007812 224.613281 198.46875 C 224.613281 198.46875 229.136719 191.394531 237.640625 189.347656 C 245.945312 187.351562 249.253906 191.921875 250.09375 197.5625 " fill-opacity="1" fill-rule="nonzero"/><path fill="#ae9ae3" d="M 222.058594 37.640625 L 296.007812 37.640625 C 300.832031 37.640625 304.742188 41.550781 304.742188 46.375 L 304.742188 81.136719 C 304.742188 85.960938 300.832031 89.871094 296.007812 89.871094 L 241.988281 89.871094 L 232.03125 98.972656 L 232.03125 89.871094 L 222.058594 89.871094 C 217.234375 89.871094 213.324219 85.960938 213.324219 81.136719 L 213.324219 46.375 C 213.324219 41.550781 217.234375 37.640625 222.058594 37.640625 " fill-opacity="1" fill-rule="nonzero"/><path fill="#332a51" d="M 274.738281 78.304688 C 274.738281 79.367188 273.878906 80.226562 272.816406 80.226562 C 271.753906 80.226562 270.894531 79.367188 270.894531 78.304688 C 270.894531 77.242188 271.753906 76.382812 272.816406 76.382812 C 273.878906 76.382812 274.738281 77.242188 274.738281 78.304688 " fill-opacity="1" fill-rule="nonzero"/><path fill="#332a51" d="M 282.714844 78.304688 C 282.714844 79.367188 281.851562 80.226562 280.789062 80.226562 C 279.730469 80.226562 278.867188 79.367188 278.867188 78.304688 C 278.867188 77.242188 279.730469 76.382812 280.789062 76.382812 C 281.851562 76.382812 282.714844 77.242188 282.714844 78.304688 " fill-opacity="1" fill-rule="nonzero"/><path fill="#332a51" d="M 290.6875 78.304688 C 290.6875 79.367188 289.824219 80.226562 288.765625 80.226562 C 287.703125 80.226562 286.84375 79.367188 286.84375 78.304688 C 286.84375 77.242188 287.703125 76.382812 288.765625 76.382812 C 289.824219 76.382812 290.6875 77.242188 290.6875 78.304688 " fill-opacity="1" fill-rule="nonzero"/><path fill="#ffffff" d="M 290.589844 52.566406 L 246.296875 52.566406 C 245.234375 52.566406 244.371094 51.703125 244.371094 50.636719 C 244.371094 49.570312 245.234375 48.703125 246.296875 48.703125 L 290.589844 48.703125 C 291.660156 48.703125 292.523438 49.570312 292.523438 50.636719 C 292.523438 51.703125 291.660156 52.566406 290.589844 52.566406 " fill-opacity="1" fill-rule="nonzero"/><path fill="#ffffff" d="M 290.59375 61.792969 L 226.164062 61.792969 C 225.097656 61.792969 224.230469 60.929688 224.230469 59.859375 C 224.230469 58.792969 225.097656 57.929688 226.164062 57.929688 L 290.59375 57.929688 C 291.660156 57.929688 292.523438 58.792969 292.523438 59.859375 C 292.523438 60.929688 291.660156 61.792969 290.59375 61.792969 " fill-opacity="1" fill-rule="nonzero"/><path fill="#ffffff" d="M 290.59375 71.019531 L 226.164062 71.019531 C 225.097656 71.019531 224.230469 70.15625 224.230469 69.089844 C 224.230469 68.019531 225.097656 67.15625 226.164062 67.15625 L 290.59375 67.15625 C 291.660156 67.15625 292.523438 68.019531 292.523438 69.089844 C 292.523438 70.15625 291.660156 71.019531 290.59375 71.019531 " fill-opacity="1" fill-rule="nonzero"/><path fill="#ffffff" d="M 265.210938 80.246094 L 226.164062 80.246094 C 225.097656 80.246094 224.230469 79.382812 224.230469 78.316406 C 224.230469 77.25 225.097656 76.386719 226.164062 76.386719 L 265.210938 76.386719 C 266.277344 76.386719 267.144531 77.25 267.144531 78.316406 C 267.144531 79.382812 266.277344 80.246094 265.210938 80.246094 " fill-opacity="1" fill-rule="nonzero"/><path fill="#fccc44" d="M 106.523438 150.570312 L 98.757812 109.605469 C 98.65625 109.0625 98.179688 108.667969 97.625 108.667969 L 60.179688 108.667969 C 59.625 108.667969 59.148438 109.0625 59.046875 109.605469 L 51.28125 150.570312 C 51.148438 151.28125 51.695312 151.941406 52.417969 151.941406 L 105.386719 151.941406 C 106.113281 151.941406 106.65625 151.28125 106.523438 150.570312 " fill-opacity="1" fill-rule="nonzero"/><path fill="#7764a6" d="M 81.082031 163.160156 C 80.601562 158.648438 83.488281 154.445312 84.324219 153.332031 C 84.414062 153.210938 84.328125 153.042969 84.179688 153.042969 L 73.625 153.042969 C 73.476562 153.042969 73.390625 153.210938 73.480469 153.332031 C 74.316406 154.445312 77.203125 158.648438 76.722656 163.160156 C 75.753906 172.265625 68.121094 180.339844 68.121094 187.714844 C 68.121094 191.148438 69.949219 196.507812 70.527344 198.347656 C 70.625 198.648438 70.902344 198.855469 71.21875 198.855469 L 86.585938 198.855469 C 86.902344 198.855469 87.179688 198.648438 87.277344 198.347656 C 87.859375 196.507812 89.683594 191.148438 89.683594 187.714844 C 89.683594 180.339844 82.050781 172.265625 81.082031 163.160156 " fill-opacity="1" fill-rule="nonzero"/><path fill="#ffffff" d="M 106.496094 185.730469 C 105.195312 188.769531 102.464844 190.855469 100.449219 191.882812 C 101.136719 188.621094 101.699219 184.625 101.917969 180.441406 C 102.476562 180.148438 103.238281 179.957031 104.292969 180.148438 C 105.277344 180.324219 106 180.824219 106.429688 181.625 C 107.128906 182.921875 106.953125 184.660156 106.496094 185.730469 Z M 108.078125 180.738281 C 107.371094 179.429688 106.175781 178.585938 104.621094 178.308594 C 103.582031 178.121094 102.710938 178.203125 102 178.410156 C 102.023438 177.492188 102.027344 176.570312 102.011719 175.648438 C 102.011719 175.511719 101.898438 175.398438 101.757812 175.398438 L 82.652344 175.398438 C 82.511719 175.398438 82.398438 175.511719 82.398438 175.648438 C 82.25 185.398438 84.292969 195.214844 86.027344 198.582031 C 86.113281 198.75 86.285156 198.855469 86.472656 198.855469 L 97.9375 198.855469 C 98.125 198.855469 98.296875 198.75 98.382812 198.582031 C 98.890625 197.597656 99.421875 196.0625 99.921875 194.140625 C 102.328125 193.269531 106.386719 190.730469 108.214844 186.464844 C 108.863281 184.949219 109.070312 182.589844 108.078125 180.738281 " fill-opacity="1" fill-rule="nonzero"/><path fill="#3a4a1d" d="M 314.757812 173.269531 C 311.925781 169.039062 314.058594 161.546875 320.839844 158.09375 C 322.433594 157.28125 324.585938 155.734375 325.300781 153.582031 C 325.507812 152.964844 325.324219 152.410156 325.484375 152.421875 C 325.683594 152.433594 325.742188 153.769531 325.757812 154.128906 C 325.878906 156.902344 325.265625 159.175781 325.007812 160.484375 C 324.140625 164.832031 325.550781 170.550781 321.609375 174.429688 C 318.773438 177.222656 316.160156 175.367188 314.757812 173.269531 " fill-opacity="1" fill-rule="nonzero"/><path fill="#3a4a1d" d="M 308.683594 156.289062 C 308.832031 156.304688 308.5 156.496094 308.652344 156.984375 C 308.867188 157.675781 309.441406 158.085938 309.789062 158.464844 C 311.039062 159.832031 311.3125 161.589844 311.226562 163.382812 C 311.164062 164.699219 310.164062 166.597656 309.226562 165.9375 C 304.738281 162.785156 307.839844 158.3125 308.207031 157.523438 C 308.648438 156.566406 308.492188 156.273438 308.683594 156.289062 " fill-opacity="1" fill-rule="nonzero"/><path fill="#516123" d="M 312.773438 180.175781 C 314.878906 178.09375 312.101562 166.363281 302.59375 160.578125 C 301.609375 159.980469 300 158.847656 299.699219 159.078125 C 299.546875 159.195312 300.582031 159.382812 300.269531 160.378906 C 296.839844 171.308594 308.316406 171.308594 308.90625 178.296875 C 309.082031 180.359375 311.589844 181.347656 312.773438 180.175781 " fill-opacity="1" fill-rule="nonzero"/><path fill="#516123" d="M 336.253906 161.691406 C 335.628906 162.277344 333.699219 162.050781 331.898438 162.839844 C 330.210938 163.578125 329.488281 165.253906 328.742188 167.664062 C 327.464844 171.800781 323.820312 178.121094 318.710938 178.167969 C 310.449219 178.242188 317.925781 168.851562 325.3125 163.773438 C 328.5 161.582031 332.886719 161.539062 334.859375 161.511719 C 336.027344 161.496094 336.546875 161.421875 336.253906 161.691406 " fill-opacity="1" fill-rule="nonzero"/><path fill="#516123" d="M 314.074219 152.488281 C 314.699219 152.1875 313.859375 154.6875 317.011719 157.890625 C 323.734375 164.722656 322.347656 178.519531 315.300781 179.214844 C 312.507812 179.492188 302.097656 168.34375 313.320312 155.292969 C 314.648438 153.75 313.839844 152.601562 314.074219 152.488281 " fill-opacity="1" fill-rule="nonzero"/><path fill="#9fbc50" d="M 321.589844 162.898438 C 321.628906 162.417969 323.304688 167.363281 323.503906 169.78125 C 323.933594 175.03125 323.257812 177.917969 321.21875 180.101562 C 318.847656 182.648438 314.820312 183.691406 312.433594 181.402344 C 310.296875 179.355469 310.175781 175.730469 312.023438 173.199219 C 313.339844 171.394531 313.789062 171.324219 317.421875 167.457031 C 319.667969 165.070312 321.402344 165.117188 321.589844 162.898438 " fill-opacity="1" fill-rule="nonzero"/><path fill="#e69601" d="M 326.410156 179.277344 C 326.351562 178.617188 325.800781 178.105469 325.140625 178.105469 L 307.21875 178.105469 C 306.554688 178.105469 306.003906 178.617188 305.945312 179.277344 L 305.148438 188.261719 L 305.148438 189.546875 C 305.148438 194.441406 309.117188 198.855469 314.007812 198.855469 L 318.351562 198.855469 C 323.242188 198.855469 327.207031 194.441406 327.207031 189.546875 L 327.207031 188.261719 L 326.410156 179.277344 " fill-opacity="1" fill-rule="nonzero"/><path fill="#f79556" d="M 229.796875 327.132812 C 230.527344 329.089844 230.476562 330.425781 230.523438 334.765625 C 230.566406 338.46875 230.628906 339.527344 230.886719 340.941406 C 231.128906 342.261719 231.46875 343.460938 232.339844 344.578125 C 233.089844 345.539062 233.792969 345.871094 234.523438 346.394531 C 236.597656 347.890625 256.332031 363.464844 261.410156 363.476562 C 267.726562 363.492188 269.707031 362.011719 270.492188 361.296875 C 271.652344 360.242188 271.898438 359.324219 271.945312 359.117188 C 272.4375 357.089844 270.917969 355.160156 269.402344 353.300781 C 265.90625 349.011719 264.15625 346.867188 262.863281 345.667969 C 262.863281 345.667969 257.054688 340.292969 251.597656 332.949219 C 245.277344 324.4375 245.96875 320.984375 242.152344 319.863281 C 236.925781 318.328125 229.292969 322.945312 229.433594 326.042969 C 229.449219 326.375 229.542969 326.457031 229.796875 327.132812 " fill-opacity="1" fill-rule="nonzero"/><path fill="#3a4a1d" d="M 173.40625 204.242188 C 175.789062 201.46875 180.554688 203.625 190.386719 203.371094 C 194.261719 203.273438 198.632812 202.433594 207.367188 200.761719 C 214.617188 199.367188 215.601562 198.859375 229.136719 195.96875 C 232.855469 195.175781 238.589844 193.980469 246.121094 193.789062 C 251.847656 193.644531 254.320312 194.195312 256.570312 195.53125 C 261.148438 198.253906 262.714844 203.003906 263.101562 204.242188 C 263.5 205.511719 264.773438 209.578125 263.101562 213.824219 C 261.863281 216.972656 259.589844 218.734375 257.441406 220.355469 C 246.945312 228.277344 241.699219 232.238281 236.105469 234.730469 C 231.929688 236.589844 227.378906 238.617188 221.734375 239.519531 C 202.695312 242.570312 181.019531 231.242188 174.277344 215.566406 C 173.507812 213.773438 170.742188 207.347656 173.40625 204.242188 " fill-opacity="1" fill-rule="nonzero"/><path fill="#516123" d="M 119.804688 211.039062 C 118.734375 216.316406 120.574219 220.84375 121.8125 223.894531 C 122.460938 225.488281 124.351562 230.019531 128.238281 233.535156 C 132.136719 237.058594 136.226562 237.914062 148.316406 239.558594 C 162.410156 241.480469 169.460938 242.4375 177.632812 242.773438 C 184.320312 243.050781 191.027344 243.171875 197.710938 242.773438 C 198.210938 242.742188 199.835938 242.636719 200.523438 243.578125 C 201.34375 244.707031 200.523438 247.191406 200.042969 249.011719 C 198.910156 253.320312 199.984375 257.804688 201.726562 264.867188 C 204.007812 274.113281 202.761719 271.65625 206.542969 282.941406 C 211.328125 297.214844 214.175781 308.648438 214.175781 308.648438 C 217.28125 321.125 217.417969 325.332031 221.402344 327.527344 C 224.929688 329.46875 229.109375 328.421875 237.464844 326.324219 C 242.324219 325.105469 246.136719 322.996094 246.703125 321.097656 C 247.121094 319.691406 246.511719 318.359375 246.300781 317.886719 C 242.695312 309.824219 231.097656 241.15625 229.03125 231.925781 C 227.46875 224.953125 225.640625 222.632812 225.015625 221.886719 C 221.808594 218.0625 217.867188 217.113281 210.160156 214.65625 C 204.351562 212.800781 198.753906 210.304688 192.890625 208.628906 C 182.917969 205.78125 179.625 205.511719 164.378906 200.359375 C 157.160156 197.917969 153.011719 196.609375 147.113281 196.339844 C 142.972656 196.152344 138.722656 196.003906 133.859375 197.949219 C 132.261719 198.589844 121.796875 201.207031 119.804688 211.039062 " fill-opacity="1" fill-rule="nonzero"/><path fill="#516123" d="M 212.382812 220.429688 C 213.957031 218.269531 215.828125 216.324219 217.875 214.582031 C 219.921875 212.839844 222.152344 211.300781 224.519531 210.011719 C 226.878906 208.714844 229.371094 207.65625 231.945312 206.875 C 234.519531 206.089844 237.167969 205.578125 239.839844 205.449219 C 237.289062 206.238281 234.792969 207.074219 232.363281 208.054688 C 229.933594 209.035156 227.582031 210.171875 225.289062 211.421875 C 223 212.671875 220.78125 214.054688 218.640625 215.570312 C 216.5 217.085938 214.441406 218.726562 212.382812 220.429688 " fill-opacity="1" fill-rule="nonzero"/><path fill="#1e1735" d="M 229.730469 330.742188 C 228.628906 330.835938 225.324219 340.832031 227.339844 344.515625 C 228.046875 345.804688 237.90625 354 242.578125 357.546875 C 243.453125 358.214844 245.898438 360.015625 249.238281 361.644531 C 250.804688 362.410156 255.070312 364.917969 262.71875 365.175781 C 265.441406 365.265625 269.785156 364.238281 272.558594 362.761719 C 274.304688 361.832031 274.851562 361.003906 275.085938 360.648438 C 276.363281 358.746094 274.796875 355.203125 274.457031 354.53125 C 272.964844 351.585938 270.886719 350.816406 266.839844 348.015625 C 260.242188 343.449219 256.742188 338.476562 252.96875 332.765625 C 251.921875 331.179688 252.589844 330.285156 251.601562 329.613281 C 249.96875 328.5 245.042969 331.4375 240.570312 335.171875 C 239.308594 336.226562 237.554688 337.332031 235.089844 336.328125 C 231.289062 334.78125 231.039062 330.632812 229.730469 330.742188 " fill-opacity="1" fill-rule="nonzero"/><path fill="#7764a6" d="M 227.902344 339.882812 C 229.667969 341.25 231.484375 342.53125 233.300781 343.820312 L 238.753906 347.671875 L 244.210938 351.523438 C 246.023438 352.804688 247.835938 354.101562 249.664062 355.355469 C 250.117188 355.667969 250.574219 355.996094 251.019531 356.285156 C 251.246094 356.4375 251.453125 356.566406 251.683594 356.691406 C 251.910156 356.8125 252.152344 356.933594 252.390625 357.050781 C 253.359375 357.515625 254.378906 357.898438 255.402344 358.238281 C 257.464844 358.921875 259.609375 359.324219 261.773438 359.460938 C 263.933594 359.570312 266.125 359.375 268.222656 358.773438 C 268.488281 358.710938 268.746094 358.621094 269.007812 358.539062 C 269.273438 358.457031 269.523438 358.367188 269.777344 358.265625 C 270.285156 358.0625 270.78125 357.828125 271.28125 357.585938 C 271.773438 357.339844 272.265625 357.078125 272.742188 356.800781 C 273.222656 356.519531 273.707031 356.238281 274.125 355.871094 C 273.363281 356.699219 272.421875 357.335938 271.484375 357.949219 C 271.015625 358.257812 270.523438 358.535156 270.019531 358.796875 C 269.769531 358.929688 269.503906 359.050781 269.246094 359.160156 C 268.984375 359.269531 268.722656 359.386719 268.457031 359.480469 C 266.320312 360.277344 264.027344 360.652344 261.738281 360.644531 C 259.445312 360.644531 257.171875 360.25 254.976562 359.609375 C 253.878906 359.28125 252.808594 358.875 251.761719 358.390625 C 251.5 358.265625 251.238281 358.140625 250.976562 358 C 250.714844 357.867188 250.445312 357.703125 250.210938 357.546875 C 249.714844 357.234375 249.265625 356.917969 248.800781 356.601562 C 246.972656 355.308594 245.164062 354.007812 243.371094 352.679688 C 241.585938 351.339844 239.796875 350.007812 238.050781 348.617188 C 236.292969 347.246094 234.558594 345.839844 232.847656 344.40625 C 231.152344 342.953125 229.445312 341.5 227.902344 339.882812 " fill-opacity="1" fill-rule="nonzero"/><path fill="#7764a6" d="M 246.667969 340.539062 C 247.410156 340.097656 248.132812 339.765625 248.847656 339.4375 L 250.957031 338.476562 C 251.652344 338.15625 252.34375 337.839844 253.03125 337.503906 C 253.722656 337.15625 254.402344 336.832031 255.101562 336.34375 C 255.027344 336.773438 254.808594 337.164062 254.566406 337.527344 C 254.316406 337.875 254.027344 338.203125 253.707031 338.480469 C 253.070312 339.054688 252.347656 339.507812 251.582031 339.855469 C 250.820312 340.199219 250.011719 340.449219 249.1875 340.574219 C 248.355469 340.695312 247.511719 340.71875 246.667969 340.539062 " fill-opacity="1" fill-rule="nonzero"/><path fill="#7764a6" d="M 248.921875 343.226562 C 249.664062 342.789062 250.386719 342.457031 251.097656 342.125 L 253.207031 341.164062 C 253.902344 340.84375 254.59375 340.527344 255.285156 340.191406 C 255.976562 339.847656 256.65625 339.523438 257.355469 339.03125 C 257.277344 339.464844 257.058594 339.855469 256.820312 340.214844 C 256.566406 340.566406 256.277344 340.890625 255.957031 341.171875 C 255.324219 341.746094 254.601562 342.195312 253.835938 342.542969 C 253.070312 342.890625 252.261719 343.136719 251.4375 343.265625 C 250.609375 343.386719 249.761719 343.40625 248.921875 343.226562 " fill-opacity="1" fill-rule="nonzero"/><path fill="#7764a6" d="M 251.171875 345.921875 C 251.914062 345.476562 252.636719 345.148438 253.351562 344.816406 L 255.457031 343.855469 C 256.15625 343.535156 256.847656 343.21875 257.535156 342.882812 C 258.226562 342.539062 258.90625 342.210938 259.605469 341.722656 C 259.53125 342.152344 259.3125 342.542969 259.070312 342.90625 C 258.820312 343.257812 258.527344 343.582031 258.210938 343.863281 C 257.574219 344.433594 256.851562 344.886719 256.085938 345.234375 C 255.324219 345.582031 254.515625 345.828125 253.6875 345.957031 C 252.859375 346.074219 252.015625 346.097656 251.171875 345.921875 " fill-opacity="1" fill-rule="nonzero"/><path fill="#7764a6" d="M 253.421875 348.609375 C 254.164062 348.167969 254.890625 347.835938 255.601562 347.507812 L 257.710938 346.546875 C 258.40625 346.226562 259.097656 345.910156 259.789062 345.574219 C 260.480469 345.226562 261.15625 344.902344 261.859375 344.414062 C 261.78125 344.84375 261.5625 345.234375 261.324219 345.597656 C 261.070312 345.945312 260.78125 346.273438 260.460938 346.554688 C 259.828125 347.125 259.101562 347.578125 258.339844 347.925781 C 257.574219 348.269531 256.765625 348.519531 255.941406 348.648438 C 255.109375 348.765625 254.265625 348.789062 253.421875 348.609375 " fill-opacity="1" fill-rule="nonzero"/><path fill="#7764a6" d="M 244.417969 337.847656 C 245.160156 337.40625 245.882812 337.078125 246.597656 336.746094 L 248.703125 335.785156 C 249.398438 335.46875 250.09375 335.148438 250.78125 334.808594 C 251.472656 334.46875 252.152344 334.140625 252.851562 333.652344 C 252.777344 334.082031 252.554688 334.472656 252.316406 334.835938 C 252.066406 335.183594 251.773438 335.511719 251.457031 335.792969 C 250.820312 336.363281 250.097656 336.816406 249.332031 337.164062 C 248.566406 337.507812 247.757812 337.757812 246.933594 337.882812 C 246.105469 338.003906 245.261719 338.027344 244.417969 337.847656 " fill-opacity="1" fill-rule="nonzero"/><path fill="#1e1735" d="M 184.296875 239.703125 C 182.175781 239.652344 180.515625 239.613281 178.378906 239.097656 C 175.667969 238.441406 171.75 236.828125 168.671875 239.714844 C 164.8125 243.332031 166.375 249.355469 167.707031 251.886719 C 168.105469 252.640625 168.851562 253.679688 170.285156 254.6875 C 171.890625 255.820312 173.074219 255.8125 175.433594 256.378906 C 178.910156 257.214844 186.769531 261.867188 189.144531 262.988281 C 190.582031 263.667969 194.617188 265.515625 199.914062 265.242188 C 202.058594 265.132812 206.425781 264.90625 210.367188 261.734375 C 211.6875 260.675781 215.160156 257.882812 215.578125 253.214844 C 215.957031 249.039062 213.660156 245.96875 212.933594 244.996094 C 209.851562 240.875 205.292969 239.769531 203.582031 239.355469 C 200.199219 238.535156 196.914062 238.835938 190.347656 239.429688 C 188.953125 239.558594 187.019531 239.769531 184.296875 239.703125 " fill-opacity="1" fill-rule="nonzero"/><path fill="#bc7e55" d="M 184.140625 242.6875 C 182.589844 242.449219 180.335938 241.855469 178.40625 240.90625 C 173.097656 238.289062 169.730469 240.667969 169.371094 241.023438 C 167.027344 243.335938 166.75 247.050781 167.730469 249.789062 C 168.015625 250.585938 169.070312 253.152344 171.546875 254.28125 C 172.816406 254.859375 177.375 255.472656 183.226562 258.472656 C 187.289062 260.558594 189.292969 261.652344 191.378906 262.128906 C 192.523438 262.390625 195.753906 263.015625 199.777344 262.214844 C 202.761719 261.621094 206.238281 260.929688 208.558594 257.851562 C 208.933594 257.351562 211.375 254 210.363281 250.011719 C 209.460938 246.46875 206.417969 244.714844 204.710938 243.734375 C 200.019531 241.035156 194.921875 241.476562 193.015625 241.640625 C 188.644531 242.023438 187.957031 243.273438 184.140625 242.6875 " fill-opacity="1" fill-rule="nonzero"/><path fill="#7764a6" d="M 204.710938 243.734375 C 203.761719 243.117188 202.726562 242.636719 201.65625 242.246094 C 200.582031 241.867188 199.464844 241.601562 198.335938 241.441406 C 197.203125 241.273438 196.058594 241.226562 194.917969 241.242188 C 193.773438 241.273438 192.644531 241.363281 191.507812 241.523438 C 190.375 241.699219 189.261719 242.007812 188.183594 242.277344 C 187.644531 242.414062 187.105469 242.519531 186.558594 242.558594 C 186.011719 242.597656 185.460938 242.589844 184.90625 242.546875 C 183.800781 242.457031 182.695312 242.242188 181.609375 241.96875 C 180.515625 241.703125 179.449219 241.34375 178.40625 240.90625 C 179.390625 241.464844 180.449219 241.882812 181.527344 242.246094 C 182.609375 242.59375 183.71875 242.875 184.859375 243.011719 C 185.429688 243.078125 186.011719 243.109375 186.59375 243.078125 C 187.175781 243.050781 187.75 242.949219 188.308594 242.828125 C 188.871094 242.703125 189.414062 242.554688 189.957031 242.429688 C 190.5 242.296875 191.046875 242.199219 191.597656 242.109375 C 193.800781 241.796875 196.058594 241.671875 198.277344 241.902344 C 200.5 242.128906 202.691406 242.71875 204.710938 243.734375 " fill-opacity="1" fill-rule="nonzero"/><path fill="#7764a6" d="M 167.730469 249.789062 C 168.027344 250.699219 168.464844 251.570312 169.039062 252.347656 C 169.621094 253.121094 170.34375 253.804688 171.210938 254.273438 C 171.417969 254.390625 171.652344 254.496094 171.882812 254.574219 C 172.113281 254.65625 172.347656 254.722656 172.578125 254.792969 L 173.960938 255.183594 C 174.882812 255.445312 175.792969 255.722656 176.695312 256.027344 C 178.5 256.640625 180.273438 257.339844 181.988281 258.164062 C 183.695312 259 185.378906 259.929688 187.101562 260.78125 C 187.964844 261.203125 188.84375 261.605469 189.761719 261.941406 C 190.675781 262.28125 191.644531 262.492188 192.597656 262.636719 C 193.558594 262.78125 194.527344 262.855469 195.496094 262.859375 C 196.464844 262.875 197.4375 262.804688 198.394531 262.671875 C 199.359375 262.535156 200.292969 262.320312 201.230469 262.105469 C 202.167969 261.886719 203.101562 261.636719 204.003906 261.28125 C 205.796875 260.578125 207.46875 259.441406 208.558594 257.851562 C 207.960938 258.597656 207.246094 259.246094 206.457031 259.773438 C 205.664062 260.296875 204.796875 260.699219 203.902344 261.007812 C 203.011719 261.324219 202.082031 261.546875 201.148438 261.738281 C 200.214844 261.925781 199.277344 262.117188 198.335938 262.21875 C 196.457031 262.421875 194.546875 262.402344 192.679688 262.101562 C 191.746094 261.953125 190.832031 261.738281 189.957031 261.40625 C 189.074219 261.078125 188.214844 260.671875 187.363281 260.25 C 185.640625 259.417969 183.960938 258.511719 182.21875 257.675781 C 180.472656 256.867188 178.679688 256.144531 176.835938 255.59375 C 175.917969 255.3125 174.988281 255.058594 174.058594 254.824219 L 172.667969 254.472656 C 172.203125 254.34375 171.753906 254.234375 171.34375 254.015625 C 170.5 253.609375 169.765625 252.980469 169.164062 252.25 C 168.570312 251.511719 168.085938 250.675781 167.730469 249.789062 " fill-opacity="1" fill-rule="nonzero"/><path fill="#fccc44" d="M 226.96875 180.554688 C 226.757812 177.601562 212.964844 172.582031 206.886719 172.582031 C 203.636719 172.582031 203.046875 142.453125 197.132812 126.601562 C 194.121094 118.527344 189.835938 111.753906 182.054688 117.007812 C 174.992188 121.773438 177.28125 135.789062 179.027344 145.363281 C 181.195312 157.21875 185.027344 175.894531 189.464844 181.441406 C 191.824219 184.394531 198.167969 187.582031 209.25 189.125 C 219.878906 190.601562 227.261719 184.691406 226.96875 180.554688 " fill-opacity="1" fill-rule="nonzero"/><path fill="#fccc44" d="M 159.828125 109.722656 C 157.566406 109.929688 152.289062 110.496094 146.585938 113.03125 C 124.234375 122.96875 124.761719 141.503906 124.234375 147.398438 C 123.265625 158.1875 122.5625 168.515625 122.992188 173.894531 C 123.074219 174.945312 123.261719 177.164062 122.992188 180.105469 C 122.597656 184.367188 121.558594 186.695312 120.921875 189.214844 C 119.890625 193.28125 118.007812 206.207031 121.335938 208.671875 C 125.34375 211.640625 128.398438 203.292969 141.617188 201.632812 C 149.410156 200.65625 152.316406 202.636719 167.71875 204.945312 C 180.75 206.898438 183.554688 186.167969 184.25 177.792969 C 184.898438 169.941406 186.960938 162.414062 187.148438 153.605469 C 187.5625 134.148438 192.6875 129.160156 191.285156 126.695312 C 190.519531 125.34375 180.457031 120.355469 175.558594 115.933594 C 174.570312 115.042969 169.089844 108.867188 159.828125 109.722656 " fill-opacity="1" fill-rule="nonzero"/><path fill="#e69601" d="M 186.320312 159.816406 C 186.125 157.753906 186.066406 155.679688 186.160156 153.609375 C 186.175781 152.574219 186.285156 151.542969 186.363281 150.503906 C 186.480469 149.476562 186.605469 148.445312 186.769531 147.417969 C 186.851562 146.90625 186.945312 146.394531 187.050781 145.886719 C 187.152344 145.375 187.246094 144.863281 187.371094 144.359375 C 187.492188 143.855469 187.613281 143.347656 187.753906 142.847656 L 187.957031 142.097656 L 188.191406 141.351562 C 188.792969 139.359375 189.605469 137.457031 190.421875 135.558594 C 190.28125 136.589844 190.027344 137.59375 189.808594 138.601562 C 189.574219 139.601562 189.34375 140.601562 189.128906 141.601562 C 188.917969 142.601562 188.695312 143.597656 188.519531 144.605469 C 188.421875 145.105469 188.328125 145.605469 188.242188 146.109375 C 188.148438 146.609375 188.066406 147.113281 187.992188 147.617188 C 187.652344 149.632812 187.382812 151.65625 187.121094 153.6875 C 186.847656 155.722656 186.636719 157.765625 186.320312 159.816406 " fill-opacity="1" fill-rule="nonzero"/><path fill="#ec7d40" d="M 156.519531 112.207031 C 156.503906 109.0625 158.382812 108.273438 161.070312 101.441406 C 164.738281 92.132812 165.625 83.636719 165.625 78.253906 C 165.625 77.476562 167.519531 78.09375 170.175781 80.324219 C 172.84375 82.5625 177.652344 87.289062 179.28125 95.230469 C 181.40625 105.585938 177.953125 120.15625 170.175781 121.3125 C 164.496094 122.160156 156.542969 117.125 156.519531 112.207031 " fill-opacity="1" fill-rule="nonzero"/><path fill="#f79556" d="M 170.742188 99.371094 C 170.742188 99.371094 169.394531 100.660156 168.289062 99.785156 C 166.414062 98.300781 166.292969 94.742188 166.257812 93.988281 C 166.214844 92.992188 166.175781 90.179688 167.882812 89.019531 C 170.320312 87.363281 170.71875 90.289062 171.132812 90.261719 C 171.558594 90.234375 172 89.378906 171.945312 88.605469 C 171.867188 87.472656 170.757812 86.933594 169.914062 86.125 C 167.914062 84.199219 167.605469 80.925781 167.882812 79.082031 C 168.40625 75.636719 171.527344 73.65625 172.757812 72.875 C 178.699219 69.105469 185.730469 71.484375 187.382812 72.042969 C 189.261719 72.683594 193.714844 74.191406 196.726562 78.667969 C 199.03125 82.105469 200.140625 85.53125 200.394531 88.605469 C 200.652344 91.722656 200.164062 95.804688 198.351562 98.128906 C 198.058594 98.5 196.457031 101.582031 196.320312 102.683594 C 196.320312 102.683594 196.390625 104.914062 195.507812 107.652344 C 193.5625 113.65625 189.90625 117.492188 189.414062 118 C 187.039062 120.457031 185.730469 120.804688 184.945312 120.902344 C 184.546875 120.949219 183.28125 121.050781 181.289062 120.070312 C 179.464844 119.175781 170.929688 113.65625 170.320312 105.996094 C 170.121094 103.5 170.742188 99.371094 170.742188 99.371094 " fill-opacity="1" fill-rule="nonzero"/><path fill="#1e1735" d="M 182.371094 113.660156 C 183.585938 113.410156 185.285156 113.785156 187.148438 113.449219 C 188.953125 113.121094 189.003906 112.515625 189.628906 113.03125 C 189.828125 113.199219 190.253906 114.070312 190.871094 114.6875 C 191.015625 114.832031 191.164062 114.933594 191.273438 115.054688 C 191.390625 115.1875 191.359375 115.378906 191.210938 115.476562 C 190.441406 115.980469 187.769531 116.964844 183.835938 115.101562 C 183.546875 114.96875 182.800781 114.5 182.285156 114.183594 C 182.066406 114.050781 182.121094 113.710938 182.371094 113.660156 Z M 201.214844 79.617188 C 197.878906 74.519531 193.269531 71.488281 192.113281 70.804688 C 184.773438 66.453125 175.957031 65.574219 174.316406 67.90625 C 174.117188 68.183594 173.664062 69.027344 172.660156 69.5625 C 171.503906 70.179688 170.535156 69.902344 169.761719 69.976562 C 167.015625 70.238281 164.273438 75.21875 164.382812 79.914062 C 164.519531 85.863281 168.078125 89.496094 171.414062 91.253906 C 172.589844 91.875 173.09375 93.289062 172.609375 94.527344 C 171.84375 96.472656 170.628906 99.039062 168.523438 102.269531 C 165.175781 107.402344 171.984375 118.246094 173.488281 120.070312 C 174.496094 121.292969 177.101562 123.917969 180.9375 125.457031 C 183.007812 126.28125 184.65625 126.683594 185.90625 125.867188 C 190.355469 122.964844 191.574219 116.308594 191.523438 115.414062 C 191.519531 115.347656 191.535156 115.292969 191.574219 115.238281 C 192.039062 114.621094 192.53125 113.921875 193.007812 113.160156 C 193.058594 113.074219 193.066406 112.96875 193.03125 112.882812 C 192.605469 111.890625 191.9375 111.113281 190.871094 110.550781 C 188.113281 109.089844 184.589844 109.851562 182.367188 111.414062 C 181.140625 112.269531 179.347656 112.082031 178.359375 110.957031 C 175.910156 108.179688 174.273438 104.054688 174.730469 98.128906 C 175.351562 90.054688 179.488281 85.5 182.179688 84.878906 C 182.585938 84.785156 182.699219 85.15625 183.421875 85.707031 C 185.230469 87.09375 186.960938 87.628906 188.804688 88.191406 C 189.425781 88.382812 197.234375 90.148438 200.390625 87.777344 C 202.046875 86.539062 202.605469 88.742188 202.875 88.605469 C 203.28125 88.40625 204.117188 84.054688 201.214844 79.617188 " fill-opacity="1" fill-rule="nonzero"/><path fill="#1e1735" d="M 192.503906 99.863281 C 191.984375 99.945312 191.453125 99.886719 190.941406 99.695312 C 190.429688 99.519531 189.957031 99.164062 189.609375 98.867188 C 189.429688 98.699219 189.292969 98.628906 189.160156 98.5 C 189.09375 98.445312 189.015625 98.398438 188.941406 98.34375 C 188.867188 98.289062 188.804688 98.21875 188.71875 98.179688 C 188.414062 97.957031 188.042969 97.773438 187.640625 97.652344 C 187.234375 97.539062 186.804688 97.453125 186.359375 97.402344 C 185.914062 97.335938 185.457031 97.308594 184.996094 97.277344 L 183.585938 97.183594 C 183.113281 97.148438 182.632812 97.101562 182.167969 96.96875 L 182.195312 96.804688 C 183.113281 96.785156 184.023438 96.59375 184.960938 96.449219 C 185.902344 96.320312 186.875 96.222656 187.898438 96.351562 C 188.410156 96.421875 188.941406 96.511719 189.464844 96.71875 C 189.726562 96.820312 189.976562 96.96875 190.210938 97.136719 C 190.425781 97.316406 190.660156 97.53125 190.796875 97.714844 C 191.089844 98.09375 191.292969 98.394531 191.570312 98.714844 C 191.847656 99.03125 192.1875 99.335938 192.554688 99.707031 L 192.503906 99.863281 " fill-opacity="1" fill-rule="nonzero"/><path fill="#1e1735" d="M 190.042969 101.027344 C 189.429688 100.78125 188.925781 100.773438 188.386719 100.8125 C 187.847656 100.851562 187.261719 100.9375 186.625 100.917969 C 185.988281 100.898438 185.296875 100.757812 184.710938 100.410156 C 184.125 100.066406 183.671875 99.554688 183.421875 98.957031 C 184.039062 99.1875 184.558594 99.394531 185.078125 99.507812 C 185.597656 99.625 186.105469 99.65625 186.664062 99.675781 C 187.21875 99.699219 187.832031 99.691406 188.484375 99.847656 C 188.644531 99.882812 188.808594 99.933594 188.96875 100.003906 C 189.125 100.0625 189.277344 100.160156 189.421875 100.253906 C 189.5625 100.351562 189.679688 100.484375 189.792969 100.601562 C 189.894531 100.734375 189.976562 100.882812 190.042969 101.027344 " fill-opacity="1" fill-rule="nonzero"/><path fill="#ec7d40" d="M 169.824219 184.613281 C 171.191406 183.304688 173.125 183.410156 174.300781 183.578125 C 181.558594 184.621094 183.136719 184.597656 185.390625 183.757812 C 186.550781 183.324219 190.207031 181.726562 192.214844 181.875 C 196.554688 182.195312 213.410156 189.789062 213.578125 191.84375 C 213.578125 191.84375 213.703125 193.480469 213.019531 193.769531 C 212.757812 193.878906 212.757812 193.871094 212.742188 193.886719 C 212.347656 194.1875 213.148438 194.847656 212.542969 195.5625 C 212.292969 195.855469 211.902344 195.929688 211.25 195.996094 C 209.917969 196.128906 208.867188 195.757812 207.921875 195.925781 C 207.234375 196.046875 207.140625 196.328125 206.328125 196.714844 C 206.328125 196.714844 205.503906 197.367188 203.714844 197.253906 C 203.207031 197.21875 202.632812 197.28125 198.914062 195.308594 C 195.101562 193.28125 188.707031 192.128906 188.730469 192.457031 C 188.757812 192.789062 195.867188 194.550781 197.621094 195.742188 C 197.796875 195.859375 198.089844 196.277344 198.027344 196.707031 C 197.9375 197.328125 197.414062 197.378906 196.761719 197.488281 C 194.878906 197.796875 190.363281 196.546875 185.667969 195.6875 C 184.179688 195.414062 181.628906 194.945312 178.332031 195.269531 C 175.265625 195.570312 174.363281 195.511719 172.394531 195.738281 C 167.625 196.277344 163.527344 190.625 169.824219 184.613281 " fill-opacity="1" fill-rule="nonzero"/><path fill="#d66730" d="M 207.582031 195.773438 C 207.71875 195.761719 207.855469 195.6875 207.941406 195.5625 C 208.089844 195.34375 208.03125 195.042969 207.8125 194.890625 C 206.101562 193.730469 205.074219 193.132812 203.230469 192.226562 C 200.257812 190.761719 195.972656 189.316406 192.902344 188.359375 C 192.648438 188.28125 192.378906 188.421875 192.296875 188.675781 C 192.21875 188.929688 192.363281 189.203125 192.617188 189.28125 C 195.652344 190.226562 199.886719 191.65625 202.808594 193.09375 C 204.601562 193.976562 205.601562 194.558594 207.269531 195.691406 C 207.363281 195.757812 207.472656 195.78125 207.582031 195.773438 " fill-opacity="1" fill-rule="nonzero"/><path fill="#d66730" d="M 211.128906 194.386719 C 211.257812 194.378906 211.378906 194.316406 211.46875 194.207031 C 211.636719 194 211.601562 193.695312 211.394531 193.527344 C 209.777344 192.234375 208.800781 191.554688 207.039062 190.507812 C 204.1875 188.8125 200.03125 187.03125 197.046875 185.835938 C 196.800781 185.738281 196.519531 185.855469 196.417969 186.101562 C 196.320312 186.351562 196.441406 186.632812 196.6875 186.730469 C 199.640625 187.914062 203.746094 189.675781 206.542969 191.339844 C 208.261719 192.359375 209.214844 193.019531 210.789062 194.28125 C 210.886719 194.363281 211.011719 194.398438 211.128906 194.386719 " fill-opacity="1" fill-rule="nonzero"/><path fill="#fccc44" d="M 176.914062 181.933594 C 169.675781 181.441406 165.019531 179.113281 157.292969 176.3125 C 156.164062 175.902344 153.488281 175.144531 150.855469 174.820312 C 150.742188 174.390625 150.710938 173.667969 150.824219 172.453125 C 151.058594 169.910156 151.753906 164.53125 151.636719 159.234375 C 151.613281 157.1875 152.628906 148.109375 153.425781 144.800781 C 153.722656 143.574219 154.027344 137.722656 152.675781 132.371094 C 152.230469 130.613281 150.535156 123.863281 144.28125 122.847656 C 135.691406 121.449219 131.914062 127.496094 130.566406 129.671875 C 127.601562 134.453125 126.921875 139.046875 126.324219 145.703125 C 126.324219 145.703125 124.378906 159.378906 129.707031 181.660156 C 131.277344 188.226562 134.160156 192.863281 135.597656 193.796875 C 135.640625 193.828125 135.683594 193.851562 135.726562 193.878906 C 135.738281 193.851562 135.75 193.824219 135.757812 193.796875 C 139.117188 196.136719 149.320312 194.675781 164.617188 195.839844 C 170.589844 196.296875 175.675781 197.796875 175.226562 195.351562 C 173.8125 187.644531 176.765625 182.625 178.78125 183.238281 C 179.113281 183.339844 178.96875 183.507812 179.125 183.507812 C 179.421875 183.507812 179.417969 183.433594 179.421875 183.214844 C 179.441406 182.410156 178.765625 182.058594 176.914062 181.933594 " fill-opacity="1" fill-rule="nonzero"/><path fill="#e69601" d="M 177.210938 181.933594 C 176.078125 181.917969 174.941406 181.882812 173.8125 181.746094 C 173.242188 181.695312 172.683594 181.601562 172.117188 181.527344 C 171.558594 181.417969 170.992188 181.332031 170.4375 181.203125 C 168.199219 180.742188 166.023438 180.039062 163.871094 179.324219 C 161.726562 178.585938 159.605469 177.820312 157.472656 177.101562 C 156.453125 176.746094 155.375 176.472656 154.296875 176.234375 C 153.214844 176 152.128906 175.8125 151.042969 175.691406 L 150.441406 175.625 L 150.300781 175.039062 C 150.152344 174.433594 150.164062 173.957031 150.167969 173.46875 C 150.175781 172.992188 150.214844 172.519531 150.257812 172.074219 L 150.515625 169.414062 C 150.679688 167.648438 150.828125 165.894531 150.929688 164.132812 C 150.976562 163.253906 151.019531 162.378906 151.039062 161.5 C 151.050781 161.058594 151.050781 160.625 151.058594 160.1875 L 151.054688 159.527344 L 151.054688 159.1875 L 151.0625 158.824219 C 151.105469 157.882812 151.199219 157.003906 151.292969 156.105469 C 151.386719 155.214844 151.496094 154.328125 151.605469 153.4375 C 151.824219 151.664062 152.109375 149.898438 152.417969 148.132812 C 152.582031 147.25 152.734375 146.367188 152.949219 145.484375 C 152.996094 145.261719 153.058594 145.039062 153.113281 144.820312 L 153.15625 144.65625 L 153.1875 144.515625 C 153.214844 144.429688 153.230469 144.320312 153.246094 144.21875 C 153.316406 143.808594 153.367188 143.371094 153.40625 142.9375 C 153.554688 141.195312 153.59375 139.421875 153.519531 137.660156 C 153.460938 135.890625 153.273438 134.125 152.96875 132.371094 C 153.515625 134.066406 153.886719 135.828125 154.125 137.609375 C 154.351562 139.390625 154.488281 141.183594 154.441406 142.996094 C 154.433594 143.453125 154.414062 143.902344 154.367188 144.371094 C 154.351562 144.492188 154.34375 144.605469 154.320312 144.734375 L 154.261719 145.085938 C 154.222656 145.296875 154.179688 145.507812 154.144531 145.726562 C 154 146.585938 153.878906 147.460938 153.765625 148.339844 C 153.539062 150.089844 153.371094 151.855469 153.191406 153.617188 C 153.109375 154.5 153.027344 155.378906 152.960938 156.261719 C 152.894531 157.132812 152.828125 158.03125 152.816406 158.871094 L 152.8125 159.167969 L 152.820312 159.5 L 152.832031 160.175781 C 152.835938 160.628906 152.839844 161.078125 152.832031 161.53125 C 152.828125 162.433594 152.792969 163.332031 152.75 164.230469 C 152.703125 165.128906 152.644531 166.027344 152.574219 166.921875 C 152.5 167.8125 152.410156 168.707031 152.320312 169.59375 L 152.035156 172.246094 C 151.988281 172.6875 151.949219 173.101562 151.9375 173.515625 C 151.925781 173.917969 151.9375 174.335938 152.003906 174.59375 L 151.261719 173.945312 C 152.417969 174.105469 153.554688 174.339844 154.675781 174.617188 C 155.792969 174.902344 156.902344 175.214844 158.007812 175.632812 C 160.121094 176.453125 162.214844 177.328125 164.300781 178.171875 C 166.382812 179.03125 168.472656 179.839844 170.617188 180.496094 C 172.761719 181.15625 174.964844 181.617188 177.210938 181.933594 " fill-opacity="1" fill-rule="nonzero"/><path fill="#e69601" d="M 126.617188 145.703125 C 126.574219 147.796875 126.625 149.878906 126.730469 151.957031 C 126.808594 154.035156 126.980469 156.105469 127.15625 158.171875 C 127.363281 160.234375 127.550781 162.300781 127.835938 164.355469 C 128.085938 166.414062 128.382812 168.464844 128.71875 170.511719 L 129.226562 173.578125 L 129.789062 176.640625 L 129.921875 177.410156 L 130.078125 178.171875 L 130.386719 179.695312 C 130.597656 180.714844 130.792969 181.738281 131.019531 182.730469 C 131.265625 183.726562 131.535156 184.71875 131.847656 185.695312 C 132.15625 186.675781 132.492188 187.648438 132.890625 188.597656 C 133.273438 189.554688 133.707031 190.492188 134.199219 191.398438 C 134.320312 191.625 134.445312 191.851562 134.582031 192.070312 C 134.710938 192.296875 134.855469 192.503906 135 192.722656 C 135.296875 193.140625 135.609375 193.558594 136.027344 193.871094 L 136.015625 193.875 L 136.054688 193.796875 L 136.03125 193.878906 L 136.03125 193.890625 L 136.019531 193.886719 C 135.539062 193.65625 135.148438 193.28125 134.773438 192.90625 C 134.597656 192.707031 134.414062 192.515625 134.25 192.308594 C 134.078125 192.101562 133.917969 191.890625 133.761719 191.679688 C 133.128906 190.828125 132.582031 189.914062 132.070312 188.988281 C 131.5625 188.054688 131.125 187.089844 130.710938 186.109375 C 130.292969 185.132812 129.960938 184.121094 129.632812 183.113281 C 129.484375 182.601562 129.328125 182.089844 129.195312 181.582031 L 128.816406 180.054688 L 128.441406 178.523438 L 128.25 177.761719 L 128.082031 176.988281 L 127.441406 173.90625 L 126.90625 170.800781 C 126.601562 168.722656 126.308594 166.640625 126.113281 164.546875 C 126 163.5 125.945312 162.449219 125.867188 161.402344 C 125.777344 160.355469 125.769531 159.300781 125.730469 158.253906 C 125.707031 157.726562 125.714844 157.199219 125.707031 156.675781 C 125.707031 156.148438 125.695312 155.625 125.710938 155.097656 C 125.742188 154.046875 125.765625 153 125.835938 151.949219 C 125.980469 149.851562 126.171875 147.753906 126.617188 145.703125 " fill-opacity="1" fill-rule="nonzero"/><path fill="#bc7e55" d="M 337.113281 343.082031 L 334.667969 343.082031 C 334.121094 343.082031 333.640625 342.722656 333.496094 342.207031 L 299.675781 201.261719 C 299.324219 200.015625 300.277344 198.785156 301.597656 198.785156 L 306.6875 198.785156 C 307.601562 198.785156 308.398438 199.398438 308.621094 200.269531 L 338.292969 341.605469 C 338.480469 342.355469 337.902344 343.082031 337.113281 343.082031 " fill-opacity="1" fill-rule="nonzero"/><path fill="#bc7e55" d="M 65.890625 343.082031 L 68.339844 343.082031 C 68.882812 343.082031 69.363281 342.722656 69.507812 342.207031 L 103.328125 201.261719 C 103.679688 200.015625 102.726562 198.785156 101.410156 198.785156 L 96.320312 198.785156 C 95.402344 198.785156 94.605469 199.398438 94.386719 200.269531 L 64.710938 341.605469 C 64.523438 342.355469 65.101562 343.082031 65.890625 343.082031 " fill-opacity="1" fill-rule="nonzero"/><g clip-path="url(#6cb9883159)"><path fill="#bc7e55" d="M 357.46875 208.636719 L 45.535156 208.636719 C 42.796875 208.636719 40.574219 206.417969 40.574219 203.675781 C 40.574219 200.933594 42.796875 198.710938 45.535156 198.710938 L 357.46875 198.710938 C 360.207031 198.710938 362.433594 200.933594 362.433594 203.675781 C 362.433594 206.417969 360.207031 208.636719 357.46875 208.636719 " fill-opacity="1" fill-rule="nonzero"/></g><path fill="#282444" d="M 167.511719 199.292969 L 245.503906 199.292969 L 245.503906 195.617188 L 169.261719 195.617188 C 168.726562 195.617188 166.867188 198.082031 166.867188 198.082031 C 166.457031 198.558594 166.808594 199.28125 167.496094 199.292969 C 167.5 199.292969 167.507812 199.292969 167.511719 199.292969 " fill-opacity="1" fill-rule="nonzero"/><path fill="#ffffff" d="M 213.535156 198.867188 L 275.316406 198.867188 C 277.925781 198.867188 280.214844 197.132812 280.921875 194.625 L 295.511719 142.75 C 295.996094 141.027344 294.699219 139.316406 292.90625 139.316406 L 230.425781 139.316406 C 227.792969 139.316406 225.484375 141.066406 224.773438 143.597656 L 210.398438 194.722656 C 209.8125 196.804688 211.375 198.867188 213.535156 198.867188 " fill-opacity="1" fill-rule="nonzero"/><path fill="#282444" d="M 213.554688 199.292969 L 275.542969 199.292969 C 278.121094 199.292969 280.386719 197.578125 281.082031 195.09375 L 295.582031 143.539062 C 295.925781 142.324219 295.007812 141.117188 293.746094 141.117188 L 231.753906 141.117188 C 229.175781 141.117188 226.914062 142.828125 226.214844 145.3125 L 211.71875 196.867188 C 211.375 198.082031 212.289062 199.292969 213.554688 199.292969 " fill-opacity="1" fill-rule="nonzero"/><path fill="#7764a6" d="M 139 57.195312 L 119.613281 57.195312 C 118.757812 57.195312 118.066406 57.886719 118.066406 58.742188 L 118.066406 70.269531 C 118.066406 71.125 118.757812 71.816406 119.613281 71.816406 L 125.21875 71.816406 L 131.324219 76.023438 L 131.308594 71.816406 L 139 71.816406 C 139.855469 71.816406 140.546875 71.125 140.546875 70.269531 L 140.546875 58.742188 C 140.546875 57.886719 139.855469 57.195312 139 57.195312 " fill-opacity="1" fill-rule="nonzero"/><path fill="#ffffff" d="M 127.789062 61.722656 L 124.542969 61.722656 C 123.167969 61.722656 122.050781 62.839844 122.050781 64.21875 C 122.050781 65.0625 122.472656 65.808594 123.117188 66.261719 L 123.117188 68.117188 L 124.523438 66.710938 C 124.527344 66.710938 124.535156 66.714844 124.542969 66.714844 L 127.789062 66.714844 C 129.167969 66.714844 130.28125 65.59375 130.28125 64.21875 C 130.28125 62.839844 129.167969 61.722656 127.789062 61.722656 " fill-opacity="1" fill-rule="nonzero"/><path fill="#ffffff" d="M 135.054688 66.730469 C 134.800781 66.730469 134.59375 66.523438 134.59375 66.269531 L 134.59375 63.085938 L 133.785156 63.671875 C 133.578125 63.820312 133.289062 63.773438 133.140625 63.5625 C 132.992188 63.355469 133.039062 63.066406 133.246094 62.917969 L 134.785156 61.8125 C 134.925781 61.710938 135.113281 61.695312 135.265625 61.773438 C 135.421875 61.855469 135.515625 62.011719 135.515625 62.183594 L 135.515625 66.269531 C 135.515625 66.523438 135.308594 66.730469 135.054688 66.730469 " fill-opacity="1" fill-rule="nonzero"/><path fill="#ae9ae3" d="M 103.410156 76.855469 L 87.773438 76.855469 C 87.011719 76.855469 86.394531 77.472656 86.394531 78.234375 L 86.394531 88.515625 C 86.394531 89.277344 87.011719 89.894531 87.773438 89.894531 L 92.773438 89.894531 L 95.570312 93.792969 L 98.203125 89.894531 L 103.410156 89.894531 C 104.171875 89.894531 104.789062 89.277344 104.789062 88.515625 L 104.789062 78.234375 C 104.789062 77.472656 104.171875 76.855469 103.410156 76.855469 " fill-opacity="1" fill-rule="nonzero"/><path fill="#332a51" d="M 92.714844 80.769531 C 90.664062 80.769531 89.003906 81.902344 89.003906 83.296875 C 89.003906 84.140625 89.613281 84.886719 90.550781 85.347656 L 90.550781 86.957031 L 91.769531 85.738281 C 92.074219 85.792969 92.390625 85.820312 92.714844 85.820312 C 94.765625 85.820312 96.429688 84.691406 96.429688 83.296875 C 96.429688 81.902344 94.765625 80.769531 92.714844 80.769531 " fill-opacity="1" fill-rule="nonzero"/><path fill="#ffffff" d="M 98.464844 79.777344 C 100.515625 79.777344 102.179688 80.90625 102.179688 82.300781 C 102.179688 83.144531 101.566406 83.894531 100.632812 84.351562 L 100.632812 85.96875 L 99.410156 84.746094 C 99.109375 84.800781 98.792969 84.828125 98.464844 84.828125 C 96.414062 84.828125 94.753906 83.695312 94.753906 82.300781 C 94.753906 80.90625 96.414062 79.777344 98.464844 79.777344 " fill-opacity="1" fill-rule="nonzero"/><path fill="#ae9ae3" d="M 94.753906 82.296875 C 94.753906 80.902344 96.414062 79.769531 98.46875 79.769531 C 99.367188 79.769531 100.191406 79.988281 100.835938 80.351562 C 100.164062 79.886719 99.226562 79.597656 98.191406 79.597656 C 96.140625 79.597656 94.480469 80.730469 94.480469 82.125 C 94.480469 82.90625 95.003906 83.605469 95.824219 84.070312 C 95.160156 83.613281 94.753906 82.988281 94.753906 82.296875 " fill-opacity="1" fill-rule="nonzero"/><path fill="#ffffff" d="M 130.070312 94.796875 L 111.785156 94.796875 C 110.628906 94.796875 109.6875 95.738281 109.6875 96.894531 L 109.6875 108.636719 C 109.6875 109.796875 110.628906 110.734375 111.785156 110.734375 L 113.46875 110.734375 C 113.601562 110.734375 113.726562 110.800781 113.800781 110.90625 L 113.796875 115.019531 C 113.964844 115.253906 114.3125 115.246094 114.472656 115.011719 L 120.195312 110.917969 C 120.273438 110.804688 120.398438 110.734375 120.539062 110.734375 L 130.070312 110.734375 C 131.230469 110.734375 132.167969 109.796875 132.167969 108.636719 L 132.167969 96.894531 C 132.167969 95.738281 131.230469 94.796875 130.070312 94.796875 " fill-opacity="1" fill-rule="nonzero"/><path fill="#e30613" d="M 126.378906 105.339844 C 126.085938 105.339844 125.847656 105.105469 125.847656 104.8125 L 125.847656 101.175781 L 124.921875 101.839844 C 124.6875 102.007812 124.355469 101.957031 124.1875 101.71875 C 124.015625 101.484375 124.070312 101.152344 124.308594 100.980469 L 126.070312 99.710938 C 126.230469 99.597656 126.441406 99.582031 126.617188 99.671875 C 126.796875 99.761719 126.90625 99.945312 126.90625 100.144531 L 126.90625 104.8125 C 126.90625 105.105469 126.667969 105.339844 126.378906 105.339844 " fill-opacity="1" fill-rule="nonzero"/><path fill="#e30613" d="M 122.085938 101.125 C 122.085938 100.082031 121.253906 99.050781 120.230469 99.050781 L 120.046875 99.050781 C 119.292969 99.050781 118.527344 99.507812 118.183594 100.15625 C 118.144531 100.226562 118.046875 100.226562 118.007812 100.15625 C 117.664062 99.507812 116.898438 99.050781 116.144531 99.050781 L 115.960938 99.050781 C 114.9375 99.050781 114.105469 100.082031 114.105469 101.125 C 114.105469 103.929688 117.167969 105.625 117.992188 106.03125 L 118.199219 106.03125 C 119.023438 105.625 122.085938 103.929688 122.085938 101.125 " fill-opacity="1" fill-rule="nonzero"/><path fill="#fccc44" d="M 321.289062 132.808594 L 301.972656 132.808594 C 301.050781 132.808594 300.304688 132.0625 300.304688 131.136719 L 300.304688 119.589844 C 300.304688 118.667969 301.050781 117.921875 301.972656 117.921875 L 321.289062 117.921875 C 322.210938 117.921875 322.957031 118.667969 322.957031 119.589844 L 322.957031 131.136719 C 322.957031 132.0625 322.210938 132.808594 321.289062 132.808594 " fill-opacity="1" fill-rule="nonzero"/><path fill="#ffffff" d="M 316.222656 125.296875 L 321.742188 119.777344 C 321.933594 119.585938 321.933594 119.277344 321.742188 119.085938 C 321.550781 118.898438 321.242188 118.898438 321.054688 119.085938 L 315.273438 124.871094 C 315.238281 124.890625 315.207031 124.914062 315.175781 124.941406 C 315.148438 124.972656 315.125 125.003906 315.105469 125.039062 L 312.699219 127.445312 C 312.109375 128.035156 311.152344 128.03125 310.5625 127.445312 L 302.207031 119.085938 C 302.015625 118.898438 301.710938 118.898438 301.519531 119.085938 C 301.328125 119.277344 301.328125 119.585938 301.519531 119.777344 L 307.039062 125.296875 L 301.519531 130.820312 C 301.328125 131.011719 301.328125 131.320312 301.519531 131.511719 C 301.613281 131.605469 301.738281 131.652344 301.863281 131.652344 C 301.988281 131.652344 302.109375 131.605469 302.207031 131.511719 L 307.730469 125.988281 L 309.871094 128.132812 C 310.359375 128.617188 310.992188 128.859375 311.628906 128.859375 C 312.265625 128.859375 312.902344 128.617188 313.390625 128.132812 L 315.535156 125.988281 L 321.054688 131.511719 C 321.148438 131.605469 321.273438 131.652344 321.398438 131.652344 C 321.523438 131.652344 321.648438 131.605469 321.742188 131.511719 C 321.933594 131.320312 321.933594 131.011719 321.742188 130.820312 L 316.222656 125.296875 " fill-opacity="1" fill-rule="nonzero"/></svg>