<svg xmlns="http://www.w3.org/2000/svg" xmlns:xlink="http://www.w3.org/1999/xlink" width="1080" zoomAndPan="magnify" viewBox="0 0 810 809.999993" height="1080" preserveAspectRatio="xMidYMid meet" version="1.0"><path fill="#000000" d="M 93.9375 677.339844 C 95.097656 680.574219 96.226562 683.785156 97.359375 687.019531 C 98.488281 690.308594 99.382812 693.304688 100.410156 696.539062 C 102.277344 702.539062 104.089844 708.535156 105.90625 714.425781 C 105.90625 715.058594 105.90625 715.660156 105.960938 716.292969 C 106.355469 723.710938 107.667969 731.128906 109.984375 738.253906 C 110.957031 741.726562 112.640625 745.460938 114.21875 749.039062 C 115.007812 750.667969 115.742188 751.90625 116.558594 753.40625 C 117.242188 754.691406 118.242188 756.457031 119.503906 758.085938 L 122.898438 762.847656 C 124.132812 764.320312 125.5 765.503906 126.738281 766.871094 C 129.289062 769.578125 131.996094 771.683594 134.785156 773.734375 C 137.441406 775.917969 140.28125 777.628906 143.042969 779.335938 C 145.78125 781.152344 148.542969 782.679688 151.382812 784.019531 C 162.429688 789.804688 173.34375 793.828125 183.652344 797.039062 C 193.910156 800.328125 203.695312 802.484375 212.636719 804.246094 C 230.601562 807.585938 245.382812 808.375 255.691406 807.820312 C 260.269531 807.53125 263.742188 806.953125 266.292969 806.347656 C 282.46875 806.453125 297.039062 805.953125 309.953125 805.269531 C 310.792969 805.324219 311.636719 805.429688 312.558594 805.480469 C 319.238281 806.164062 325.785156 806.402344 332.546875 806.902344 C 378.625 809.691406 421.050781 805.824219 453.902344 800.222656 C 497.613281 799.589844 550.402344 798.589844 607.871094 784.546875 C 614.945312 782.492188 622.152344 780.46875 629.460938 778.417969 C 633.011719 777.179688 636.644531 775.917969 640.273438 774.628906 L 645.71875 772.710938 L 647.058594 772.238281 L 647.742188 772.027344 L 648.136719 771.921875 L 648.320312 771.84375 C 648.375 771.789062 648.425781 771.789062 648.425781 771.789062 C 648.53125 771.683594 648.769531 771.578125 649.214844 771.394531 L 651.765625 770.160156 C 655.160156 768.394531 658.445312 767.027344 662.023438 764.898438 C 665.707031 762.398438 669.492188 759.847656 673.070312 757.113281 C 676.175781 754.140625 679.410156 751.117188 682.40625 747.960938 C 684.957031 744.382812 687.800781 740.9375 690.167969 737.253906 C 699.398438 722.078125 703.476562 704.511719 704.660156 687.414062 C 705.789062 670.132812 704.316406 653.039062 701.660156 636.101562 C 699.003906 619.292969 695.03125 602.800781 691.296875 587.179688 C 687.5625 571.425781 683.695312 555.75 679.699219 540.519531 C 671.648438 509.878906 662.523438 480.527344 651.425781 453.359375 C 640.5625 426.058594 627.359375 401.148438 612.578125 379.398438 C 605.265625 368.457031 597.296875 358.488281 589.300781 349.335938 L 587.828125 347.574219 L 587.089844 346.730469 L 586.878906 346.496094 L 586.40625 345.996094 L 586.011719 345.601562 L 582.910156 342.523438 C 580.804688 340.5 578.699219 338.445312 576.675781 336.472656 C 574.625 334.421875 572.597656 332.503906 570.625 330.53125 C 568.417969 328.664062 566.207031 326.847656 564.050781 324.980469 C 553.398438 315.75 542.929688 308.09375 532.960938 301.414062 C 528.703125 296.941406 520.390625 290.15625 509.003906 281.925781 C 499.875 275.375 488.777344 267.960938 475.992188 260.304688 C 472.417969 258.148438 468.734375 256.042969 464.894531 253.964844 C 479.042969 237.1875 491.667969 221.511719 503.6875 207.648438 C 511.105469 199.757812 517.945312 191.710938 524.808594 185.160156 C 531.832031 178.535156 539.066406 172.195312 545.691406 165.621094 C 552.375 158.941406 558.265625 151.734375 562.734375 143.921875 C 566.65625 135.769531 569.996094 127.957031 569.941406 118.777344 C 569.996094 114.304688 568.734375 109.886719 567.15625 106.046875 C 565.339844 102.363281 563.261719 99.128906 560.921875 96.472656 C 556.398438 91.132812 551.875 87.347656 547.902344 83.847656 C 540.878906 77.851562 536.066406 72.511719 532.226562 67.199219 C 532.226562 66.964844 532.226562 66.804688 532.226562 66.570312 C 531.699219 63.097656 531.253906 59.492188 529.621094 55.96875 C 526.730469 49 521.074219 42.554688 514.367188 38.769531 L 511.949219 37.113281 L 511.605469 36.902344 L 511.554688 36.902344 L 511.210938 36.71875 L 511.027344 36.613281 L 510.476562 36.324219 L 509.292969 35.769531 C 507.6875 34.953125 506.109375 34.164062 504.53125 33.324219 C 501.296875 31.746094 497.613281 30.273438 494.0625 28.695312 C 481.464844 23.59375 467.65625 19.382812 452.769531 16.28125 C 452.480469 16.121094 452.191406 15.992188 451.875 15.832031 C 447.378906 13.886719 441.777344 11.179688 434.253906 8.625 C 426.835938 5.96875 417.472656 3.207031 406.164062 1.550781 C 403.324219 1.210938 400.378906 0.816406 397.273438 0.421875 C 394.222656 0.316406 390.988281 0.183594 387.699219 0.078125 C 384.359375 -0.132812 380.886719 0.132812 377.335938 0.367188 C 373.761719 0.527344 370.078125 0.710938 366.34375 1.316406 C 351.296875 3.15625 334.675781 7.496094 317.027344 13.964844 C 308.296875 17.175781 299.195312 20.59375 289.492188 24.199219 C 279.757812 28.011719 269.289062 32.296875 258.796875 38.6875 C 256.273438 40.398438 253.640625 42.160156 251.039062 43.921875 C 248.566406 45.949219 246.121094 48.15625 243.621094 50.316406 C 238.992188 55.179688 234.285156 59.941406 230.707031 67.648438 C 230.050781 69.671875 229.46875 71.777344 228.917969 73.878906 C 228.339844 75.957031 228.550781 78.300781 228.445312 80.5625 C 228.679688 84.925781 229.863281 89.160156 231.390625 92.6875 C 233.152344 96.921875 235.203125 100.550781 237.175781 104.046875 C 236.597656 104.441406 236.097656 104.890625 235.46875 105.417969 C 234.835938 105.914062 233.890625 106.890625 233.101562 107.808594 C 232.179688 108.992188 231.285156 110.230469 230.601562 112.148438 C 229.179688 116.015625 229.96875 119.75 230.757812 121.90625 C 232.363281 126.035156 233.996094 128.167969 235.519531 130.457031 L 235.597656 130.558594 C 238.859375 135.898438 242.726562 139.160156 246.277344 142.210938 C 250.089844 145.238281 253.71875 147.839844 256.929688 150.3125 C 258.535156 151.628906 260.113281 152.8125 261.402344 154.074219 C 262.769531 155.308594 263.847656 156.28125 265.265625 158.097656 C 268.082031 161.253906 270.816406 164.488281 273.527344 167.59375 C 278.917969 173.828125 284.175781 179.953125 289.332031 185.820312 C 294.488281 191.949219 299.25 197.65625 303.535156 203.496094 C 312.265625 215.066406 318.84375 226.664062 322.683594 238.394531 C 323.867188 241.289062 324.390625 244.289062 325.234375 247.15625 L 325.785156 249.3125 L 326.363281 251.308594 L 326.757812 252.363281 C 326.890625 252.941406 327.890625 254.464844 328.863281 255.597656 C 327.601562 256.464844 326.363281 257.253906 325.128906 258.042969 C 313.6875 266.644531 303.535156 275.035156 295.777344 282.503906 C 280.730469 293.15625 263.847656 307.359375 246.460938 325.585938 C 219.054688 353.808594 191.019531 391.523438 164.296875 435.683594 C 150.855469 457.777344 137.890625 481.554688 125.105469 506.488281 C 118.769531 518.925781 112.402344 531.683594 106.25 544.859375 C 100.066406 558.117188 94.070312 571.949219 89.757812 586.941406 C 85.574219 601.960938 83.261719 617.875 84.261719 633.339844 C 85.285156 648.855469 88.96875 663.691406 93.9375 677.339844 " fill-opacity="1" fill-rule="nonzero"/><path fill="#ffffff" d="M 378.179688 500.804688 C 378.230469 498.28125 377.96875 496.28125 377.546875 494.125 C 377.285156 492.992188 377.046875 491.808594 376.757812 490.496094 C 375.8125 485.707031 376.417969 480.078125 376.257812 475.160156 C 375.863281 465.246094 375.46875 455.410156 375.363281 445.441406 C 375.363281 444.757812 375.179688 444.125 374.96875 443.574219 C 375.574219 440.679688 373.550781 437.15625 370.027344 438.523438 C 356.480469 443.730469 349.0625 457.144531 350.378906 471.375 C 351.007812 478.210938 353.5625 484.894531 357.691406 490.390625 C 359.847656 493.179688 362.320312 496.046875 365.554688 497.464844 C 368.789062 498.886719 374.601562 502.277344 378.179688 500.804688 Z M 425.96875 642.675781 C 426.207031 642.097656 426.363281 641.542969 426.308594 640.808594 C 426.046875 623.1875 423.652344 605.589844 423.363281 587.914062 C 423.3125 583.601562 423.3125 579.261719 423.652344 574.949219 C 423.707031 573.765625 423.996094 572.636719 424.234375 571.503906 C 424.523438 569.847656 424.628906 568.214844 423.890625 566.507812 C 421.628906 561.457031 415.289062 560.90625 410.738281 559.089844 C 403.953125 556.300781 396.933594 553.777344 389.566406 553.09375 C 383.097656 552.410156 384.597656 561.984375 384.597656 565.769531 C 384.597656 570.476562 384.597656 575.105469 384.597656 579.816406 C 384.597656 589.152344 384.597656 598.515625 384.597656 607.90625 C 384.597656 615.425781 385.042969 623.082031 384.597656 630.601562 C 384.308594 635.101562 383.78125 640.464844 388.777344 642.675781 C 393.984375 644.9375 399.984375 645.226562 405.53125 645.675781 C 411.082031 646.070312 416.578125 646.464844 422.074219 647.199219 C 425.179688 647.59375 426.441406 645.042969 425.96875 642.675781 Z M 429.308594 446.046875 C 429.441406 443.785156 430.730469 439.207031 429.835938 437.105469 C 428.863281 434.789062 428.257812 435.683594 426.152344 435.050781 C 425.707031 434.894531 425.3125 434.789062 424.835938 434.65625 C 420.550781 433.261719 416.289062 431.160156 411.765625 430.527344 C 406.269531 429.792969 400.71875 429.871094 395.167969 429.921875 C 394.144531 429.921875 393.355469 430.265625 392.722656 430.765625 C 390.460938 431.160156 388.382812 433.078125 388.988281 435.972656 C 391.722656 448.730469 391.933594 461.800781 391.671875 474.820312 C 391.539062 481.34375 391.382812 487.839844 391.09375 494.363281 C 390.804688 500.699219 388.777344 504.828125 395.75 507.382812 C 399.140625 508.617188 402.769531 509.644531 406.269531 510.378906 C 410.976562 511.300781 415.84375 511.5625 420.550781 512.429688 C 432.78125 514.746094 428.757812 490.574219 428.992188 483.710938 C 429.308594 471.191406 428.652344 458.617188 429.308594 446.046875 Z M 442.644531 644.492188 C 457.871094 635.101562 467.050781 622.34375 465.789062 603.671875 C 464.710938 588.757812 457.1875 571.371094 439.804688 572.898438 C 439.566406 572.898438 439.460938 573.03125 439.222656 573.03125 C 437.09375 572.949219 434.859375 574.316406 434.859375 577.105469 C 434.699219 598.777344 433.015625 620.425781 436.410156 641.9375 C 436.855469 644.648438 440.488281 645.859375 442.644531 644.492188 Z M 505.265625 595.042969 C 505.765625 599.015625 506.054688 603.039062 506.054688 607.0625 C 506.003906 625.683594 499.191406 643.753906 485.566406 656.667969 C 478.941406 662.953125 470.945312 667.765625 462.449219 671.105469 C 457.976562 672.921875 453.164062 674.554688 448.351562 675.34375 C 444.90625 675.921875 441.777344 676.816406 438.621094 677.734375 C 436.804688 678.289062 434.9375 678.867188 432.886719 679.417969 C 433.464844 687.363281 434.753906 695.121094 434.859375 703.039062 C 434.859375 707.351562 434.304688 711.664062 434.648438 715.898438 C 434.9375 719.34375 435.726562 722.816406 431.359375 723.839844 C 424.179688 725.472656 426.441406 715.609375 426.730469 711.03125 C 427.125 703.957031 428.019531 696.933594 428.179688 689.859375 C 428.363281 681.128906 423.207031 679.761719 415.683594 680.234375 C 406.503906 680.839844 397.429688 679.261719 388.382812 678.339844 C 385.992188 678.128906 384.175781 680.445312 384.121094 682.601562 C 383.78125 691.148438 384.648438 699.695312 384.910156 708.246094 C 385.042969 712.503906 384.464844 716.820312 384.597656 720.949219 C 384.703125 723.316406 386.386719 727.234375 383.832031 728.996094 C 382.886719 729.601562 379.992188 729.65625 379.203125 729.050781 C 376.652344 726.945312 377.890625 719.054688 378.179688 716.136719 C 379.492188 703.957031 375.074219 691.492188 374.679688 679.3125 C 374.601562 677.234375 373.3125 675.921875 371.789062 675.472656 C 371.445312 675.183594 371.105469 674.894531 370.605469 674.738281 C 365.554688 672.921875 360.398438 671.6875 355.035156 671.398438 C 341.4375 664.03125 328.628906 655.640625 317.527344 644.726562 C 296.117188 623.710938 297.644531 589.441406 328.285156 577.105469 C 351.007812 567.925781 346.644531 607.511719 351.007812 617.582031 C 355.429688 627.945312 361.714844 631.183594 372.578125 632.367188 C 373.261719 632.417969 373.8125 632.3125 374.339844 632.15625 C 376.601562 632.3125 378.914062 630.945312 378.914062 628.078125 C 378.808594 603.328125 377.625 578.578125 377.496094 553.777344 C 377.496094 551.4375 375.96875 550.199219 374.207031 549.804688 C 373.945312 549.699219 373.65625 549.570312 373.261719 549.515625 C 355.691406 547.699219 340.121094 538.523438 329.996094 524.136719 C 314.632812 502.332031 311.871094 472.375 319.449219 447.175781 C 323.261719 434.738281 329.890625 422.953125 339.566406 414.117188 C 344.382812 409.75 349.878906 406.121094 355.875 403.515625 C 357.980469 402.621094 376.3125 398.652344 376.417969 398.203125 C 378.230469 389.078125 375.96875 379.160156 376.3125 369.929688 C 376.496094 366.484375 376.496094 360.882812 380.492188 359.515625 C 384.753906 358.09375 386.121094 362.566406 387.015625 365.851562 C 389.515625 374.53125 387.59375 383.316406 388.988281 392.074219 C 389.121094 392.8125 389.332031 393.390625 389.671875 393.835938 C 390.410156 396.097656 393.011719 398.070312 395.90625 396.730469 C 402.296875 393.785156 409.320312 394.074219 416.027344 395.757812 C 416.183594 395.808594 416.34375 395.757812 416.527344 395.757812 C 419.128906 397.230469 423.101562 396.152344 422.8125 392.363281 C 422.367188 386.578125 421.15625 380.921875 420.890625 375.164062 C 420.601562 369.035156 423.363281 362.695312 422.285156 356.964844 C 422.234375 356.859375 432.648438 357.304688 433.726562 357.988281 C 436.960938 360.039062 437.25 368.007812 437.410156 371.796875 C 437.644531 376.6875 437.59375 382.238281 436.359375 386.972656 C 435.542969 390.101562 433.226562 394.417969 435.199219 397.574219 C 436.855469 400.230469 441.488281 401.019531 444.167969 402.097656 C 451.742188 405.277344 458.871094 409.355469 465.34375 414.40625 C 478.414062 424.636719 487.882812 438.8125 491.957031 454.882812 C 496.667969 473.398438 480.726562 484.683594 466.421875 471.585938 C 456.320312 462.351562 452.585938 446.570312 446.300781 434.839844 C 445.300781 432.921875 443.539062 432.449219 441.882812 432.867188 C 439.355469 432.394531 435.9375 434.550781 436.410156 438.078125 C 438.09375 450.804688 435.832031 463.089844 436.066406 475.792969 C 436.359375 488.574219 441.617188 499.515625 436.410156 512.324219 C 435.882812 513.5625 436.066406 514.691406 436.566406 515.535156 C 436.621094 517.191406 437.488281 518.875 439.410156 519.609375 C 473.996094 533.789062 500.164062 556.039062 505.265625 595.042969 " fill-opacity="1" fill-rule="nonzero"/><path fill="#c69c6d" d="M 457.476562 606.039062 C 458.265625 618.082031 452.375 626.710938 443.75 633.390625 C 441.882812 616.164062 442.960938 598.777344 443.25 581.445312 C 454.007812 582.996094 456.792969 596.304688 457.476562 606.039062 " fill-opacity="1" fill-rule="nonzero"/><path fill="#c69c6d" d="M 421.15625 441.628906 C 420.417969 451.59375 420.761719 461.695312 420.65625 471.636719 C 420.601562 478.503906 420.496094 485.289062 420.207031 492.152344 C 420.078125 494.308594 419.472656 500.199219 419.234375 503.355469 C 412.449219 503.144531 405.820312 502.066406 399.484375 499.515625 C 399.773438 479.082031 401.457031 458.566406 398.011719 438.339844 C 405.480469 438.234375 413 438.183594 419.972656 441.339844 C 420.367188 441.523438 420.761719 441.574219 421.15625 441.628906 " fill-opacity="1" fill-rule="nonzero"/><path fill="#c69c6d" d="M 415.5 570.136719 C 413.394531 592.886719 417.132812 615.425781 417.761719 638.257812 C 410.449219 637.46875 403.164062 637.074219 395.90625 636.335938 C 395.90625 621.949219 395.90625 581.394531 395.90625 562.71875 C 402.640625 564.402344 409.058594 567.425781 415.5 570.136719 " fill-opacity="1" fill-rule="nonzero"/><path fill="#a67c52" d="M 371.734375 74.273438 C 370.761719 74.617188 369.683594 74.878906 368.605469 75.167969 L 366.054688 75.75 L 363.738281 75.957031 C 361.820312 76.144531 359.609375 76.484375 357.796875 76.539062 C 354.558594 76.378906 351.613281 76.484375 347.617188 75.90625 C 344.671875 75.617188 341.644531 75.222656 338.648438 74.773438 C 339.515625 70.699219 340.171875 64.992188 341.726562 56.441406 C 346.589844 58.652344 351.457031 61.019531 356.164062 63.625 C 359.375 65.386719 362.503906 67.253906 365.394531 69.226562 C 367.816406 70.882812 370.027344 72.617188 371.734375 74.273438 " fill-opacity="1" fill-rule="nonzero"/><path fill="#c69c6d" d="M 366.972656 449.726562 C 367.210938 462.878906 367.867188 476.082031 368.15625 489.257812 C 356.664062 479.292969 354.507812 459.011719 366.972656 449.726562 " fill-opacity="1" fill-rule="nonzero"/><path fill="#8c6239" d="M 382.886719 13.625 C 375.46875 14.914062 367.921875 17.121094 360.582031 20.066406 C 347.773438 25.277344 335.886719 34.007812 329.207031 46.132812 C 327.390625 49.421875 326.074219 53.15625 324.890625 56.707031 C 323.8125 60.074219 324.261719 66.464844 323.023438 69.066406 C 319.449219 76.378906 310.847656 71.566406 304.324219 72.277344 C 304.273438 72.277344 299.539062 72.855469 299.539062 72.855469 L 298.957031 72.960938 C 298.957031 72.960938 298.667969 72.960938 298.5625 73.011719 C 298.5625 73.011719 297.433594 73.300781 297.300781 73.300781 L 296.300781 73.644531 L 294.355469 74.328125 C 289.28125 76.011719 284.125 77.722656 279.023438 79.878906 L 275.183594 81.402344 L 274.210938 81.796875 L 272.789062 82.429688 L 272.34375 82.640625 L 270.527344 83.507812 L 263.453125 87.003906 C 259.53125 88.664062 255.296875 91.660156 251.222656 94.316406 C 249.617188 91.421875 248.171875 88.765625 247.09375 86.214844 C 245.039062 81.246094 244.9375 77.957031 246.355469 74.171875 C 248.039062 70.433594 251.773438 66.121094 255.351562 62.441406 C 257.324219 60.675781 259.242188 58.992188 261.242188 57.285156 C 263.398438 55.757812 265.554688 54.285156 267.6875 52.8125 C 276.578125 47.316406 286.097656 43.132812 295.382812 39.398438 C 304.902344 35.585938 313.949219 32.035156 322.523438 28.640625 C 345.511719 19.382812 365.660156 14.992188 382.886719 13.625 " fill-opacity="1" fill-rule="nonzero"/><path fill="#c69c6d" d="M 539.589844 92.554688 C 546.902344 100.261719 556.582031 108.46875 555.792969 118.777344 C 555.792969 123.933594 552.953125 130.402344 549.714844 136.503906 C 545.980469 142.5 540.933594 148.445312 534.726562 154.414062 C 528.492188 160.359375 521.285156 166.355469 513.65625 173.328125 C 505.953125 180.507812 499.035156 188.371094 491.167969 196.550781 C 477.914062 211.59375 464.261719 228.429688 449.375 245.972656 C 448.640625 245.628906 447.851562 245.289062 447.113281 244.945312 C 447.324219 244.628906 447.5625 244.289062 447.773438 243.945312 C 449.640625 240.710938 451.246094 237.660156 452.71875 234.765625 C 453.320312 233.503906 454.242188 231.636719 454.242188 231.636719 C 455.136719 230.347656 456.058594 229.03125 456.953125 227.742188 C 460.421875 222.589844 463.710938 217.539062 466.917969 212.777344 C 473.152344 203.203125 478.546875 194.445312 482.886719 186.84375 C 491.511719 171.800781 495.746094 161.703125 493.589844 160.175781 C 491.460938 158.648438 483.226562 166.015625 471.785156 179.140625 C 466.078125 185.660156 459.503906 193.710938 452.480469 202.707031 C 448.980469 207.308594 445.351562 212.042969 441.566406 217.039062 C 440.644531 218.277344 439.75 219.539062 438.777344 220.828125 C 436.910156 223.5625 436.621094 224.507812 435.777344 226.085938 C 435.042969 227.453125 434.304688 228.824219 433.621094 230.109375 C 434.253906 224.507812 435.382812 219.144531 436.753906 214.144531 C 439.171875 205.492188 442.066406 197.734375 444.90625 190.816406 C 450.507812 177.007812 455.480469 166.25 458.871094 157.914062 C 465.789062 141.160156 466.761719 134.058594 465.734375 133.742188 C 464.554688 133.347656 461.660156 139.449219 453.402344 155.363281 C 449.375 163.359375 443.828125 173.773438 437.644531 187.765625 C 434.59375 194.734375 431.414062 202.707031 428.757812 211.882812 C 426.835938 218.511719 425.179688 225.929688 424.730469 234.03125 C 423.839844 233.453125 422.917969 232.953125 422.074219 232.375 C 420.996094 231.714844 419.972656 230.980469 419.183594 230.402344 C 418.894531 229.21875 418.628906 227.402344 418.628906 225.535156 C 418.5 223.21875 418.550781 220.773438 418.628906 218.40625 C 418.839844 213.59375 419.183594 208.9375 419.523438 204.625 C 419.761719 200.941406 419.917969 197.601562 420.023438 194.5 C 422.179688 179.085938 423.890625 165.171875 425.023438 153.441406 C 427.390625 129.585938 427.519531 114.648438 424.96875 114.199219 C 422.367188 113.675781 417.472656 127.796875 411.765625 150.996094 C 408.871094 162.570312 405.769531 176.429688 402.585938 191.894531 C 402.246094 193.816406 401.851562 195.8125 401.457031 197.785156 C 401.007812 199.945312 400.613281 202.414062 400.378906 204.46875 C 399.878906 208.78125 399.429688 212.726562 398.800781 216.699219 C 398.457031 218.566406 398.167969 220.539062 397.722656 222.246094 L 397.035156 224.796875 C 396.828125 225.585938 396.640625 225.640625 396.589844 226.085938 C 396.539062 226.324219 396.640625 226.429688 396.433594 226.824219 L 395.511719 228.191406 L 395.117188 228.769531 C 395.222656 228.585938 376.417969 234.871094 375.285156 234.476562 C 369.238281 232.453125 368.105469 220.039062 365.265625 215.277344 C 357.242188 200.546875 348.011719 189.292969 340.410156 180.058594 C 332.703125 170.828125 326.707031 163.621094 322.234375 158.753906 C 317.871094 153.546875 314.925781 150.996094 313.792969 151.679688 C 312.660156 152.363281 313.398438 156.152344 315.765625 162.492188 C 318.5 168.855469 323.207031 177.746094 329.414062 187.871094 C 335.597656 198.074219 343.304688 209.78125 349.535156 223.21875 C 351.296875 226.613281 352.480469 229.769531 353.429688 233.1875 C 353.71875 234.242188 354.007812 235.265625 354.640625 236.792969 C 354.902344 237.527344 355.191406 238.210938 355.535156 238.949219 C 353.21875 240.078125 351.613281 241.15625 350.089844 242.078125 C 348.222656 243.261719 346.695312 244.339844 345.222656 245.128906 L 343.644531 246.078125 L 342.328125 246.945312 L 341.09375 247.734375 C 339.910156 247.679688 338.9375 247.574219 338.304688 247.339844 L 338.199219 246.8125 L 337.699219 244.394531 C 336.964844 241.15625 336.515625 237.765625 335.414062 234.476562 C 331.757812 221.0625 324.785156 207.414062 315.898438 194.65625 C 311.53125 188.265625 306.613281 181.925781 301.71875 175.746094 C 296.40625 169.011719 291.488281 163.121094 286.148438 156.574219 C 283.492188 153.335938 280.835938 150.050781 278.128906 146.761719 C 276.917969 145.183594 275 143.132812 273.183594 141.371094 C 271.367188 139.6875 269.554688 138.160156 267.738281 136.6875 C 264.1875 133.796875 260.742188 131.246094 257.613281 128.585938 C 254.667969 126.035156 252.0625 123.300781 250.933594 121.222656 L 250.644531 120.777344 L 250.433594 120.433594 C 249.855469 119.644531 249.355469 118.777344 248.960938 118.039062 C 250.039062 117.25 251.511719 116.359375 252.90625 115.382812 L 256.429688 112.992188 L 259.324219 111.148438 C 263.398438 108.703125 266.503906 105.914062 271.710938 103.757812 L 278.863281 100.3125 C 278.863281 100.3125 280.679688 99.472656 280.730469 99.417969 L 281.519531 99.128906 L 285.152344 97.710938 C 289.886719 95.738281 294.988281 94.027344 300.195312 92.398438 L 302.140625 91.765625 L 302.695312 91.660156 L 302.457031 91.871094 C 302.640625 91.816406 302.878906 91.714844 303.195312 91.609375 L 304.113281 91.476562 C 304.113281 91.476562 305.296875 91.476562 305.296875 91.554688 L 307.269531 91.214844 C 309.425781 90.792969 311.292969 90.925781 313.742188 90.976562 C 323.472656 91.265625 333.886719 93.632812 345.90625 94.949219 C 349.984375 95.554688 355.035156 95.554688 359.898438 95.554688 C 362.160156 95.449219 363.976562 95.105469 366 94.949219 L 367.472656 94.765625 L 368.210938 94.660156 L 368.550781 94.660156 L 369.421875 94.476562 L 369.632812 94.476562 L 373.023438 93.765625 C 375.128906 93.1875 377.230469 92.554688 379.492188 91.714844 C 377.785156 104.523438 377.625 115.777344 377.730469 125.351562 C 378.019531 138.898438 378.914062 149.367188 379.835938 157.335938 C 381.703125 173.246094 383.4375 179.140625 384.597656 179.035156 C 385.832031 178.980469 386.175781 172.800781 385.832031 156.886719 C 385.726562 148.972656 385.4375 138.609375 385.597656 125.351562 C 385.78125 114.070312 386.332031 100.65625 388.988281 85.375 C 390.355469 83.769531 391.671875 81.640625 392.222656 79.035156 C 392.617188 77.667969 392.617188 76.246094 392.617188 74.878906 C 392.566406 73.539062 392.277344 72.460938 391.988281 71.277344 C 390.59375 67.015625 388.59375 64.703125 386.78125 62.597656 C 383.175781 58.652344 379.546875 56.023438 375.96875 53.601562 C 372.417969 51.207031 368.789062 49.132812 365.210938 47.210938 C 362.371094 45.660156 359.609375 44.316406 356.769531 42.898438 C 360.1875 40.453125 363.792969 38.375 367.710938 36.664062 C 375.757812 33.269531 384.253906 30.902344 392.960938 29.824219 C 410.34375 27.378906 427.785156 28.351562 443.984375 30.71875 C 460.238281 33.167969 475.414062 37.007812 489.011719 41.820312 C 492.300781 43.132812 495.457031 44.132812 498.746094 45.554688 C 500.402344 46.289062 502.03125 47.027344 503.609375 47.710938 L 504.871094 48.210938 C 504.871094 48.210938 505.425781 48.5 505.476562 48.550781 L 505.714844 48.683594 L 507.632812 49.816406 C 511.554688 51.789062 514.5 54.390625 516.707031 57.335938 C 517.839844 59.941406 519.128906 62.992188 520.835938 66.515625 C 521.417969 69.410156 521.574219 72.40625 521.417969 75.40625 C 521.285156 80.480469 520.257812 85.53125 519.417969 90.242188 C 517.445312 99.761719 515.394531 108.074219 514.550781 115.09375 C 514.105469 118.621094 513.921875 121.777344 513.867188 124.511719 C 513.972656 127.324219 513.921875 129.71875 514.316406 131.453125 C 515.050781 135.03125 515.683594 136.847656 516.261719 136.847656 C 516.8125 136.792969 517.261719 134.875 517.550781 131.296875 C 517.734375 129.480469 518.285156 127.457031 518.628906 124.957031 C 519.257812 122.511719 519.8125 119.566406 520.785156 116.410156 C 522.546875 109.886719 525.414062 102.128906 528.359375 92.503906 C 529.226562 89.453125 530.070312 86.214844 530.804688 82.769531 C 533.460938 86.058594 536.410156 89.347656 539.589844 92.554688 " fill-opacity="1" fill-rule="nonzero"/><path fill="#c69c6d" d="M 514.15625 602.511719 C 515.234375 558.0625 482.621094 529.183594 445.117188 512.929688 C 449.585938 500.410156 446.035156 488.8125 444.5625 475.792969 C 443.644531 467.851562 444.484375 459.933594 444.957031 451.988281 C 450.71875 465.195312 457.136719 479.527344 470.496094 484.683594 C 482.492188 489.3125 493.722656 484.628906 498.929688 472.847656 C 505.765625 457.488281 496.589844 438.417969 488.171875 425.664062 C 477.730469 410.09375 461.371094 399.675781 444.167969 393.046875 C 446.378906 377.347656 450.324219 350.519531 429.046875 348.308594 C 410.636719 346.441406 412.449219 372.21875 413.789062 386.65625 C 408.082031 385.738281 402.429688 385.921875 396.878906 387.5 C 397.222656 387.445312 396.195312 374.136719 396.144531 372.875 C 395.800781 368.0625 395.273438 362.855469 392.960938 358.488281 C 390.410156 353.808594 386.964844 352.097656 381.859375 351.992188 C 378.308594 351.886719 370.605469 350.570312 369.421875 355.386719 C 368.789062 358.042969 369.867188 360.777344 369.289062 363.484375 C 368.789062 365.984375 367.867188 368.195312 367.660156 370.851562 C 367.027344 377.636719 367.921875 384.449219 368.210938 391.234375 C 287.019531 405.859375 286.964844 544.308594 369.078125 557.328125 C 369.238281 579.367188 370.15625 601.382812 370.367188 623.371094 C 348.5625 618.664062 361.582031 582.417969 344.671875 570.136719 C 328.679688 558.640625 308.007812 579.078125 299.984375 590.519531 C 274.65625 626.816406 320.261719 661.429688 348.222656 677.394531 C 350.773438 678.8125 353.824219 680.15625 356.664062 680.785156 C 359.03125 681.234375 361.820312 680.574219 364.027344 681.523438 C 367.710938 683.179688 366.789062 687.863281 367.316406 691.78125 C 367.816406 695.804688 368.449219 699.828125 369.132812 703.828125 C 369.972656 709.269531 369.289062 714.714844 369.289062 720.160156 C 369.289062 723.710938 368.316406 731.179688 370.523438 734.125 C 372.867188 737.253906 380.28125 736.730469 383.625 736.914062 C 392.460938 737.308594 393.589844 730.839844 393.40625 723.421875 C 393.195312 711.425781 392.671875 699.300781 392.617188 687.308594 C 401.691406 688.257812 410.738281 689.335938 419.761719 688.257812 C 418.628906 688.441406 417.894531 714.375 417.945312 716.925781 C 417.945312 724.445312 416.683594 734.230469 426.441406 732.996094 C 430.230469 732.496094 434.304688 733.230469 438.039062 732.496094 C 445.117188 731.128906 443.75 719.476562 443.433594 714.375 C 443.25 711.269531 440.644531 685.101562 441.277344 685.046875 C 487.988281 678.917969 512.972656 651.066406 514.15625 602.511719 Z M 682.75 639.097656 C 685.300781 655.0625 686.640625 670.921875 685.695312 686.097656 C 684.722656 701.222656 681.277344 715.660156 674.148438 727.496094 C 672.335938 730.390625 670.175781 732.996094 668.257812 735.835938 C 665.863281 738.203125 663.496094 740.597656 661.101562 742.964844 C 658.5 744.910156 655.949219 746.75 653.398438 748.644531 C 650.53125 750.511719 646.796875 752.140625 643.507812 753.851562 L 641.402344 754.929688 L 641.113281 755.035156 L 640.507812 755.246094 L 639.195312 755.773438 L 634.222656 757.585938 C 635.355469 756.613281 636.484375 755.773438 637.511719 754.796875 C 645.324219 747.511719 652.003906 739.28125 657.316406 730.445312 C 662.523438 721.554688 666.3125 712.214844 669.097656 702.933594 C 671.753906 693.542969 673.332031 684.179688 674.148438 675.078125 C 676.804688 638.492188 668.757812 606.667969 659.816406 581.578125 C 650.582031 556.433594 639.929688 537.523438 631.777344 525.160156 C 623.441406 512.71875 617.835938 506.882812 616.757812 507.484375 C 615.574219 508.222656 619.257812 515.71875 625.253906 528.789062 C 631.332031 541.992188 639.773438 561.195312 646.953125 585.757812 C 653.921875 610.21875 659.972656 640.703125 656.578125 673.371094 C 655.683594 681.46875 654.027344 689.625 651.660156 697.671875 C 649.058594 705.640625 645.71875 713.480469 641.296875 720.816406 C 636.695312 728.023438 631.226562 734.757812 624.703125 740.699219 C 618.179688 746.644531 610.550781 751.511719 602.449219 755.824219 C 598.320312 757.585938 594.402344 759.742188 590.089844 761.085938 L 583.75 763.347656 L 577.308594 765.109375 L 574.070312 766.027344 C 574.070312 766.027344 573.335938 766.238281 573.28125 766.292969 L 572.835938 766.34375 L 571.125 766.6875 L 564.207031 768.054688 C 559.632812 768.976562 555.054688 769.871094 550.558594 770.710938 C 546.035156 771.632812 541.5625 772.527344 537.144531 773.445312 C 536.511719 773.5 535.910156 773.550781 535.328125 773.65625 C 535.855469 773.050781 536.460938 772.472656 536.988281 771.921875 C 545.824219 762.242188 552.558594 751.984375 557.582031 741.832031 C 568.074219 721.605469 573.230469 702.539062 576.625 686.730469 C 583.066406 654.957031 580.699219 635.8125 578.992188 635.890625 C 576.726562 635.890625 575.308594 654.40625 566.128906 684.074219 C 561.5 698.855469 555.214844 716.6875 544.613281 734.652344 C 539.460938 743.75 532.960938 752.589844 525.152344 760.53125 C 508.316406 777.46875 490.984375 781.308594 467.894531 783.863281 C 433.570312 787.492188 385.992188 790.9375 333.625 787.832031 C 327.101562 787.359375 320.527344 787.148438 314.371094 786.570312 C 307.902344 785.964844 301.378906 785.492188 295.511719 784.757812 C 283.441406 783.519531 271.761719 781.652344 262.03125 778.46875 C 252.117188 775.3125 244.832031 770.449219 240.070312 763.347656 C 235.308594 756.269531 232.523438 747.671875 230.363281 739.570312 C 226.289062 723.261719 224.15625 709.113281 221.816406 699.644531 C 219.6875 690.070312 217.925781 684.808594 216.554688 684.96875 C 215.242188 685.101562 214.582031 690.597656 214.453125 700.433594 C 214.53125 710.296875 214.53125 724.394531 217.136719 742.277344 C 218.660156 751.167969 220.6875 761.425781 226.707031 771.84375 C 228.285156 774.394531 229.761719 777.128906 232.074219 779.335938 L 235.363281 782.886719 C 236.492188 784.019531 237.859375 784.886719 239.148438 785.886719 C 240.464844 786.859375 241.753906 787.886719 243.070312 788.832031 C 244.488281 789.621094 245.882812 790.382812 247.304688 791.09375 C 248.09375 791.515625 248.882812 791.910156 249.617188 792.355469 C 231.101562 790.648438 211.007812 787.78125 190.570312 781.703125 C 188.070312 780.785156 185.519531 779.941406 182.96875 779.101562 C 180.417969 778.234375 177.816406 777.339844 175.105469 776.101562 C 173.527344 775.417969 171.871094 774.734375 170.292969 774.050781 C 166.769531 772.367188 163.269531 770.554688 159.824219 768.554688 C 159.691406 768.5 159.640625 768.449219 159.535156 768.394531 C 150.644531 762.6875 143.175781 754.796875 137.441406 745.066406 C 132.179688 735.992188 128.445312 725.578125 124.976562 714.375 C 123.6875 689.859375 130.65625 665.375 138.019531 644.042969 C 145.648438 622.292969 154.195312 603.09375 161.351562 586.835938 C 168.476562 570.582031 174.265625 557.273438 177.605469 547.753906 C 180.945312 538.179688 181.890625 532.523438 180.707031 532.078125 C 179.472656 531.578125 176.238281 536.101562 170.921875 544.464844 C 165.585938 552.910156 158.007812 565.140625 149.226562 580.789062 C 140.492188 596.464844 130.417969 615.425781 121.53125 637.863281 C 117.609375 647.726562 114.007812 658.246094 111.113281 669.527344 C 106.933594 657.507812 104.039062 644.988281 103.300781 632.261719 C 102.433594 619.003906 104.433594 605.644531 108.117188 592.230469 C 116.03125 565.480469 129.734375 539.835938 141.859375 514.902344 C 154.195312 490.179688 166.664062 466.5625 179.472656 444.625 C 204.90625 400.808594 231.046875 363.25 256.375 334.710938 C 264.871094 325.03125 273.183594 316.433594 281.179688 308.726562 C 286.597656 305.492188 293.75 300.730469 302.246094 294.785156 C 311.53125 288.054688 322.234375 281.03125 334.230469 273.035156 C 340.648438 269.351562 347.328125 265.460938 354.296875 261.4375 C 354.164062 261.726562 354.058594 261.988281 353.902344 262.226562 C 351.796875 265.222656 350.5625 268.273438 347.933594 271.21875 C 345.222656 274.351562 342.566406 277.347656 339.960938 280.292969 L 337.910156 282.742188 C 337.175781 283.632812 336.332031 284.609375 335.832031 285.34375 L 334.703125 286.871094 L 333.964844 288.105469 L 332.441406 290.605469 C 324.496094 303.78125 317.421875 315.75 312.03125 326.007812 C 301.457031 346.441406 296.011719 359.804688 298.222656 361.222656 C 300.433594 362.644531 309.953125 351.808594 323.472656 333.1875 C 330.285156 323.953125 338.304688 313.09375 346.800781 300.785156 L 348.40625 298.46875 L 349.246094 297.285156 L 349.40625 297.046875 L 349.929688 296.496094 C 350.5625 295.628906 351.0625 295.179688 351.613281 294.574219 L 352.746094 293.367188 C 352.246094 298.46875 351.796875 303.175781 351.113281 307.359375 C 350.613281 311.960938 349.640625 315.855469 349.0625 319.429688 C 348.167969 322.824219 347.722656 325.769531 347.039062 328.375 C 345.566406 333.527344 345.277344 336.578125 346.355469 337.15625 C 347.433594 337.710938 349.746094 335.683594 353.085938 331.476562 C 354.746094 329.398438 356.375 326.269531 358.375 322.769531 C 359.953125 319.195312 361.976562 315.066406 363.34375 310.304688 C 366.578125 300.914062 368.789062 289.421875 371.261719 277.164062 C 371.734375 274.902344 372.183594 272.640625 372.683594 270.429688 C 373.472656 269.195312 374.339844 267.878906 375.023438 266.433594 C 376.3125 263.933594 377.785156 260.9375 378.230469 256.964844 C 378.308594 256.332031 378.519531 255.703125 378.703125 255.046875 C 379.597656 253.78125 380.675781 252.652344 381.859375 251.757812 C 382.097656 251.757812 382.441406 251.757812 382.648438 251.757812 C 388.199219 251.574219 393.40625 250.496094 398.957031 248.363281 C 399.089844 248.363281 399.195312 248.3125 399.300781 248.234375 C 401.5625 248.679688 403.453125 249.546875 404.296875 250.179688 C 404.347656 250.230469 404.453125 250.285156 404.558594 250.335938 L 404.796875 250.625 C 405.296875 251.46875 404.742188 250.625 405.136719 251.363281 C 405.664062 252.441406 406.164062 253.964844 406.609375 255.597656 C 408.371094 262.171875 409.160156 269.828125 410.636719 277.453125 C 410.976562 279.375 411.371094 281.371094 412.003906 283.582031 L 412.554688 285.398438 L 413.082031 286.632812 L 413.976562 289.078125 C 415.210938 292.367188 416.472656 295.523438 417.605469 298.519531 C 420.023438 304.648438 423.101562 310.488281 425.519531 315.644531 C 436.171875 335.683594 444.5625 346.730469 446.878906 345.652344 C 449.375 344.523438 445.167969 331.03125 437.988281 310.355469 C 437.015625 307.070312 435.832031 303.675781 434.648438 300.046875 C 440.539062 308.882812 445.984375 316.878906 451.140625 323.402344 C 463.632812 339.761719 472.363281 349.152344 474.519531 347.730469 C 476.597656 346.390625 471.734375 334.554688 462.054688 316.25 C 457.136719 307.199219 451.585938 296.257812 444.828125 284.371094 C 443.195312 281.371094 441.488281 278.320312 439.75 275.191406 L 438.382812 272.878906 L 437.699219 271.695312 L 436.804688 270.222656 C 435.832031 268.695312 434.859375 267.222656 433.910156 265.695312 C 432.492188 263.355469 431.203125 261.042969 430.175781 258.78125 C 435.59375 260.464844 441.617188 263.199219 447.167969 265.75 C 454.191406 268.957031 460.976562 272.429688 467.445312 275.71875 C 479.492188 281.871094 490.378906 287.476562 499.71875 292.289062 C 502.898438 294.445312 506.109375 296.652344 509.5 298.996094 C 523.441406 308.964844 539.589844 320.457031 554.820312 334.894531 C 556.792969 336.632812 558.789062 338.445312 560.761719 340.261719 C 562.683594 342.261719 564.601562 344.285156 566.601562 346.390625 C 568.574219 348.414062 570.574219 350.519531 572.546875 352.675781 L 575.597656 355.832031 L 575.886719 356.175781 L 576.042969 356.359375 L 576.726562 357.199219 L 578.097656 358.910156 C 585.40625 367.90625 592.640625 377.582031 599.320312 388.183594 C 612.867188 409.25 624.992188 433.316406 635.066406 459.800781 C 645.375 486.261719 653.871094 514.980469 661.578125 545.203125 C 665.417969 560.324219 669.097656 575.738281 672.78125 591.546875 C 676.515625 607.457031 680.25 623.082031 682.75 639.097656 Z M 573.386719 766.132812 C 573.335938 766.132812 573.230469 766.1875 573.175781 766.238281 L 573.335938 766.238281 L 573.386719 766.1875 L 573.386719 766.132812 " fill-opacity="1" fill-rule="nonzero"/><path fill="#000000" d="M 360.582031 20.066406 C 367.921875 17.121094 375.46875 14.914062 382.886719 13.625 C 365.660156 14.992188 345.511719 19.382812 322.523438 28.640625 C 313.949219 32.035156 304.902344 35.585938 295.382812 39.398438 C 286.097656 43.132812 276.578125 47.316406 267.6875 52.8125 C 265.554688 54.285156 263.398438 55.757812 261.242188 57.285156 C 259.242188 58.992188 257.324219 60.675781 255.351562 62.441406 C 251.773438 66.121094 248.039062 70.433594 246.355469 74.171875 C 244.9375 77.957031 245.039062 81.246094 247.09375 86.214844 C 248.171875 88.765625 249.617188 91.421875 251.222656 94.316406 C 255.296875 91.660156 259.53125 88.664062 263.453125 87.003906 L 270.527344 83.507812 L 272.34375 82.640625 L 272.789062 82.429688 L 274.210938 81.796875 L 275.183594 81.402344 L 279.023438 79.878906 C 284.125 77.722656 289.28125 76.011719 294.355469 74.328125 L 296.300781 73.644531 L 297.300781 73.300781 C 297.433594 73.300781 298.5625 73.011719 298.5625 73.011719 C 298.667969 72.960938 298.957031 72.960938 298.957031 72.960938 L 299.539062 72.855469 C 299.539062 72.855469 304.273438 72.277344 304.324219 72.277344 C 310.847656 71.566406 319.449219 76.378906 323.023438 69.066406 C 324.261719 66.464844 323.8125 60.074219 324.890625 56.707031 C 326.074219 53.15625 327.390625 49.421875 329.207031 46.132812 C 335.886719 34.007812 347.773438 25.277344 360.582031 20.066406 Z M 368.605469 75.167969 C 369.683594 74.878906 370.761719 74.617188 371.734375 74.273438 C 370.027344 72.617188 367.816406 70.882812 365.394531 69.226562 C 362.503906 67.253906 359.375 65.386719 356.164062 63.625 C 351.457031 61.019531 346.589844 58.652344 341.726562 56.441406 C 340.171875 64.992188 339.515625 70.699219 338.648438 74.773438 C 341.644531 75.222656 344.671875 75.617188 347.617188 75.90625 C 351.613281 76.484375 354.558594 76.378906 357.796875 76.539062 C 359.609375 76.484375 361.820312 76.144531 363.738281 75.957031 L 366.054688 75.75 Z M 555.792969 118.777344 C 556.582031 108.46875 546.902344 100.261719 539.589844 92.554688 C 536.410156 89.347656 533.460938 86.058594 530.804688 82.769531 C 530.070312 86.214844 529.226562 89.453125 528.359375 92.503906 C 525.414062 102.128906 522.546875 109.886719 520.785156 116.410156 C 519.8125 119.566406 519.257812 122.511719 518.628906 124.957031 C 518.285156 127.457031 517.734375 129.480469 517.550781 131.296875 C 517.261719 134.875 516.8125 136.792969 516.261719 136.847656 C 515.683594 136.847656 515.050781 135.03125 514.316406 131.453125 C 513.921875 129.71875 513.972656 127.324219 513.867188 124.511719 C 513.921875 121.777344 514.105469 118.621094 514.550781 115.09375 C 515.394531 108.074219 517.445312 99.761719 519.417969 90.242188 C 520.257812 85.53125 521.285156 80.480469 521.417969 75.40625 C 521.574219 72.40625 521.417969 69.410156 520.835938 66.515625 C 519.128906 62.992188 517.839844 59.941406 516.707031 57.335938 C 514.5 54.390625 511.554688 51.789062 507.632812 49.816406 L 505.714844 48.683594 L 505.476562 48.550781 C 505.425781 48.5 504.871094 48.210938 504.871094 48.210938 L 503.609375 47.710938 C 502.03125 47.027344 500.402344 46.289062 498.746094 45.554688 C 495.457031 44.132812 492.300781 43.132812 489.011719 41.820312 C 475.414062 37.007812 460.238281 33.167969 443.984375 30.71875 C 427.785156 28.351562 410.34375 27.378906 392.960938 29.824219 C 384.253906 30.902344 375.757812 33.269531 367.710938 36.664062 C 363.792969 38.375 360.1875 40.453125 356.769531 42.898438 C 359.609375 44.316406 362.371094 45.660156 365.210938 47.210938 C 368.789062 49.132812 372.417969 51.207031 375.96875 53.601562 C 379.546875 56.023438 383.175781 58.652344 386.78125 62.597656 C 388.59375 64.703125 390.59375 67.015625 391.988281 71.277344 C 392.277344 72.460938 392.566406 73.539062 392.617188 74.878906 C 392.617188 76.246094 392.617188 77.667969 392.222656 79.035156 C 391.671875 81.640625 390.355469 83.769531 388.988281 85.375 C 386.332031 100.65625 385.78125 114.070312 385.597656 125.351562 C 385.4375 138.609375 385.726562 148.972656 385.832031 156.886719 C 386.175781 172.800781 385.832031 178.980469 384.597656 179.035156 C 383.4375 179.140625 381.703125 173.246094 379.835938 157.335938 C 378.914062 149.367188 378.019531 138.898438 377.730469 125.351562 C 377.625 115.777344 377.785156 104.523438 379.492188 91.714844 C 377.230469 92.554688 375.128906 93.1875 373.023438 93.765625 L 369.632812 94.476562 L 369.421875 94.476562 L 368.550781 94.660156 L 368.210938 94.660156 L 367.472656 94.765625 L 366 94.949219 C 363.976562 95.105469 362.160156 95.449219 359.898438 95.554688 C 355.035156 95.554688 349.984375 95.554688 345.90625 94.949219 C 333.886719 93.632812 323.472656 91.265625 313.742188 90.976562 C 311.292969 90.925781 309.425781 90.792969 307.269531 91.214844 L 305.296875 91.554688 C 305.296875 91.476562 304.113281 91.476562 304.113281 91.476562 L 303.195312 91.609375 C 302.878906 91.714844 302.640625 91.816406 302.457031 91.871094 L 302.695312 91.660156 L 302.140625 91.765625 L 300.195312 92.398438 C 294.988281 94.027344 289.886719 95.738281 285.152344 97.710938 L 281.519531 99.128906 L 280.730469 99.417969 C 280.679688 99.472656 278.863281 100.3125 278.863281 100.3125 L 271.710938 103.757812 C 266.503906 105.914062 263.398438 108.703125 259.324219 111.148438 L 256.429688 112.992188 L 252.90625 115.382812 C 251.511719 116.359375 250.039062 117.25 248.960938 118.039062 C 249.355469 118.777344 249.855469 119.644531 250.433594 120.433594 L 250.644531 120.777344 L 250.933594 121.222656 C 252.0625 123.300781 254.667969 126.035156 257.613281 128.585938 C 260.742188 131.246094 264.1875 133.796875 267.738281 136.6875 C 269.554688 138.160156 271.367188 139.6875 273.183594 141.371094 C 275 143.132812 276.917969 145.183594 278.128906 146.761719 C 280.835938 150.050781 283.492188 153.335938 286.148438 156.574219 C 291.488281 163.121094 296.40625 169.011719 301.71875 175.746094 C 306.613281 181.925781 311.53125 188.265625 315.898438 194.65625 C 324.785156 207.414062 331.757812 221.0625 335.414062 234.476562 C 336.515625 237.765625 336.964844 241.15625 337.699219 244.394531 L 338.199219 246.8125 L 338.304688 247.339844 C 338.9375 247.574219 339.910156 247.679688 341.09375 247.734375 L 342.328125 246.945312 L 343.644531 246.078125 L 345.222656 245.128906 C 346.695312 244.339844 348.222656 243.261719 350.089844 242.078125 C 351.613281 241.15625 353.21875 240.078125 355.535156 238.949219 C 355.191406 238.210938 354.902344 237.527344 354.640625 236.792969 C 354.007812 235.265625 353.71875 234.242188 353.429688 233.1875 C 352.480469 229.769531 351.296875 226.613281 349.535156 223.21875 C 343.304688 209.78125 335.597656 198.074219 329.414062 187.871094 C 323.207031 177.746094 318.5 168.855469 315.765625 162.492188 C 313.398438 156.152344 312.660156 152.363281 313.792969 151.679688 C 314.925781 150.996094 317.871094 153.546875 322.234375 158.753906 C 326.707031 163.621094 332.703125 170.828125 340.410156 180.058594 C 348.011719 189.292969 357.242188 200.546875 365.265625 215.277344 C 368.105469 220.039062 369.238281 232.453125 375.285156 234.476562 C 376.417969 234.871094 395.222656 228.585938 395.117188 228.769531 L 395.511719 228.191406 L 396.433594 226.824219 C 396.640625 226.429688 396.539062 226.324219 396.589844 226.085938 C 396.640625 225.640625 396.828125 225.585938 397.035156 224.796875 L 397.722656 222.246094 C 398.167969 220.539062 398.457031 218.566406 398.800781 216.699219 C 399.429688 212.726562 399.878906 208.78125 400.378906 204.46875 C 400.613281 202.414062 401.007812 199.945312 401.457031 197.785156 C 401.851562 195.8125 402.246094 193.816406 402.585938 191.894531 C 405.769531 176.429688 408.871094 162.570312 411.765625 150.996094 C 417.472656 127.796875 422.367188 113.675781 424.96875 114.199219 C 427.519531 114.648438 427.390625 129.585938 425.023438 153.441406 C 423.890625 165.171875 422.179688 179.085938 420.023438 194.5 C 419.917969 197.601562 419.761719 200.941406 419.523438 204.625 C 419.183594 208.9375 418.839844 213.59375 418.628906 218.40625 C 418.550781 220.773438 418.5 223.21875 418.628906 225.535156 C 418.628906 227.402344 418.894531 229.21875 419.183594 230.402344 C 419.972656 230.980469 420.996094 231.714844 422.074219 232.375 C 422.917969 232.953125 423.839844 233.453125 424.730469 234.03125 C 425.179688 225.929688 426.835938 218.511719 428.757812 211.882812 C 431.414062 202.707031 434.59375 194.734375 437.644531 187.765625 C 443.828125 173.773438 449.375 163.359375 453.402344 155.363281 C 461.660156 139.449219 464.554688 133.347656 465.734375 133.742188 C 466.761719 134.058594 465.789062 141.160156 458.871094 157.914062 C 455.480469 166.25 450.507812 177.007812 444.90625 190.816406 C 442.066406 197.734375 439.171875 205.492188 436.753906 214.144531 C 435.382812 219.144531 434.253906 224.507812 433.621094 230.109375 C 434.304688 228.824219 435.042969 227.453125 435.777344 226.085938 C 436.621094 224.507812 436.910156 223.5625 438.777344 220.828125 C 439.75 219.539062 440.644531 218.277344 441.566406 217.039062 C 445.351562 212.042969 448.980469 207.308594 452.480469 202.707031 C 459.503906 193.710938 466.078125 185.660156 471.785156 179.140625 C 483.226562 166.015625 491.460938 158.648438 493.589844 160.175781 C 495.746094 161.703125 491.511719 171.800781 482.886719 186.84375 C 478.546875 194.445312 473.152344 203.203125 466.917969 212.777344 C 463.710938 217.539062 460.421875 222.589844 456.953125 227.742188 C 456.058594 229.03125 455.136719 230.347656 454.242188 231.636719 C 454.242188 231.636719 453.320312 233.503906 452.71875 234.765625 C 451.246094 237.660156 449.640625 240.710938 447.773438 243.945312 C 447.5625 244.289062 447.324219 244.628906 447.113281 244.945312 C 447.851562 245.289062 448.640625 245.628906 449.375 245.972656 C 464.261719 228.429688 477.914062 211.59375 491.167969 196.550781 C 499.035156 188.371094 505.953125 180.507812 513.65625 173.328125 C 521.285156 166.355469 528.492188 160.359375 534.726562 154.414062 C 540.933594 148.445312 545.980469 142.5 549.714844 136.503906 C 552.953125 130.402344 555.792969 123.933594 555.792969 118.777344 Z M 685.695312 686.097656 C 686.640625 670.921875 685.300781 655.0625 682.75 639.097656 C 680.25 623.082031 676.515625 607.457031 672.78125 591.546875 C 669.097656 575.738281 665.417969 560.324219 661.578125 545.203125 C 653.871094 514.980469 645.375 486.261719 635.066406 459.800781 C 624.992188 433.316406 612.867188 409.25 599.320312 388.183594 C 592.640625 377.582031 585.40625 367.90625 578.097656 358.910156 L 576.726562 357.199219 L 576.042969 356.359375 L 575.886719 356.175781 L 575.597656 355.832031 L 572.546875 352.675781 C 570.574219 350.519531 568.574219 348.414062 566.601562 346.390625 C 564.601562 344.285156 562.683594 342.261719 560.761719 340.261719 C 558.789062 338.445312 556.792969 336.632812 554.820312 334.894531 C 539.589844 320.457031 523.441406 308.964844 509.5 298.996094 C 506.109375 296.652344 502.898438 294.445312 499.71875 292.289062 C 490.378906 287.476562 479.492188 281.871094 467.445312 275.71875 C 460.976562 272.429688 454.191406 268.957031 447.167969 265.75 C 441.617188 263.199219 435.59375 260.464844 430.175781 258.78125 C 431.203125 261.042969 432.492188 263.355469 433.910156 265.695312 C 434.859375 267.222656 435.832031 268.695312 436.804688 270.222656 L 437.699219 271.695312 L 438.382812 272.878906 L 439.75 275.191406 C 441.488281 278.320312 443.195312 281.371094 444.828125 284.371094 C 451.585938 296.257812 457.136719 307.199219 462.054688 316.25 C 471.734375 334.554688 476.597656 346.390625 474.519531 347.730469 C 472.363281 349.152344 463.632812 339.761719 451.140625 323.402344 C 445.984375 316.878906 440.539062 308.882812 434.648438 300.046875 C 435.832031 303.675781 437.015625 307.070312 437.988281 310.355469 C 445.167969 331.03125 449.375 344.523438 446.878906 345.652344 C 444.5625 346.730469 436.171875 335.683594 425.519531 315.644531 C 423.101562 310.488281 420.023438 304.648438 417.605469 298.519531 C 416.472656 295.523438 415.210938 292.367188 413.976562 289.078125 L 413.082031 286.632812 L 412.554688 285.398438 L 412.003906 283.582031 C 411.371094 281.371094 410.976562 279.375 410.636719 277.453125 C 409.160156 269.828125 408.371094 262.171875 406.609375 255.597656 C 406.164062 253.964844 405.664062 252.441406 405.136719 251.363281 C 404.742188 250.625 405.296875 251.46875 404.796875 250.625 L 404.558594 250.335938 C 404.453125 250.285156 404.347656 250.230469 404.296875 250.179688 C 403.453125 249.546875 401.5625 248.679688 399.300781 248.234375 C 399.195312 248.3125 399.089844 248.363281 398.957031 248.363281 C 393.40625 250.496094 388.199219 251.574219 382.648438 251.757812 C 382.441406 251.757812 382.097656 251.757812 381.859375 251.757812 C 380.675781 252.652344 379.597656 253.78125 378.703125 255.046875 C 378.519531 255.703125 378.308594 256.332031 378.230469 256.964844 C 377.785156 260.9375 376.3125 263.933594 375.023438 266.433594 C 374.339844 267.878906 373.472656 269.195312 372.683594 270.429688 C 372.183594 272.640625 371.734375 274.902344 371.261719 277.164062 C 368.789062 289.421875 366.578125 300.914062 363.34375 310.304688 C 361.976562 315.066406 359.953125 319.195312 358.375 322.769531 C 356.375 326.269531 354.746094 329.398438 353.085938 331.476562 C 349.746094 335.683594 347.433594 337.710938 346.355469 337.15625 C 345.277344 336.578125 345.566406 333.527344 347.039062 328.375 C 347.722656 325.769531 348.167969 322.824219 349.0625 319.429688 C 349.640625 315.855469 350.613281 311.960938 351.113281 307.359375 C 351.796875 303.175781 352.246094 298.46875 352.746094 293.367188 L 351.613281 294.574219 C 351.0625 295.179688 350.5625 295.628906 349.929688 296.496094 L 349.40625 297.046875 L 349.246094 297.285156 L 348.40625 298.46875 L 346.800781 300.785156 C 338.304688 313.09375 330.285156 323.953125 323.472656 333.1875 C 309.953125 351.808594 300.433594 362.644531 298.222656 361.222656 C 296.011719 359.804688 301.457031 346.441406 312.03125 326.007812 C 317.421875 315.75 324.496094 303.78125 332.441406 290.605469 L 333.964844 288.105469 L 334.703125 286.871094 L 335.832031 285.34375 C 336.332031 284.609375 337.175781 283.632812 337.910156 282.742188 L 339.960938 280.292969 C 342.566406 277.347656 345.222656 274.351562 347.933594 271.21875 C 350.5625 268.273438 351.796875 265.222656 353.902344 262.226562 C 354.058594 261.988281 354.164062 261.726562 354.296875 261.4375 C 347.328125 265.460938 340.648438 269.351562 334.230469 273.035156 C 322.234375 281.03125 311.53125 288.054688 302.246094 294.785156 C 293.75 300.730469 286.597656 305.492188 281.179688 308.726562 C 273.183594 316.433594 264.871094 325.03125 256.375 334.710938 C 231.046875 363.25 204.90625 400.808594 179.472656 444.625 C 166.664062 466.5625 154.195312 490.179688 141.859375 514.902344 C 129.734375 539.835938 116.03125 565.480469 108.117188 592.230469 C 104.433594 605.644531 102.433594 619.003906 103.300781 632.261719 C 104.039062 644.988281 106.933594 657.507812 111.113281 669.527344 C 114.007812 658.246094 117.609375 647.726562 121.53125 637.863281 C 130.417969 615.425781 140.492188 596.464844 149.226562 580.789062 C 158.007812 565.140625 165.585938 552.910156 170.921875 544.464844 C 176.238281 536.101562 179.472656 531.578125 180.707031 532.078125 C 181.890625 532.523438 180.945312 538.179688 177.605469 547.753906 C 174.265625 557.273438 168.476562 570.582031 161.351562 586.835938 C 154.195312 603.09375 145.648438 622.292969 138.019531 644.042969 C 130.65625 665.375 123.6875 689.859375 124.976562 714.375 C 128.445312 725.578125 132.179688 735.992188 137.441406 745.066406 C 143.175781 754.796875 150.644531 762.6875 159.535156 768.394531 C 159.640625 768.449219 159.691406 768.5 159.824219 768.554688 C 163.269531 770.554688 166.769531 772.367188 170.292969 774.050781 C 171.871094 774.734375 173.527344 775.417969 175.105469 776.101562 C 177.816406 777.339844 180.417969 778.234375 182.96875 779.101562 C 185.519531 779.941406 188.070312 780.785156 190.570312 781.703125 C 211.007812 787.78125 231.101562 790.648438 249.617188 792.355469 C 248.882812 791.910156 248.09375 791.515625 247.304688 791.09375 C 245.882812 790.382812 244.488281 789.621094 243.070312 788.832031 C 241.753906 787.886719 240.464844 786.859375 239.148438 785.886719 C 237.859375 784.886719 236.492188 784.019531 235.363281 782.886719 L 232.074219 779.335938 C 229.761719 777.128906 228.285156 774.394531 226.707031 771.84375 C 220.6875 761.425781 218.660156 751.167969 217.136719 742.277344 C 214.53125 724.394531 214.53125 710.296875 214.453125 700.433594 C 214.582031 690.597656 215.242188 685.101562 216.554688 684.96875 C 217.925781 684.808594 219.6875 690.070312 221.816406 699.644531 C 224.15625 709.113281 226.289062 723.261719 230.363281 739.570312 C 232.523438 747.671875 235.308594 756.269531 240.070312 763.347656 C 244.832031 770.449219 252.117188 775.3125 262.03125 778.46875 C 271.761719 781.652344 283.441406 783.519531 295.511719 784.757812 C 301.378906 785.492188 307.902344 785.964844 314.371094 786.570312 C 320.527344 787.148438 327.101562 787.359375 333.625 787.832031 C 385.992188 790.9375 433.570312 787.492188 467.894531 783.863281 C 490.984375 781.308594 508.316406 777.46875 525.152344 760.53125 C 532.960938 752.589844 539.460938 743.75 544.613281 734.652344 C 555.214844 716.6875 561.5 698.855469 566.128906 684.074219 C 575.308594 654.40625 576.726562 635.890625 578.992188 635.890625 C 580.699219 635.8125 583.066406 654.957031 576.625 686.730469 C 573.230469 702.539062 568.074219 721.605469 557.582031 741.832031 C 552.558594 751.984375 545.824219 762.242188 536.988281 771.921875 C 536.460938 772.472656 535.855469 773.050781 535.328125 773.65625 C 535.910156 773.550781 536.511719 773.5 537.144531 773.445312 C 541.5625 772.527344 546.035156 771.632812 550.558594 770.710938 C 555.054688 769.871094 559.632812 768.976562 564.207031 768.054688 L 571.125 766.6875 L 572.835938 766.34375 L 573.28125 766.292969 C 573.335938 766.238281 574.070312 766.027344 574.070312 766.027344 L 577.308594 765.109375 L 583.75 763.347656 L 590.089844 761.085938 C 594.402344 759.742188 598.320312 757.585938 602.449219 755.824219 C 610.550781 751.511719 618.179688 746.644531 624.703125 740.699219 C 631.226562 734.757812 636.695312 728.023438 641.296875 720.816406 C 645.71875 713.480469 649.058594 705.640625 651.660156 697.671875 C 654.027344 689.625 655.683594 681.46875 656.578125 673.371094 C 659.972656 640.703125 653.921875 610.21875 646.953125 585.757812 C 639.773438 561.195312 631.332031 541.992188 625.253906 528.789062 C 619.257812 515.71875 615.574219 508.222656 616.757812 507.484375 C 617.835938 506.882812 623.441406 512.71875 631.777344 525.160156 C 639.929688 537.523438 650.582031 556.433594 659.816406 581.578125 C 668.757812 606.667969 676.804688 638.492188 674.148438 675.078125 C 673.332031 684.179688 671.753906 693.542969 669.097656 702.933594 C 666.3125 712.214844 662.523438 721.554688 657.316406 730.445312 C 652.003906 739.28125 645.324219 747.511719 637.511719 754.796875 C 636.484375 755.773438 635.355469 756.613281 634.222656 757.585938 L 639.195312 755.773438 L 640.507812 755.246094 L 641.113281 755.035156 L 641.402344 754.929688 L 643.507812 753.851562 C 646.796875 752.140625 650.53125 750.511719 653.398438 748.644531 C 655.949219 746.75 658.5 744.910156 661.101562 742.964844 C 663.496094 740.597656 665.863281 738.203125 668.257812 735.835938 C 670.175781 732.996094 672.335938 730.390625 674.148438 727.496094 C 681.277344 715.660156 684.722656 701.222656 685.695312 686.097656 Z M 648.425781 771.789062 C 648.425781 771.789062 648.375 771.789062 648.320312 771.84375 L 648.136719 771.921875 L 647.742188 772.027344 L 647.058594 772.238281 L 645.71875 772.710938 L 640.273438 774.628906 C 636.644531 775.917969 633.011719 777.179688 629.460938 778.417969 C 622.152344 780.46875 614.945312 782.492188 607.871094 784.546875 C 550.402344 798.589844 497.613281 799.589844 453.902344 800.222656 C 421.050781 805.824219 378.625 809.664062 332.546875 806.902344 C 325.785156 806.402344 319.238281 806.164062 312.558594 805.480469 C 311.636719 805.429688 310.792969 805.324219 309.953125 805.269531 C 297.039062 805.953125 282.46875 806.453125 266.292969 806.347656 C 263.742188 806.953125 260.269531 807.53125 255.691406 807.820312 C 245.382812 808.375 230.601562 807.585938 212.636719 804.246094 C 203.695312 802.484375 193.910156 800.328125 183.652344 797.039062 C 173.34375 793.828125 162.429688 789.804688 151.382812 784.019531 C 148.542969 782.679688 145.78125 781.152344 143.042969 779.335938 C 140.28125 777.628906 137.441406 775.917969 134.785156 773.734375 C 131.996094 771.683594 129.289062 769.578125 126.738281 766.871094 C 125.5 765.503906 124.132812 764.320312 122.898438 762.847656 L 119.503906 758.085938 C 118.242188 756.457031 117.242188 754.691406 116.558594 753.40625 C 115.742188 751.90625 115.007812 750.667969 114.21875 749.039062 C 112.640625 745.460938 110.957031 741.726562 109.984375 738.253906 C 107.667969 731.128906 106.355469 723.710938 105.960938 716.292969 C 105.90625 715.660156 105.90625 715.058594 105.90625 714.425781 C 104.089844 708.535156 102.277344 702.539062 100.410156 696.539062 C 99.382812 693.304688 98.488281 690.308594 97.359375 687.019531 C 96.226562 683.785156 95.097656 680.574219 93.9375 677.339844 C 88.96875 663.691406 85.285156 648.855469 84.261719 633.339844 C 83.261719 617.875 85.574219 601.960938 89.757812 586.941406 C 94.070312 571.949219 100.066406 558.117188 106.25 544.859375 C 112.402344 531.683594 118.769531 518.925781 125.105469 506.488281 C 137.890625 481.554688 150.855469 457.777344 164.296875 435.683594 C 191.019531 391.523438 219.054688 353.808594 246.460938 325.585938 C 263.847656 307.359375 280.730469 293.15625 295.777344 282.503906 C 303.535156 275.035156 313.6875 266.644531 325.128906 258.042969 C 326.363281 257.253906 327.601562 256.464844 328.863281 255.597656 C 327.890625 254.464844 326.863281 252.941406 326.757812 252.363281 L 326.363281 251.308594 L 325.785156 249.3125 L 325.234375 247.15625 C 324.390625 244.289062 323.867188 241.289062 322.683594 238.394531 C 318.84375 226.664062 312.265625 215.066406 303.535156 203.496094 C 299.25 197.65625 294.488281 191.949219 289.332031 185.820312 C 284.175781 179.953125 278.917969 173.828125 273.527344 167.59375 C 270.816406 164.488281 268.082031 161.253906 265.265625 158.097656 C 263.847656 156.28125 262.769531 155.308594 261.402344 154.074219 C 260.113281 152.8125 258.535156 151.628906 256.929688 150.3125 C 253.71875 147.839844 250.089844 145.238281 246.277344 142.210938 C 242.726562 139.1875 238.859375 135.875 235.597656 130.558594 L 235.519531 130.457031 C 233.996094 128.167969 232.363281 126.035156 230.757812 121.90625 C 229.96875 119.75 229.179688 116.015625 230.601562 112.148438 C 231.285156 110.230469 232.179688 108.992188 233.101562 107.808594 C 233.890625 106.890625 234.835938 105.914062 235.46875 105.417969 C 236.097656 104.890625 236.597656 104.441406 237.175781 104.046875 C 235.203125 100.550781 233.152344 96.921875 231.390625 92.6875 C 229.863281 89.160156 228.679688 84.925781 228.445312 80.5625 C 228.550781 78.300781 228.339844 75.957031 228.917969 73.878906 C 229.46875 71.777344 230.050781 69.671875 230.707031 67.648438 C 234.285156 59.941406 238.992188 55.179688 243.621094 50.316406 C 246.121094 48.15625 248.566406 45.949219 251.039062 43.921875 C 253.640625 42.160156 256.273438 40.398438 258.796875 38.6875 C 269.289062 32.296875 279.757812 28.011719 289.492188 24.199219 C 299.195312 20.59375 308.296875 17.175781 317.027344 13.964844 C 334.703125 7.496094 351.296875 3.128906 366.34375 1.316406 C 370.078125 0.710938 373.761719 0.527344 377.335938 0.367188 C 380.886719 0.132812 384.359375 -0.132812 387.699219 0.078125 C 390.988281 0.183594 394.222656 0.316406 397.273438 0.421875 C 400.378906 0.816406 403.324219 1.210938 406.164062 1.550781 C 417.472656 3.207031 426.835938 5.96875 434.253906 8.625 C 441.777344 11.179688 447.378906 13.886719 451.875 15.832031 C 452.191406 15.992188 452.480469 16.121094 452.769531 16.28125 C 467.65625 19.382812 481.464844 23.59375 494.0625 28.695312 C 497.613281 30.273438 501.296875 31.746094 504.53125 33.324219 C 506.109375 34.164062 507.6875 34.953125 509.292969 35.769531 L 510.476562 36.324219 L 511.027344 36.613281 L 511.210938 36.71875 L 511.554688 36.902344 L 511.605469 36.902344 L 511.949219 37.113281 L 514.367188 38.769531 C 521.074219 42.554688 526.730469 49 529.621094 55.96875 C 531.253906 59.492188 531.699219 63.097656 532.226562 66.570312 C 532.226562 66.804688 532.226562 66.964844 532.226562 67.199219 C 536.066406 72.511719 540.878906 77.851562 547.902344 83.847656 C 551.875 87.347656 556.398438 91.132812 560.921875 96.472656 C 563.261719 99.128906 565.339844 102.363281 567.15625 106.046875 C 568.734375 109.886719 569.996094 114.304688 569.941406 118.777344 C 569.996094 127.957031 566.65625 135.769531 562.734375 143.921875 C 558.265625 151.734375 552.375 158.941406 545.691406 165.621094 C 539.066406 172.195312 531.832031 178.535156 524.808594 185.160156 C 517.945312 191.710938 511.105469 199.757812 503.6875 207.648438 C 491.667969 221.511719 479.042969 237.1875 464.894531 253.964844 C 468.734375 256.042969 472.417969 258.148438 475.992188 260.304688 C 488.777344 267.960938 499.875 275.375 509.003906 281.925781 C 520.390625 290.15625 528.703125 296.941406 532.960938 301.414062 C 542.929688 308.09375 553.398438 315.75 564.050781 324.980469 C 566.207031 326.847656 568.417969 328.664062 570.625 330.53125 C 572.597656 332.503906 574.625 334.421875 576.675781 336.472656 C 578.699219 338.445312 580.804688 340.5 582.910156 342.523438 L 586.011719 345.601562 L 586.40625 345.996094 L 586.878906 346.496094 L 587.089844 346.730469 L 587.828125 347.574219 L 589.300781 349.335938 C 597.296875 358.488281 605.265625 368.457031 612.578125 379.398438 C 627.359375 401.148438 640.5625 426.058594 651.425781 453.359375 C 662.523438 480.527344 671.648438 509.878906 679.699219 540.519531 C 683.695312 555.75 687.5625 571.425781 691.296875 587.179688 C 695.03125 602.800781 699.003906 619.292969 701.660156 636.101562 C 704.316406 653.039062 705.789062 670.132812 704.660156 687.414062 C 703.476562 704.511719 699.398438 722.078125 690.167969 737.253906 C 687.800781 740.9375 684.957031 744.382812 682.40625 747.960938 C 679.410156 751.117188 676.175781 754.140625 673.070312 757.113281 C 669.492188 759.847656 665.707031 762.398438 662.023438 764.898438 C 658.445312 767.027344 655.160156 768.394531 651.765625 770.160156 L 649.214844 771.394531 C 648.769531 771.578125 648.53125 771.683594 648.425781 771.789062 " fill-opacity="1" fill-rule="nonzero"/><path fill="#000000" d="M 573.386719 766.132812 L 573.386719 766.1875 L 573.335938 766.238281 L 573.175781 766.238281 C 573.230469 766.1875 573.335938 766.132812 573.386719 766.132812 " fill-opacity="1" fill-rule="nonzero"/><path fill="#000000" d="M 506.054688 607.0625 C 506.054688 603.039062 505.765625 599.015625 505.265625 595.042969 C 500.164062 556.039062 473.996094 533.789062 439.410156 519.609375 C 437.488281 518.875 436.621094 517.191406 436.566406 515.535156 C 436.066406 514.691406 435.882812 513.5625 436.410156 512.324219 C 441.617188 499.515625 436.359375 488.574219 436.066406 475.792969 C 435.832031 463.089844 438.09375 450.804688 436.410156 438.078125 C 435.9375 434.550781 439.355469 432.394531 441.882812 432.867188 C 443.539062 432.449219 445.300781 432.921875 446.300781 434.839844 C 452.585938 446.570312 456.320312 462.351562 466.421875 471.585938 C 480.726562 484.683594 496.667969 473.398438 491.957031 454.882812 C 487.882812 438.8125 478.414062 424.636719 465.34375 414.40625 C 458.871094 409.355469 451.742188 405.277344 444.167969 402.097656 C 441.488281 401.019531 436.855469 400.230469 435.199219 397.574219 C 433.226562 394.417969 435.542969 390.101562 436.359375 386.972656 C 437.59375 382.238281 437.644531 376.6875 437.410156 371.796875 C 437.25 368.007812 436.960938 360.039062 433.726562 357.988281 C 432.648438 357.304688 422.234375 356.859375 422.285156 356.964844 C 423.363281 362.695312 420.601562 369.035156 420.890625 375.164062 C 421.15625 380.921875 422.367188 386.578125 422.8125 392.363281 C 423.101562 396.152344 419.128906 397.230469 416.527344 395.757812 C 416.34375 395.757812 416.183594 395.808594 416.027344 395.757812 C 409.320312 394.074219 402.296875 393.785156 395.90625 396.730469 C 393.011719 398.070312 390.410156 396.097656 389.671875 393.835938 C 389.332031 393.390625 389.121094 392.8125 388.988281 392.074219 C 387.59375 383.316406 389.515625 374.53125 387.015625 365.851562 C 386.121094 362.566406 384.753906 358.09375 380.492188 359.515625 C 376.496094 360.882812 376.496094 366.484375 376.3125 369.929688 C 375.96875 379.160156 378.230469 389.078125 376.417969 398.203125 C 376.3125 398.652344 357.980469 402.621094 355.875 403.515625 C 349.878906 406.121094 344.382812 409.75 339.566406 414.117188 C 329.890625 422.953125 323.261719 434.738281 319.449219 447.175781 C 311.871094 472.375 314.632812 502.332031 329.996094 524.136719 C 340.121094 538.523438 355.691406 547.699219 373.261719 549.515625 C 373.65625 549.570312 373.945312 549.699219 374.207031 549.804688 C 375.96875 550.199219 377.496094 551.4375 377.496094 553.777344 C 377.625 578.578125 378.808594 603.328125 378.914062 628.078125 C 378.914062 630.945312 376.601562 632.3125 374.339844 632.15625 C 373.8125 632.3125 373.261719 632.417969 372.578125 632.367188 C 361.714844 631.183594 355.429688 627.945312 351.007812 617.582031 C 346.644531 607.511719 351.007812 567.925781 328.285156 577.105469 C 297.644531 589.441406 296.117188 623.710938 317.527344 644.726562 C 328.628906 655.640625 341.4375 664.03125 355.035156 671.398438 C 360.398438 671.6875 365.554688 672.921875 370.605469 674.738281 C 371.105469 674.894531 371.445312 675.183594 371.789062 675.472656 C 373.3125 675.921875 374.601562 677.234375 374.679688 679.3125 C 375.074219 691.492188 379.492188 703.957031 378.179688 716.136719 C 377.890625 719.054688 376.652344 726.945312 379.203125 729.050781 C 379.992188 729.65625 382.886719 729.601562 383.832031 728.996094 C 386.386719 727.234375 384.703125 723.316406 384.597656 720.949219 C 384.464844 716.820312 385.042969 712.503906 384.910156 708.246094 C 384.648438 699.695312 383.78125 691.148438 384.121094 682.601562 C 384.175781 680.445312 385.992188 678.128906 388.382812 678.339844 C 397.429688 679.261719 406.503906 680.839844 415.683594 680.234375 C 423.207031 679.761719 428.363281 681.128906 428.179688 689.859375 C 428.019531 696.933594 427.125 703.957031 426.730469 711.03125 C 426.441406 715.609375 424.179688 725.472656 431.359375 723.839844 C 435.726562 722.816406 434.9375 719.34375 434.648438 715.898438 C 434.304688 711.664062 434.859375 707.351562 434.859375 703.039062 C 434.753906 695.121094 433.464844 687.363281 432.886719 679.417969 C 434.9375 678.867188 436.804688 678.289062 438.621094 677.734375 C 441.777344 676.816406 444.90625 675.921875 448.351562 675.34375 C 453.164062 674.554688 457.976562 672.921875 462.449219 671.105469 C 470.945312 667.765625 478.941406 662.953125 485.566406 656.667969 C 499.191406 643.753906 506.003906 625.683594 506.054688 607.0625 Z M 445.117188 512.929688 C 482.621094 529.183594 515.234375 558.0625 514.15625 602.511719 C 512.972656 651.066406 487.988281 678.917969 441.277344 685.046875 C 440.644531 685.101562 443.25 711.269531 443.433594 714.375 C 443.75 719.476562 445.117188 731.128906 438.039062 732.496094 C 434.304688 733.230469 430.230469 732.496094 426.441406 732.996094 C 416.683594 734.230469 417.945312 724.445312 417.945312 716.925781 C 417.894531 714.375 418.628906 688.441406 419.761719 688.257812 C 410.738281 689.335938 401.691406 688.257812 392.617188 687.308594 C 392.671875 699.300781 393.195312 711.425781 393.40625 723.421875 C 393.589844 730.839844 392.460938 737.308594 383.625 736.914062 C 380.28125 736.730469 372.867188 737.253906 370.523438 734.125 C 368.316406 731.179688 369.289062 723.710938 369.289062 720.160156 C 369.289062 714.714844 369.972656 709.269531 369.132812 703.828125 C 368.449219 699.828125 367.816406 695.804688 367.316406 691.78125 C 366.789062 687.863281 367.710938 683.179688 364.027344 681.523438 C 361.820312 680.574219 359.03125 681.234375 356.664062 680.785156 C 353.824219 680.15625 350.773438 678.8125 348.222656 677.394531 C 320.261719 661.429688 274.65625 626.816406 299.984375 590.519531 C 308.007812 579.078125 328.679688 558.640625 344.671875 570.136719 C 361.582031 582.417969 348.5625 618.664062 370.367188 623.371094 C 370.15625 601.382812 369.238281 579.367188 369.078125 557.328125 C 286.964844 544.308594 287.019531 405.859375 368.210938 391.234375 C 367.921875 384.449219 367.027344 377.636719 367.660156 370.851562 C 367.867188 368.195312 368.789062 365.984375 369.289062 363.484375 C 369.867188 360.777344 368.789062 358.042969 369.421875 355.386719 C 370.605469 350.570312 378.308594 351.886719 381.859375 351.992188 C 386.964844 352.097656 390.410156 353.808594 392.960938 358.488281 C 395.273438 362.855469 395.800781 368.0625 396.144531 372.875 C 396.195312 374.136719 397.222656 387.445312 396.878906 387.5 C 402.429688 385.921875 408.082031 385.738281 413.789062 386.65625 C 412.449219 372.21875 410.636719 346.441406 429.046875 348.308594 C 450.324219 350.519531 446.378906 377.347656 444.167969 393.046875 C 461.371094 399.675781 477.730469 410.09375 488.171875 425.664062 C 496.589844 438.417969 505.765625 457.488281 498.929688 472.847656 C 493.722656 484.628906 482.492188 489.3125 470.496094 484.683594 C 457.136719 479.527344 450.71875 465.195312 444.957031 451.988281 C 444.484375 459.933594 443.644531 467.851562 444.5625 475.792969 C 446.035156 488.8125 449.585938 500.410156 445.117188 512.929688 " fill-opacity="1" fill-rule="nonzero"/><path fill="#000000" d="M 443.75 633.390625 C 452.375 626.710938 458.265625 618.082031 457.476562 606.039062 C 456.792969 596.304688 454.007812 582.996094 443.25 581.445312 C 442.960938 598.777344 441.882812 616.164062 443.75 633.390625 Z M 465.789062 603.671875 C 467.050781 622.34375 457.871094 635.101562 442.644531 644.492188 C 440.488281 645.859375 436.855469 644.648438 436.410156 641.9375 C 433.015625 620.425781 434.699219 598.777344 434.859375 577.105469 C 434.859375 574.316406 437.09375 572.949219 439.222656 573.03125 C 439.460938 573.03125 439.566406 572.898438 439.804688 572.898438 C 457.1875 571.371094 464.710938 588.757812 465.789062 603.671875 " fill-opacity="1" fill-rule="nonzero"/><path fill="#000000" d="M 420.65625 471.636719 C 420.761719 461.695312 420.417969 451.59375 421.15625 441.628906 C 420.761719 441.574219 420.367188 441.523438 419.972656 441.339844 C 413 438.183594 405.480469 438.234375 398.011719 438.339844 C 401.457031 458.566406 399.773438 479.082031 399.484375 499.515625 C 405.820312 502.066406 412.449219 503.144531 419.234375 503.355469 C 419.472656 500.199219 420.078125 494.308594 420.207031 492.152344 C 420.496094 485.289062 420.601562 478.503906 420.65625 471.636719 Z M 429.835938 437.105469 C 430.730469 439.207031 429.441406 443.785156 429.308594 446.046875 C 428.652344 458.617188 429.308594 471.191406 428.992188 483.710938 C 428.757812 490.574219 432.78125 514.746094 420.550781 512.429688 C 415.84375 511.5625 410.976562 511.300781 406.269531 510.378906 C 402.769531 509.644531 399.140625 508.617188 395.75 507.382812 C 388.777344 504.828125 390.804688 500.699219 391.09375 494.363281 C 391.382812 487.839844 391.539062 481.34375 391.671875 474.820312 C 391.933594 461.800781 391.722656 448.730469 388.988281 435.972656 C 388.382812 433.078125 390.460938 431.160156 392.722656 430.765625 C 393.355469 430.265625 394.144531 429.921875 395.167969 429.921875 C 400.71875 429.871094 406.269531 429.792969 411.765625 430.527344 C 416.289062 431.160156 420.550781 433.261719 424.835938 434.65625 C 425.3125 434.789062 425.707031 434.894531 426.152344 435.050781 C 428.257812 435.683594 428.863281 434.789062 429.835938 437.105469 " fill-opacity="1" fill-rule="nonzero"/><path fill="#000000" d="M 417.761719 638.257812 C 417.132812 615.425781 413.394531 592.886719 415.5 570.136719 C 409.058594 567.425781 402.640625 564.402344 395.90625 562.71875 C 395.90625 581.394531 395.90625 621.949219 395.90625 636.335938 C 403.164062 637.074219 410.449219 637.46875 417.761719 638.257812 Z M 426.308594 640.808594 C 426.363281 641.542969 426.207031 642.097656 425.96875 642.675781 C 426.441406 645.042969 425.179688 647.59375 422.074219 647.199219 C 416.578125 646.464844 411.082031 646.070312 405.53125 645.675781 C 399.984375 645.226562 393.984375 644.9375 388.777344 642.675781 C 383.78125 640.464844 384.308594 635.101562 384.597656 630.601562 C 385.042969 623.082031 384.597656 615.425781 384.597656 607.90625 C 384.597656 598.515625 384.597656 589.152344 384.597656 579.816406 C 384.597656 575.105469 384.597656 570.476562 384.597656 565.769531 C 384.597656 561.984375 383.097656 552.410156 389.566406 553.09375 C 396.933594 553.777344 403.953125 556.300781 410.738281 559.089844 C 415.289062 560.90625 421.628906 561.457031 423.890625 566.507812 C 424.628906 568.214844 424.523438 569.847656 424.234375 571.503906 C 423.996094 572.636719 423.707031 573.765625 423.652344 574.949219 C 423.3125 579.261719 423.3125 583.601562 423.363281 587.914062 C 423.652344 605.589844 426.046875 623.1875 426.308594 640.808594 " fill-opacity="1" fill-rule="nonzero"/><path fill="#000000" d="M 368.15625 489.257812 C 367.867188 476.082031 367.210938 462.878906 366.972656 449.726562 C 354.507812 459.011719 356.664062 479.292969 368.15625 489.257812 Z M 377.546875 494.125 C 377.96875 496.28125 378.230469 498.28125 378.179688 500.804688 C 374.601562 502.277344 368.789062 498.886719 365.554688 497.464844 C 362.320312 496.046875 359.847656 493.179688 357.691406 490.390625 C 353.5625 484.894531 351.007812 478.210938 350.378906 471.375 C 349.0625 457.144531 356.480469 443.730469 370.027344 438.523438 C 373.550781 437.15625 375.574219 440.679688 374.96875 443.574219 C 375.179688 444.125 375.363281 444.757812 375.363281 445.441406 C 375.46875 455.410156 375.863281 465.246094 376.257812 475.160156 C 376.417969 480.078125 375.8125 485.707031 376.757812 490.496094 C 377.046875 491.808594 377.285156 492.992188 377.546875 494.125 " fill-opacity="1" fill-rule="nonzero"/></svg>