<svg xmlns="http://www.w3.org/2000/svg" xmlns:xlink="http://www.w3.org/1999/xlink" width="1080" viewBox="0 0 810 809.999993" height="1080" preserveAspectRatio="xMidYMid meet"><path stroke-linecap="butt" transform="matrix(0.421875, 0, 0, 0.421875, 0.0000035, 177.187511)" fill-opacity="1" fill="#ffffff" fill-rule="nonzero" stroke-linejoin="miter" d="M 853.750035 154.999982 L 820.268551 264.916654 C 819.759292 266.601839 820.129663 268.425913 821.250033 269.787024 L 881.70374 342.537028 L 984.601893 433.879625 L 993.250042 478.203701 C 993.740782 480.694442 995.907449 482.444442 998.351894 482.444442 C 998.694486 482.444442 999.02782 482.398146 999.370412 482.333331 C 1002.194487 481.777776 1004.02782 479.027776 1003.481524 476.175924 L 985.722264 385.231475 L 1018.463006 353.805547 C 1019.648191 352.675917 1020.231525 351.037028 1020.027821 349.398139 L 1015.861154 314.277767 C 1015.861154 314.259249 1015.861154 314.259249 1015.861154 314.24073 L 1003.759301 212.277762 L 1087.898195 83.462941 C 1089.481528 81.046274 1088.805602 77.796274 1086.407454 76.2222 C 1084.018565 74.620348 1080.777824 75.296274 1079.20375 77.712941 L 994.009301 208.129614 C 993.333375 209.148132 993.046338 210.388873 993.194486 211.620355 L 1004.555598 307.472211 L 947.99078 290.157396 L 936.222261 179.990724 L 948.351891 81.231459 C 948.703743 78.379607 946.675965 75.759237 943.824113 75.398126 C 941.009298 75.083311 938.370409 77.101829 938.018557 79.962941 L 925.824112 179.324057 C 925.768557 179.703686 925.768557 180.111094 925.805594 180.509242 L 938.000039 294.722211 C 938.222261 296.805544 939.657446 298.574063 941.657446 299.166655 L 1005.89819 318.824064 L 1009.370413 348.037028 L 976.463004 379.629622 C 975.166707 380.861104 974.601893 382.66666 974.953744 384.41666 L 981.305597 417.009254 L 889.148185 335.296287 L 831.055589 265.268506 L 864.824109 154.462944 C 865.472257 152.305537 864.69448 149.990722 862.870405 148.666648 L 800.703736 104.083312 C 798.361143 102.416646 795.101884 102.953683 793.425958 105.287016 C 791.759291 107.648127 792.296328 110.907387 794.638921 112.592572 Z M 853.750035 154.999982 " stroke="#010202" stroke-width="0.25" stroke-opacity="1" stroke-miterlimit="4"></path><path stroke-linecap="butt" transform="matrix(0.421875, 0, 0, 0.421875, 0.0000035, 177.187511)" fill-opacity="1" fill="#ffffff" fill-rule="nonzero" stroke-linejoin="miter" d="M 1468.175991 473.916664 C 1466.379695 471.638886 1463.101917 471.296294 1460.861176 473.111109 L 1376.018579 541.611112 L 1316.60191 523.203704 L 1322.879688 486.592591 L 1380.861172 460.111108 C 1382.203765 459.490738 1383.231543 458.342589 1383.675987 456.916663 L 1432.009323 304.129619 C 1432.879693 301.3611 1431.361175 298.425915 1428.620434 297.546285 C 1425.805619 296.629618 1422.944508 298.212952 1422.074137 300.962952 L 1374.444505 451.527774 L 1316.055613 478.203701 C 1314.490799 478.898146 1313.379687 480.370368 1313.083391 482.074072 L 1296.657464 577.805558 L 1206.888941 594.42593 C 1205.888941 594.620374 1204.972275 595.092596 1204.240793 595.787041 L 1139.101901 658.129636 L 997.472264 672.768526 C 996.89819 671.407415 996.157449 670.129637 995.379671 668.898156 L 1049.851896 600.166671 L 1169.953754 559.51852 C 1170.777828 559.240743 1171.518569 558.76852 1172.111162 558.120372 L 1223.185238 502.666666 C 1225.138942 500.555554 1225.009313 497.240739 1222.898201 495.277776 C 1220.777831 493.324073 1217.500053 493.425924 1215.53709 495.555554 L 1165.361161 550.027779 L 1061.824119 585.092596 L 1068.342638 576.851855 L 1130.046345 474.111109 C 1130.48153 473.388886 1130.740789 472.555553 1130.787086 471.703701 L 1136.898197 370.129622 L 1237.17598 334.287028 C 1239.259313 333.537028 1240.638943 331.592583 1240.638943 329.370361 L 1240.638943 230.824059 C 1240.638943 227.916652 1238.30561 225.583318 1235.42598 225.583318 C 1232.54635 225.583318 1230.222276 227.916652 1230.222276 230.824059 L 1230.222276 325.666657 L 1132.435234 360.620362 L 1062.222267 319.518508 L 1088.490787 240.361097 C 1089.398195 237.638875 1087.916713 234.648134 1085.20375 233.740726 C 1082.463009 232.796282 1079.509305 234.32406 1078.601898 237.055541 L 1051.000045 320.240731 C 1050.231526 322.583323 1051.18523 325.175916 1053.324119 326.407398 L 1126.527826 369.259252 L 1120.47227 469.787034 L 1059.805601 570.888891 L 988.13893 661.250007 C 987.907449 661.101859 987.703745 660.925933 987.463004 660.777785 L 1019.796339 566.324076 C 1020.120413 565.39815 1020.16671 564.425928 1019.963006 563.490743 L 1003.453746 488.777776 C 1002.833375 485.953702 1000.018561 484.157405 997.240783 484.796294 C 994.425968 485.444443 992.657449 488.23148 993.277819 491.055554 L 1009.481524 564.296298 L 977.796337 656.851859 C 976.157448 656.527785 974.472263 656.342599 972.740781 656.342599 C 972.62967 656.342599 972.518559 656.361118 972.407448 656.361118 L 934.61115 552.740742 C 934.601891 552.722224 934.601891 552.722224 934.592631 552.703705 L 898.407444 453.527774 C 897.787074 451.851848 896.361148 450.592589 894.611148 450.212959 L 843.861145 439.305551 L 830.398182 352.39814 C 830.000033 349.851843 827.824107 347.972213 825.250033 347.972213 L 747.6204 347.972213 L 714.527805 237.203689 C 713.703731 234.425911 710.84262 232.879615 708.037064 233.69443 C 705.287064 234.518504 703.722249 237.44443 704.546323 240.20369 L 738.750029 354.712955 C 739.407436 356.916658 741.444473 358.425918 743.74077 358.425918 L 820.78707 358.425918 L 834.111145 444.462959 C 834.444478 446.611107 836.055589 448.305552 838.166701 448.777774 L 889.611148 459.83333 L 922.092631 548.870372 L 793.51855 542.287038 L 726.046325 467.851849 C 725.629658 467.379627 725.120399 466.999997 724.574102 466.722219 C 664.212988 435.768514 597.370392 399.555549 589.462984 391.879623 C 589.129651 384.749993 599.51854 351.499991 609.722245 323.675916 C 610.666689 321.083323 609.472245 318.212953 606.972244 317.083323 L 545.592612 289.370359 C 542.944463 288.157396 539.879648 289.35184 538.703723 291.990729 C 537.518537 294.629618 538.694463 297.740729 541.324093 298.907396 L 598.26854 324.638879 C 589.26854 349.51851 576.574095 387.53703 579.703725 395.91666 C 582.26854 402.731475 629.129653 429.527773 718.990769 475.59259 L 758.574104 519.25 L 677.027804 521.527778 L 626.28706 478.916664 C 625.425949 478.203701 624.361134 477.768516 623.240764 477.712961 L 525.250018 472.157405 L 493.074091 364.842585 C 492.240757 362.074066 489.351868 360.499992 486.58335 361.333325 C 483.833349 362.157399 482.259275 365.101844 483.101868 367.861103 L 516.333351 478.694442 C 516.962981 480.796294 518.84261 482.268517 521.027796 482.388887 L 620.944467 488.074072 L 671.879655 530.833334 C 672.8241 531.620371 674.000026 532.055556 675.222248 532.055556 C 675.268544 532.055556 675.3241 532.055556 675.361137 532.037038 L 767.842623 529.462963 L 787.287068 550.916668 C 788.222254 551.944446 789.500031 552.537039 790.879661 552.620372 L 926.009298 559.51852 L 962.12041 658.518525 C 961.351892 658.861118 960.648188 659.305562 959.916707 659.71297 L 917.518556 611.972227 C 916.416704 610.740745 914.805593 610.120375 913.138927 610.250004 L 821.388922 619.018523 L 746.259289 577.675929 C 745.805585 577.453706 745.333363 577.259262 744.824103 577.148151 L 612.5278 549.444446 C 609.740763 548.870372 606.962985 550.64815 606.370393 553.481483 C 605.7778 556.305557 607.592615 559.083335 610.40743 559.666669 L 741.944473 587.231485 L 817.777811 629.000005 C 818.694477 629.490746 819.722255 629.703709 820.768552 629.620376 L 911.481519 620.944449 L 951.898188 666.472229 C 950.796336 667.833341 949.851891 669.277785 949.027817 670.851859 L 808.500032 646.972228 C 807.759292 646.842599 806.972255 646.879636 806.222254 647.08334 L 709.444472 674.453711 L 596.583355 647.027784 C 593.777799 646.351858 590.972244 648.07408 590.287058 650.879636 C 589.611132 653.694451 591.333355 656.518525 594.129651 657.20371 L 708.305583 684.925934 C 709.194472 685.138897 710.083361 685.120379 710.944472 684.888897 L 807.89818 657.472229 L 946.055595 680.953712 C 945.99078 681.759267 945.824113 682.518527 945.824113 683.333341 L 945.824113 787.712976 C 945.824113 802.629644 957.861151 814.722237 972.713004 814.722237 C 987.546338 814.722237 999.601894 802.629644 999.601894 787.712976 L 999.601894 683.342601 C 999.601894 683.250008 999.583375 683.166675 999.583375 683.083341 L 1093.58338 673.370378 L 1176.537088 693.675935 C 1176.944495 693.768527 1177.361162 693.833342 1177.768569 693.833342 C 1177.907458 693.833342 1178.027829 693.833342 1178.166718 693.805564 L 1291.000057 685.055564 C 1293.870427 684.85186 1296.009316 682.305564 1295.787094 679.444452 C 1295.574131 676.546304 1292.972279 674.351859 1290.20376 674.629637 L 1178.194495 683.305564 L 1124.518567 670.148156 L 1141.916716 668.361118 C 1143.083383 668.231489 1144.138938 667.740748 1144.981531 666.925933 L 1210.27783 604.444449 L 1302.09265 587.425929 C 1304.240798 587.027781 1305.907465 585.324077 1306.277835 583.16667 L 1314.787095 533.574075 L 1375.574135 552.38889 C 1376.083394 552.537039 1376.592654 552.620372 1377.111172 552.620372 C 1378.287098 552.620372 1379.444506 552.222224 1380.370432 551.472224 L 1467.361177 481.231479 C 1469.629695 479.453702 1469.990806 476.148146 1468.175991 473.916664 Z M 1468.175991 473.916664 " stroke="#010202" stroke-width="0.25" stroke-opacity="1" stroke-miterlimit="4"></path><path stroke-linecap="butt" transform="matrix(0.421875, 0, 0, 0.421875, 0.0000035, 177.187511)" fill-opacity="1" fill="#cfb539" fill-rule="nonzero" stroke-linejoin="miter" d="M 1263.046352 223.046281 C 1263.046352 238.370356 1250.675981 250.777764 1235.453758 250.777764 C 1220.203757 250.777764 1207.851904 238.370356 1207.851904 223.046281 C 1207.851904 207.749984 1220.203757 195.324058 1235.453758 195.324058 C 1250.675981 195.305539 1263.046352 207.740725 1263.046352 223.046281 Z M 1263.046352 223.046281 " stroke="#010202" stroke-width="0.25" stroke-opacity="1" stroke-miterlimit="10"></path><path stroke-linecap="butt" transform="matrix(0.421875, 0, 0, 0.421875, 0.0000035, 177.187511)" fill-opacity="1" fill="#cfb539" fill-rule="nonzero" stroke-linejoin="miter" d="M 1263.046352 330.25925 C 1263.046352 345.555547 1250.675981 357.972214 1235.453758 357.972214 C 1220.203757 357.972214 1207.851904 345.555547 1207.851904 330.25925 C 1207.851904 314.962953 1220.203757 302.518507 1235.453758 302.518507 C 1250.675981 302.527767 1263.046352 314.962953 1263.046352 330.25925 Z M 1263.046352 330.25925 " stroke="#010202" stroke-width="0.25" stroke-opacity="1" stroke-miterlimit="10"></path><path stroke-linecap="butt" transform="matrix(0.421875, 0, 0, 0.421875, 0.0000035, 177.187511)" fill-opacity="1" fill="#cfb539" fill-rule="nonzero" stroke-linejoin="miter" d="M 1025.953747 482.962961 C 1025.953747 498.259258 1013.601895 510.666666 998.361153 510.666666 C 983.111152 510.666666 970.768559 498.259258 970.768559 482.962961 C 970.768559 467.657405 983.101893 455.231478 998.361153 455.231478 C 1013.601895 455.231478 1025.953747 467.657405 1025.953747 482.962961 Z M 1025.953747 482.962961 " stroke="#010202" stroke-width="0.25" stroke-opacity="1" stroke-miterlimit="10"></path><path stroke-linecap="butt" transform="matrix(0.421875, 0, 0, 0.421875, 0.0000035, 177.187511)" fill-opacity="1" fill="#cfb539" fill-rule="nonzero" stroke-linejoin="miter" d="M 1442.92599 294.157396 C 1442.92599 309.481471 1430.54636 321.888879 1415.333396 321.888879 C 1400.083395 321.888879 1387.750062 309.481471 1387.750062 294.157396 C 1387.750062 278.861099 1400.083395 266.453691 1415.333396 266.453691 C 1430.537101 266.453691 1442.92599 278.861099 1442.92599 294.157396 Z M 1442.92599 294.157396 " stroke="#010202" stroke-width="0.25" stroke-opacity="1" stroke-miterlimit="10"></path><path stroke-linecap="butt" transform="matrix(0.421875, 0, 0, 0.421875, 0.0000035, 177.187511)" fill-opacity="1" fill="#cfb539" fill-rule="nonzero" stroke-linejoin="miter" d="M 622.944467 652.120377 C 622.944467 667.444452 610.592615 679.85186 595.361133 679.85186 C 580.111132 679.85186 567.75928 667.444452 567.75928 652.120377 C 567.75928 636.82408 580.120391 624.407413 595.361133 624.407413 C 610.592615 624.398153 622.944467 636.805561 622.944467 652.120377 Z M 622.944467 652.120377 " stroke="#010202" stroke-width="0.25" stroke-opacity="1" stroke-miterlimit="10"></path><path stroke-linecap="butt" transform="matrix(0.421875, 0, 0, 0.421875, 0.0000035, 177.187511)" fill-opacity="1" fill="#cfb539" fill-rule="nonzero" stroke-linejoin="miter" d="M 632.407431 554.574076 C 632.407431 569.888891 620.046319 582.296299 604.833355 582.296299 C 589.583355 582.296299 577.231502 569.888891 577.231502 554.574076 C 577.231502 539.268519 589.583355 526.861111 604.833355 526.861111 C 620.046319 526.851852 632.407431 539.25926 632.407431 554.574076 Z M 632.407431 554.574076 " stroke="#010202" stroke-width="0.25" stroke-opacity="1" stroke-miterlimit="10"></path><path stroke-linecap="butt" transform="matrix(0.421875, 0, 0, 0.421875, 0.0000035, 177.187511)" fill-opacity="1" fill="#cfb539" fill-rule="nonzero" stroke-linejoin="miter" d="M 508.203721 366.361103 C 508.203721 381.6574 495.842609 394.092586 480.611127 394.092586 C 465.370385 394.092586 453.009274 381.6574 453.009274 366.361103 C 453.009274 351.027769 465.370385 338.620361 480.611127 338.620361 C 495.851869 338.62962 508.203721 351.037028 508.203721 366.361103 Z M 508.203721 366.361103 " stroke="#010202" stroke-width="0.25" stroke-opacity="1" stroke-miterlimit="10"></path><path stroke-linecap="butt" transform="matrix(0.421875, 0, 0, 0.421875, 0.0000035, 177.187511)" fill-opacity="1" fill="#cfb539" fill-rule="nonzero" stroke-linejoin="miter" d="M 563.388909 294.157396 C 563.388909 309.481471 551.027797 321.888879 535.796315 321.888879 C 520.555573 321.888879 508.203721 309.481471 508.203721 294.157396 C 508.203721 278.861099 520.555573 266.453691 535.796315 266.453691 C 551.027797 266.453691 563.388909 278.861099 563.388909 294.157396 Z M 563.388909 294.157396 " stroke="#010202" stroke-width="0.25" stroke-opacity="1" stroke-miterlimit="10"></path><path stroke-linecap="butt" transform="matrix(0.421875, 0, 0, 0.421875, 0.0000035, 177.187511)" fill-opacity="1" fill="#cfb539" fill-rule="nonzero" stroke-linejoin="miter" d="M 730.388917 223.046281 C 730.388917 238.370356 718.018546 250.777764 702.787064 250.777764 C 687.546323 250.777764 675.203729 238.370356 675.203729 223.046281 C 675.203729 207.749984 687.546323 195.324058 702.787064 195.324058 C 718.018546 195.305539 730.388917 207.740725 730.388917 223.046281 Z M 730.388917 223.046281 " stroke="#010202" stroke-width="0.25" stroke-opacity="1" stroke-miterlimit="10"></path><path stroke-linecap="butt" transform="matrix(0.421875, 0, 0, 0.421875, 0.0000035, 177.187511)" fill-opacity="1" fill="#cfb539" fill-rule="nonzero" stroke-linejoin="miter" d="M 1246.972277 499.120369 C 1246.972277 514.453703 1234.620424 526.851852 1219.379683 526.851852 C 1204.1482 526.851852 1191.787089 514.444444 1191.787089 499.120369 C 1191.787089 483.824072 1204.1482 471.407405 1219.379683 471.407405 C 1234.620424 471.398146 1246.972277 483.805554 1246.972277 499.120369 Z M 1246.972277 499.120369 " stroke="#010202" stroke-width="0.25" stroke-opacity="1" stroke-miterlimit="10"></path><path stroke-linecap="butt" transform="matrix(0.421875, 0, 0, 0.421875, 0.0000035, 177.187511)" fill-opacity="1" fill="#cfb539" fill-rule="nonzero" stroke-linejoin="miter" d="M 1111.148196 238.712949 C 1111.148196 254.009246 1098.777825 266.444432 1083.546343 266.444432 C 1068.305601 266.444432 1055.953749 254.009246 1055.953749 238.712949 C 1055.953749 223.407392 1068.305601 210.999984 1083.546343 210.999984 C 1098.777825 210.999984 1111.148196 223.407392 1111.148196 238.712949 Z M 1111.148196 238.712949 " stroke="#010202" stroke-width="0.25" stroke-opacity="1" stroke-miterlimit="10"></path><path stroke-linecap="butt" transform="matrix(0.421875, 0, 0, 0.421875, 0.0000035, 177.187511)" fill-opacity="1" fill="#cfb539" fill-rule="nonzero" stroke-linejoin="miter" d="M 852.842627 266.453691 C 852.842627 281.749988 840.509293 294.157396 825.259292 294.157396 C 810.018551 294.157396 797.657439 281.749988 797.657439 266.453691 C 797.657439 251.120357 810.018551 238.722208 825.259292 238.722208 C 840.500034 238.712949 852.842627 251.120357 852.842627 266.453691 Z M 852.842627 266.453691 " stroke="#010202" stroke-width="0.25" stroke-opacity="1" stroke-miterlimit="10"></path><path stroke-linecap="butt" transform="matrix(0.421875, 0, 0, 0.421875, 0.0000035, 177.187511)" fill-opacity="1" fill="#cfb539" fill-rule="nonzero" stroke-linejoin="miter" d="M 1111.148196 80.59257 C 1111.148196 95.916645 1098.777825 108.324053 1083.546343 108.324053 C 1068.305601 108.324053 1055.953749 95.907386 1055.953749 80.59257 C 1055.953749 65.287014 1068.305601 52.879606 1083.546343 52.879606 C 1098.777825 52.870347 1111.148196 65.277755 1111.148196 80.59257 Z M 1111.148196 80.59257 " stroke="#010202" stroke-width="0.25" stroke-opacity="1" stroke-miterlimit="10"></path><path stroke-linecap="butt" transform="matrix(0.421875, 0, 0, 0.421875, 0.0000035, 177.187511)" fill-opacity="1" fill="#cfb539" fill-rule="nonzero" stroke-linejoin="miter" d="M 743.750029 471.398146 C 743.750029 486.703702 731.388917 499.11111 716.157435 499.11111 C 700.925953 499.11111 688.555582 486.703702 688.555582 471.398146 C 688.555582 456.08333 700.925953 443.666663 716.157435 443.666663 C 731.388917 443.666663 743.750029 456.08333 743.750029 471.398146 Z M 743.750029 471.398146 " stroke="#010202" stroke-width="0.25" stroke-opacity="1" stroke-miterlimit="10"></path><path stroke-linecap="butt" transform="matrix(0.421875, 0, 0, 0.421875, 0.0000035, 177.187511)" fill-opacity="1" fill="#cfb539" fill-rule="nonzero" stroke-linejoin="miter" d="M 825.250033 108.324053 C 825.250033 123.62035 812.898181 136.055536 797.64818 136.055536 C 782.407438 136.055536 770.055586 123.62961 770.055586 108.324053 C 770.055586 93.009238 782.407438 80.59257 797.64818 80.59257 C 812.898181 80.59257 825.250033 93.018497 825.250033 108.324053 Z M 825.250033 108.324053 " stroke="#010202" stroke-width="0.25" stroke-opacity="1" stroke-miterlimit="10"></path><path stroke-linecap="butt" transform="matrix(0.421875, 0, 0, 0.421875, 0.0000035, 177.187511)" fill-opacity="1" fill="#cfb539" fill-rule="nonzero" stroke-linejoin="miter" d="M 970.768559 60.638866 C 970.768559 75.944422 958.388929 88.35183 943.166706 88.35183 C 927.916705 88.35183 915.583371 75.944422 915.583371 60.638866 C 915.583371 45.32405 927.916705 32.907383 943.166706 32.907383 C 958.398188 32.907383 970.768559 45.32405 970.768559 60.638866 Z M 970.768559 60.638866 " stroke="#010202" stroke-width="0.25" stroke-opacity="1" stroke-miterlimit="10"></path><path stroke-linecap="butt" transform="matrix(0.421875, 0, 0, 0.421875, 0.0000035, 177.187511)" fill-opacity="1" fill="#cfb539" fill-rule="nonzero" stroke-linejoin="miter" d="M 1318.22228 679.85186 C 1318.22228 695.148157 1305.870428 707.555565 1290.629686 707.555565 C 1275.379685 707.555565 1263.046352 695.148157 1263.046352 679.85186 C 1263.046352 664.518526 1275.379685 652.120377 1290.629686 652.120377 C 1305.870428 652.120377 1318.22228 664.527785 1318.22228 679.85186 Z M 1318.22228 679.85186 " stroke="#010202" stroke-width="0.25" stroke-opacity="1" stroke-miterlimit="10"></path><path stroke-linecap="butt" transform="matrix(0.421875, 0, 0, 0.421875, 0.0000035, 177.187511)" fill-opacity="1" fill="#cfb539" fill-rule="nonzero" stroke-linejoin="miter" d="M 1510.407475 471.398146 C 1510.407475 486.703702 1498.046363 499.11111 1482.82414 499.11111 C 1467.57414 499.11111 1455.231546 486.703702 1455.231546 471.398146 C 1455.231546 456.08333 1467.57414 443.666663 1482.82414 443.666663 C 1498.046363 443.666663 1510.407475 456.08333 1510.407475 471.398146 Z M 1510.407475 471.398146 " stroke="#010202" stroke-width="0.25" stroke-opacity="1" stroke-miterlimit="10"></path><path fill="#d1b73b" d="M 75.761719 596.167969 C 65.304688 596.167969 57.335938 592.144531 51.851562 584.09375 C 46.367188 576.046875 43.625 564.417969 43.625 549.230469 C 43.625 535.210938 46.375 524.285156 51.886719 516.449219 C 57.390625 508.617188 65.070312 504.703125 74.917969 504.703125 C 85.414062 504.703125 93.4375 508.628906 98.984375 516.484375 C 104.535156 524.339844 107.3125 535.5625 107.3125 550.144531 C 107.3125 564.730469 104.578125 576.050781 99.117188 584.097656 C 93.652344 592.148438 85.867188 596.167969 75.761719 596.167969 Z M 75.046875 524.429688 C 67.964844 524.429688 64.421875 532.78125 64.421875 549.492188 C 64.421875 560.253906 65.316406 567.4375 67.109375 571.042969 C 68.902344 574.644531 71.503906 576.441406 74.917969 576.441406 C 78.585938 576.441406 81.40625 574.640625 83.371094 571.042969 C 85.335938 567.433594 86.320312 560.378906 86.320312 549.878906 C 86.320312 532.914062 82.5625 524.429688 75.046875 524.429688 Z M 75.046875 524.429688 " fill-opacity="1" fill-rule="nonzero"></path><path fill="#d1b73b" d="M 121.890625 592.398438 L 121.890625 572.148438 C 128.109375 575.792969 133.335938 577.613281 137.574219 577.613281 C 140.039062 577.613281 141.976562 576.929688 143.402344 575.5625 C 144.828125 574.195312 145.542969 572.386719 145.542969 570.125 C 145.542969 568.390625 144.96875 566.765625 143.824219 565.246094 C 142.679688 563.726562 140.703125 561.882812 137.894531 559.710938 C 131.113281 554.5 126.199219 549.652344 123.152344 545.164062 C 120.113281 540.671875 118.589844 535.667969 118.589844 530.15625 C 118.589844 522.644531 120.941406 516.527344 125.652344 511.792969 C 130.359375 507.0625 136.445312 504.699219 143.921875 504.699219 C 149.453125 504.699219 154.9375 505.890625 160.378906 508.277344 L 160.378906 527.746094 C 154.550781 524.535156 149.820312 522.925781 146.191406 522.925781 C 143.769531 522.925781 141.863281 523.527344 140.460938 524.71875 C 139.054688 525.914062 138.355469 527.554688 138.355469 529.632812 C 138.355469 533.28125 141.613281 537.378906 148.136719 541.9375 C 152.023438 544.628906 155.96875 548.417969 159.960938 553.296875 C 163.957031 558.183594 165.957031 563.835938 165.957031 570.261719 C 165.957031 577.765625 163.339844 583.984375 158.117188 588.914062 C 152.894531 593.839844 146.261719 596.304688 138.226562 596.304688 C 132.734375 596.304688 127.292969 595 121.890625 592.398438 Z M 121.890625 592.398438 " fill-opacity="1" fill-rule="nonzero"></path><path fill="#d1b73b" d="M 180.722656 507.105469 L 200.351562 507.105469 L 200.351562 594.019531 L 180.722656 594.019531 Z M 180.722656 507.105469 " fill-opacity="1" fill-rule="nonzero"></path><path fill="#d1b73b" d="M 219.53125 507.105469 L 239.359375 507.105469 L 264.304688 557.242188 L 263.589844 547.867188 L 263.589844 507.109375 L 283.222656 507.109375 L 283.222656 594.023438 L 263.074219 594.023438 L 238.644531 544.679688 L 239.164062 555.488281 L 239.164062 594.03125 L 219.535156 594.03125 L 219.535156 507.105469 Z M 219.53125 507.105469 " fill-opacity="1" fill-rule="nonzero"></path><path fill="#d1b73b" d="M 295.335938 507.105469 L 342.183594 507.105469 L 342.183594 526.964844 L 328.640625 526.964844 L 328.640625 594.019531 L 308.75 594.019531 L 308.75 526.96875 L 295.335938 526.96875 Z M 295.335938 507.105469 " fill-opacity="1" fill-rule="nonzero"></path><path fill="#d1b73b" d="M 369.914062 532.042969 C 378.507812 532.042969 385.050781 534.917969 389.542969 540.667969 C 394.035156 546.417969 396.28125 554.414062 396.28125 564.65625 C 396.28125 574.6875 393.945312 582.441406 389.28125 587.929688 C 384.613281 593.421875 378.160156 596.164062 369.910156 596.164062 C 362.003906 596.164062 355.730469 593.367188 351.085938 587.769531 C 346.445312 582.171875 344.121094 574.46875 344.121094 564.65625 C 344.121094 554.410156 346.335938 546.417969 350.757812 540.667969 C 355.195312 534.917969 361.578125 532.042969 369.914062 532.042969 Z M 370.042969 579.242188 C 372.507812 579.242188 374.355469 578.09375 375.582031 575.796875 C 376.816406 573.496094 377.429688 569.570312 377.429688 564.011719 C 377.429688 558.5 376.824219 554.640625 375.617188 552.421875 C 374.40625 550.210938 372.589844 549.105469 370.175781 549.105469 C 367.800781 549.105469 365.984375 550.175781 364.730469 552.328125 C 363.480469 554.472656 362.855469 558.410156 362.855469 564.140625 C 362.851562 574.210938 365.246094 579.242188 370.042969 579.242188 Z M 370.042969 579.242188 " fill-opacity="1" fill-rule="nonzero"></path><path fill="#d1b73b" d="M 399.070312 534.128906 L 417.664062 534.128906 C 421.984375 553.054688 424.425781 564.269531 424.984375 567.785156 L 425.242188 567.785156 L 431.589844 534.128906 L 447.527344 534.128906 L 453.878906 567.199219 L 454.136719 567.199219 C 455.171875 562.164062 455.886719 558.804688 456.273438 557.105469 L 461.71875 534.128906 L 480.308594 534.128906 L 461.847656 594.019531 L 447.65625 594.019531 C 442.820312 576.136719 440.117188 565.375 439.558594 561.730469 L 439.300781 561.730469 C 438.914062 564.773438 436.300781 575.535156 431.460938 594.019531 L 417.402344 594.019531 Z M 399.070312 534.128906 " fill-opacity="1" fill-rule="nonzero"></path><path fill="#d1b73b" d="M 507.335938 534.128906 L 507.335938 542.261719 L 507.660156 542.261719 C 512.0625 535.535156 517.441406 532.175781 523.796875 532.175781 C 527.941406 532.175781 531.238281 533.5625 533.675781 536.34375 C 536.113281 539.121094 537.332031 542.878906 537.332031 547.605469 L 537.332031 594.019531 L 518.476562 594.019531 L 518.476562 557.105469 C 518.476562 555.070312 518.003906 553.398438 517.054688 552.09375 C 516.101562 550.792969 514.867188 550.140625 513.359375 550.140625 C 509.34375 550.140625 507.328125 552.675781 507.328125 557.761719 L 507.328125 594.019531 L 488.542969 594.019531 L 488.542969 534.128906 Z M 507.335938 534.128906 " fill-opacity="1" fill-rule="nonzero"></path><path fill="#d1b73b" d="M 551.203125 516.160156 C 551.203125 513.378906 552.175781 511.011719 554.121094 509.0625 C 556.066406 507.105469 558.398438 506.132812 561.117188 506.132812 C 563.886719 506.132812 566.242188 507.105469 568.175781 509.0625 C 570.125 511.011719 571.097656 513.378906 571.097656 516.160156 C 571.097656 518.894531 570.125 521.246094 568.175781 523.222656 C 566.238281 525.195312 563.882812 526.183594 561.117188 526.183594 C 558.445312 526.183594 556.121094 525.195312 554.152344 523.222656 C 552.183594 521.246094 551.203125 518.894531 551.203125 516.160156 Z M 551.722656 534.128906 L 570.578125 534.128906 L 570.578125 594.019531 L 551.722656 594.019531 Z M 551.722656 534.128906 " fill-opacity="1" fill-rule="nonzero"></path><path fill="#d1b73b" d="M 615.085938 594.019531 L 615.085938 586.144531 L 614.828125 586.144531 C 612.542969 589.527344 610.328125 592.019531 608.1875 593.628906 C 606.054688 595.234375 603.535156 596.042969 600.640625 596.042969 C 594.984375 596.042969 590.464844 593.132812 587.097656 587.3125 C 583.726562 581.5 582.046875 573.601562 582.046875 563.617188 C 582.046875 554.027344 583.753906 546.386719 587.164062 540.699219 C 590.578125 535.019531 595.070312 532.175781 600.640625 532.175781 C 603.617188 532.175781 606.148438 532.925781 608.222656 534.417969 C 610.292969 535.917969 612.453125 538.316406 614.703125 541.617188 L 614.957031 541.617188 L 614.957031 534.128906 L 633.8125 534.128906 L 633.8125 594.019531 Z M 615.085938 563.75 C 615.085938 553.8125 612.667969 548.84375 607.828125 548.84375 C 602.949219 548.84375 600.507812 553.8125 600.507812 563.75 C 600.507812 574.078125 603.035156 579.242188 608.085938 579.242188 C 612.753906 579.242188 615.085938 574.078125 615.085938 563.75 Z M 615.085938 563.75 " fill-opacity="1" fill-rule="nonzero"></path><path fill="#d1b73b" d="M 648.714844 585.234375 C 648.714844 582.285156 649.757812 579.746094 651.855469 577.617188 C 653.953125 575.492188 656.488281 574.429688 659.464844 574.429688 C 662.453125 574.429688 665.003906 575.480469 667.148438 577.585938 C 669.285156 579.691406 670.351562 582.195312 670.351562 585.105469 C 670.351562 588.011719 669.261719 590.5625 667.082031 592.75 C 664.898438 594.941406 662.363281 596.042969 659.464844 596.042969 C 656.492188 596.042969 653.953125 594.988281 651.855469 592.882812 C 649.757812 590.777344 648.714844 588.230469 648.714844 585.234375 Z M 648.714844 585.234375 " fill-opacity="1" fill-rule="nonzero"></path><path fill="#d1b73b" d="M 702.941406 534.128906 L 702.941406 541.742188 L 703.265625 541.742188 C 707.460938 535.535156 712.183594 532.4375 717.453125 532.4375 C 723.113281 532.4375 727.660156 535.328125 731.097656 541.125 C 734.527344 546.917969 736.246094 554.722656 736.246094 564.53125 C 736.246094 573.992188 734.488281 581.628906 730.964844 587.449219 C 727.441406 593.261719 722.941406 596.167969 717.453125 596.167969 C 711.664062 596.167969 706.941406 592.828125 703.265625 586.148438 L 702.941406 586.148438 L 702.941406 618.699219 L 684.15625 618.699219 L 684.15625 534.128906 Z M 717.453125 563.878906 C 717.453125 554.027344 714.972656 549.101562 710.003906 549.101562 C 705.292969 549.101562 702.9375 554.070312 702.9375 564.007812 C 702.9375 574.253906 705.289062 579.375 710.003906 579.375 C 714.972656 579.378906 717.453125 574.210938 717.453125 563.878906 Z M 717.453125 563.878906 " fill-opacity="1" fill-rule="nonzero"></path><path fill="#d1b73b" d="M 747.847656 502.292969 L 766.703125 502.292969 L 766.703125 594.019531 L 747.847656 594.019531 Z M 747.847656 502.292969 " fill-opacity="1" fill-rule="nonzero"></path></svg>