<svg xmlns="http://www.w3.org/2000/svg" xmlns:xlink="http://www.w3.org/1999/xlink" width="1024" zoomAndPan="magnify" viewBox="0 0 768 767.999994" height="1024" preserveAspectRatio="xMidYMid meet" version="1.0"><defs><clipPath id="a91d872de8"><path d="M 4.554688 218 L 768 218 L 768 556.867188 L 4.554688 556.867188 Z M 4.554688 218 " clip-rule="nonzero"/></clipPath><clipPath id="a5a1c1d7ea"><path d="M 751.207031 556.867188 L 209.726562 556.867188 C 209.726562 546.863281 201.585938 538.726562 191.582031 538.726562 C 181.578125 538.726562 173.4375 546.863281 173.4375 556.867188 L 22.851562 556.867188 C 22.851562 547.34375 15.101562 539.597656 5.578125 539.597656 C 5.265625 539.597656 4.960938 539.628906 4.648438 539.644531 L 4.648438 533.390625 C 4.957031 533.4375 5.261719 533.484375 5.582031 533.484375 C 8.828125 533.484375 11.457031 530.851562 11.457031 527.605469 C 11.457031 524.355469 8.828125 521.726562 5.582031 521.726562 C 5.261719 521.726562 4.957031 521.769531 4.648438 521.820312 L 4.648438 514.632812 C 4.957031 514.683594 5.261719 514.726562 5.582031 514.726562 C 8.828125 514.726562 11.457031 512.09375 11.457031 508.847656 C 11.457031 505.601562 8.828125 502.96875 5.582031 502.96875 C 5.261719 502.96875 4.957031 503.015625 4.648438 503.0625 L 4.648438 495.878906 C 4.957031 495.925781 5.261719 495.972656 5.582031 495.972656 C 8.828125 495.972656 11.457031 493.335938 11.457031 490.089844 C 11.457031 486.84375 8.828125 484.214844 5.582031 484.214844 C 5.261719 484.214844 4.957031 484.257812 4.648438 484.308594 L 4.648438 477.121094 C 4.957031 477.167969 5.261719 477.214844 5.582031 477.214844 C 8.828125 477.214844 11.457031 474.582031 11.457031 471.335938 C 11.457031 468.085938 8.828125 465.457031 5.582031 465.457031 C 5.261719 465.457031 4.957031 465.503906 4.648438 465.550781 L 4.648438 458.363281 C 4.957031 458.414062 5.261719 458.457031 5.582031 458.457031 C 8.828125 458.457031 11.457031 455.824219 11.457031 452.578125 C 11.457031 449.332031 8.828125 446.699219 5.582031 446.699219 C 5.261719 446.699219 4.957031 446.746094 4.648438 446.792969 L 4.648438 439.605469 C 4.957031 439.65625 5.261719 439.703125 5.582031 439.703125 C 8.828125 439.703125 11.457031 437.070312 11.457031 433.824219 C 11.457031 430.574219 8.828125 427.945312 5.582031 427.945312 C 5.261719 427.945312 4.957031 427.988281 4.648438 428.039062 L 4.648438 421.8125 C 23.882812 421.8125 39.527344 406.164062 39.527344 386.929688 C 39.527344 367.695312 23.882812 352.050781 4.648438 352.050781 L 4.648438 345.824219 C 4.957031 345.875 5.261719 345.917969 5.582031 345.917969 C 8.828125 345.917969 11.457031 343.285156 11.457031 340.039062 C 11.457031 336.792969 8.828125 334.160156 5.582031 334.160156 C 5.261719 334.160156 4.957031 334.207031 4.648438 334.253906 L 4.648438 327.066406 C 4.957031 327.117188 5.261719 327.160156 5.582031 327.160156 C 8.828125 327.160156 11.457031 324.53125 11.457031 321.285156 C 11.457031 318.039062 8.828125 315.40625 5.582031 315.40625 C 5.261719 315.40625 4.957031 315.449219 4.648438 315.496094 L 4.648438 308.3125 C 4.957031 308.359375 5.261719 308.40625 5.582031 308.40625 C 8.828125 308.40625 11.457031 305.773438 11.457031 302.527344 C 11.457031 299.28125 8.828125 296.648438 5.582031 296.648438 C 5.261719 296.648438 4.957031 296.691406 4.648438 296.742188 L 4.648438 289.554688 C 4.957031 289.605469 5.261719 289.648438 5.582031 289.648438 C 8.828125 289.648438 11.457031 287.015625 11.457031 283.769531 C 11.457031 280.523438 8.828125 277.894531 5.582031 277.894531 C 5.261719 277.894531 4.957031 277.9375 4.648438 277.988281 L 4.648438 270.800781 C 4.957031 270.847656 5.261719 270.890625 5.582031 270.890625 C 8.828125 270.890625 11.457031 268.261719 11.457031 265.015625 C 11.457031 261.765625 8.828125 259.136719 5.582031 259.136719 C 5.261719 259.136719 4.957031 259.179688 4.648438 259.230469 L 4.648438 252.042969 C 4.957031 252.09375 5.261719 252.136719 5.582031 252.136719 C 8.828125 252.136719 11.457031 249.503906 11.457031 246.257812 C 11.457031 243.011719 8.828125 240.378906 5.582031 240.378906 C 5.261719 240.378906 4.957031 240.425781 4.648438 240.472656 L 4.648438 234.617188 C 4.960938 234.636719 5.265625 234.664062 5.578125 234.664062 C 14.859375 234.664062 22.433594 227.300781 22.816406 218.117188 L 173.476562 218.117188 C 173.859375 227.78125 181.820312 235.539062 191.582031 235.539062 C 201.34375 235.539062 209.304688 227.78125 209.6875 218.117188 L 751.242188 218.117188 C 751.621094 227.09375 758.953125 234.265625 768 234.363281 L 768 240.398438 C 764.839844 240.5 762.308594 243.074219 762.308594 246.257812 C 762.308594 249.441406 764.839844 252.015625 768 252.117188 L 768 259.152344 C 764.839844 259.253906 762.308594 261.832031 762.308594 265.015625 C 762.308594 268.195312 764.839844 270.773438 768 270.875 L 768 277.910156 C 764.839844 278.011719 762.308594 280.585938 762.308594 283.769531 C 762.308594 286.953125 764.839844 289.53125 768 289.632812 L 768 296.667969 C 764.839844 296.769531 762.308594 299.34375 762.308594 302.527344 C 762.308594 305.710938 764.839844 308.285156 768 308.386719 L 768 315.421875 C 764.839844 315.527344 762.308594 318.101562 762.308594 321.285156 C 762.308594 324.464844 764.839844 327.042969 768 327.144531 L 768 334.179688 C 764.839844 334.28125 762.308594 336.855469 762.308594 340.039062 C 762.308594 343.222656 764.839844 345.800781 768 345.898438 L 768 352.378906 C 767.75 352.371094 767.507812 352.339844 767.253906 352.339844 C 748.152344 352.339844 732.667969 367.828125 732.667969 386.929688 C 732.667969 406.035156 748.152344 421.523438 767.253906 421.523438 C 767.507812 421.523438 767.75 421.488281 768 421.484375 L 768 427.960938 C 764.839844 428.0625 762.308594 430.640625 762.308594 433.824219 C 762.308594 437.003906 764.839844 439.582031 768 439.679688 L 768 446.71875 C 764.839844 446.816406 762.308594 449.398438 762.308594 452.578125 C 762.308594 455.761719 764.839844 458.335938 768 458.4375 L 768 465.476562 C 764.839844 465.574219 762.308594 468.152344 762.308594 471.335938 C 762.308594 474.519531 764.839844 477.09375 768 477.195312 L 768 484.230469 C 764.839844 484.332031 762.308594 486.910156 762.308594 490.089844 C 762.308594 493.273438 764.839844 495.851562 768 495.953125 L 768 502.988281 C 764.839844 503.089844 762.308594 505.664062 762.308594 508.847656 C 762.308594 512.03125 764.839844 514.605469 768 514.707031 L 768 521.742188 C 764.839844 521.84375 762.308594 524.421875 762.308594 527.605469 C 762.308594 530.789062 764.839844 533.363281 768 533.464844 L 768 539.898438 C 758.707031 539.996094 751.207031 547.554688 751.207031 556.867188 M 191.582031 521.726562 C 188.335938 521.726562 185.703125 524.355469 185.703125 527.605469 C 185.703125 530.851562 188.335938 533.484375 191.582031 533.484375 C 194.828125 533.484375 197.460938 530.851562 197.460938 527.605469 C 197.460938 524.355469 194.828125 521.726562 191.582031 521.726562 M 191.582031 502.96875 C 188.335938 502.96875 185.703125 505.601562 185.703125 508.847656 C 185.703125 512.09375 188.335938 514.726562 191.582031 514.726562 C 194.828125 514.726562 197.460938 512.09375 197.460938 508.847656 C 197.460938 505.601562 194.828125 502.96875 191.582031 502.96875 M 191.582031 484.214844 C 188.335938 484.214844 185.703125 486.84375 185.703125 490.089844 C 185.703125 493.335938 188.335938 495.972656 191.582031 495.972656 C 194.828125 495.972656 197.460938 493.335938 197.460938 490.089844 C 197.460938 486.84375 194.828125 484.214844 191.582031 484.214844 M 191.582031 465.457031 C 188.335938 465.457031 185.703125 468.085938 185.703125 471.335938 C 185.703125 474.582031 188.335938 477.214844 191.582031 477.214844 C 194.828125 477.214844 197.460938 474.582031 197.460938 471.335938 C 197.460938 468.085938 194.828125 465.457031 191.582031 465.457031 M 191.582031 446.699219 C 188.335938 446.699219 185.703125 449.332031 185.703125 452.578125 C 185.703125 455.824219 188.335938 458.457031 191.582031 458.457031 C 194.828125 458.457031 197.460938 455.824219 197.460938 452.578125 C 197.460938 449.332031 194.828125 446.699219 191.582031 446.699219 M 191.582031 427.945312 C 188.335938 427.945312 185.703125 430.574219 185.703125 433.824219 C 185.703125 437.070312 188.335938 439.703125 191.582031 439.703125 C 194.828125 439.703125 197.460938 437.070312 197.460938 433.824219 C 197.460938 430.574219 194.828125 427.945312 191.582031 427.945312 M 191.582031 409.1875 C 188.335938 409.1875 185.703125 411.820312 185.703125 415.066406 C 185.703125 418.3125 188.335938 420.945312 191.582031 420.945312 C 194.828125 420.945312 197.460938 418.3125 197.460938 415.066406 C 197.460938 411.820312 194.828125 409.1875 191.582031 409.1875 M 191.582031 390.429688 C 188.335938 390.429688 185.703125 393.0625 185.703125 396.308594 C 185.703125 399.554688 188.335938 402.1875 191.582031 402.1875 C 194.828125 402.1875 197.460938 399.554688 197.460938 396.308594 C 197.460938 393.0625 194.828125 390.429688 191.582031 390.429688 M 191.582031 371.671875 C 188.335938 371.671875 185.703125 374.304688 185.703125 377.554688 C 185.703125 380.800781 188.335938 383.429688 191.582031 383.429688 C 194.828125 383.429688 197.460938 380.800781 197.460938 377.554688 C 197.460938 374.304688 194.828125 371.671875 191.582031 371.671875 M 191.582031 352.917969 C 188.335938 352.917969 185.703125 355.550781 185.703125 358.796875 C 185.703125 362.042969 188.335938 364.675781 191.582031 364.675781 C 194.828125 364.675781 197.460938 362.042969 197.460938 358.796875 C 197.460938 355.550781 194.828125 352.917969 191.582031 352.917969 M 191.582031 334.160156 C 188.335938 334.160156 185.703125 336.792969 185.703125 340.039062 C 185.703125 343.285156 188.335938 345.917969 191.582031 345.917969 C 194.828125 345.917969 197.460938 343.285156 197.460938 340.039062 C 197.460938 336.792969 194.828125 334.160156 191.582031 334.160156 M 191.582031 315.40625 C 188.335938 315.40625 185.703125 318.039062 185.703125 321.285156 C 185.703125 324.53125 188.335938 327.160156 191.582031 327.160156 C 194.828125 327.160156 197.460938 324.53125 197.460938 321.285156 C 197.460938 318.039062 194.828125 315.40625 191.582031 315.40625 M 191.582031 296.648438 C 188.335938 296.648438 185.703125 299.28125 185.703125 302.527344 C 185.703125 305.773438 188.335938 308.40625 191.582031 308.40625 C 194.828125 308.40625 197.460938 305.773438 197.460938 302.527344 C 197.460938 299.28125 194.828125 296.648438 191.582031 296.648438 M 191.582031 277.894531 C 188.335938 277.894531 185.703125 280.523438 185.703125 283.769531 C 185.703125 287.015625 188.335938 289.648438 191.582031 289.648438 C 194.828125 289.648438 197.460938 287.015625 197.460938 283.769531 C 197.460938 280.523438 194.828125 277.894531 191.582031 277.894531 M 191.582031 259.136719 C 188.335938 259.136719 185.703125 261.765625 185.703125 265.015625 C 185.703125 268.261719 188.335938 270.890625 191.582031 270.890625 C 194.828125 270.890625 197.460938 268.261719 197.460938 265.015625 C 197.460938 261.765625 194.828125 259.136719 191.582031 259.136719 M 191.582031 240.378906 C 188.335938 240.378906 185.703125 243.011719 185.703125 246.257812 C 185.703125 249.503906 188.335938 252.136719 191.582031 252.136719 C 194.828125 252.136719 197.460938 249.503906 197.460938 246.257812 C 197.460938 243.011719 194.828125 240.378906 191.582031 240.378906 " clip-rule="nonzero"/></clipPath><clipPath id="6f9a981576"><path d="M 751.210938 556.867188 L 209.726562 556.867188 C 209.726562 546.863281 201.585938 538.726562 191.582031 538.726562 C 181.578125 538.726562 173.441406 546.863281 173.441406 556.867188 L 22.851562 556.867188 C 22.851562 547.34375 15.105469 539.597656 5.578125 539.597656 C 5.265625 539.597656 4.960938 539.628906 4.648438 539.644531 L 4.648438 533.390625 C 4.957031 533.4375 5.261719 533.484375 5.582031 533.484375 C 8.828125 533.484375 11.457031 530.851562 11.457031 527.605469 C 11.457031 524.355469 8.828125 521.726562 5.582031 521.726562 C 5.261719 521.726562 4.957031 521.769531 4.648438 521.820312 L 4.648438 514.632812 C 4.957031 514.683594 5.261719 514.726562 5.582031 514.726562 C 8.828125 514.726562 11.457031 512.09375 11.457031 508.847656 C 11.457031 505.601562 8.828125 502.96875 5.582031 502.96875 C 5.261719 502.96875 4.957031 503.015625 4.648438 503.0625 L 4.648438 495.875 C 4.957031 495.925781 5.261719 495.96875 5.582031 495.96875 C 8.828125 495.96875 11.457031 493.335938 11.457031 490.089844 C 11.457031 486.84375 8.828125 484.214844 5.582031 484.214844 C 5.261719 484.214844 4.957031 484.257812 4.648438 484.308594 L 4.648438 477.121094 C 4.957031 477.167969 5.261719 477.214844 5.582031 477.214844 C 8.828125 477.214844 11.457031 474.582031 11.457031 471.335938 C 11.457031 468.085938 8.828125 465.457031 5.582031 465.457031 C 5.261719 465.457031 4.957031 465.5 4.648438 465.550781 L 4.648438 458.363281 C 4.957031 458.414062 5.261719 458.457031 5.582031 458.457031 C 8.828125 458.457031 11.457031 455.824219 11.457031 452.578125 C 11.457031 449.332031 8.828125 446.699219 5.582031 446.699219 C 5.261719 446.699219 4.957031 446.746094 4.648438 446.792969 L 4.648438 439.605469 C 4.957031 439.65625 5.261719 439.703125 5.582031 439.703125 C 8.828125 439.703125 11.457031 437.070312 11.457031 433.824219 C 11.457031 430.574219 8.828125 427.941406 5.582031 427.941406 C 5.261719 427.941406 4.957031 427.988281 4.648438 428.039062 L 4.648438 421.8125 C 23.882812 421.8125 39.527344 406.164062 39.527344 386.929688 C 39.527344 367.695312 23.882812 352.050781 4.648438 352.050781 L 4.648438 345.824219 C 4.957031 345.875 5.261719 345.917969 5.582031 345.917969 C 8.828125 345.917969 11.457031 343.285156 11.457031 340.039062 C 11.457031 336.792969 8.828125 334.160156 5.582031 334.160156 C 5.261719 334.160156 4.957031 334.207031 4.648438 334.253906 L 4.648438 327.070312 C 4.957031 327.117188 5.261719 327.160156 5.582031 327.160156 C 8.828125 327.160156 11.457031 324.53125 11.457031 321.28125 C 11.457031 318.035156 8.828125 315.40625 5.582031 315.40625 C 5.261719 315.40625 4.957031 315.449219 4.648438 315.496094 L 4.648438 308.3125 C 4.957031 308.359375 5.261719 308.40625 5.582031 308.40625 C 8.828125 308.40625 11.457031 305.773438 11.457031 302.527344 C 11.457031 299.28125 8.828125 296.648438 5.582031 296.648438 C 5.261719 296.648438 4.957031 296.691406 4.648438 296.742188 L 4.648438 289.554688 C 4.957031 289.605469 5.261719 289.648438 5.582031 289.648438 C 8.828125 289.648438 11.457031 287.015625 11.457031 283.769531 C 11.457031 280.523438 8.828125 277.890625 5.582031 277.890625 C 5.261719 277.890625 4.957031 277.9375 4.648438 277.984375 L 4.648438 270.800781 C 4.957031 270.847656 5.261719 270.890625 5.582031 270.890625 C 8.828125 270.890625 11.457031 268.261719 11.457031 265.015625 C 11.457031 261.765625 8.828125 259.136719 5.582031 259.136719 C 5.261719 259.136719 4.957031 259.179688 4.648438 259.230469 L 4.648438 252.042969 C 4.957031 252.089844 5.261719 252.136719 5.582031 252.136719 C 8.828125 252.136719 11.457031 249.503906 11.457031 246.257812 C 11.457031 243.011719 8.828125 240.378906 5.582031 240.378906 C 5.261719 240.378906 4.957031 240.421875 4.648438 240.472656 L 4.648438 234.617188 C 4.960938 234.632812 5.265625 234.664062 5.578125 234.664062 C 14.859375 234.664062 22.433594 227.300781 22.816406 218.113281 L 173.476562 218.113281 C 173.859375 227.785156 181.820312 235.535156 191.582031 235.535156 C 201.34375 235.535156 209.304688 227.785156 209.6875 218.113281 L 751.242188 218.113281 C 751.625 227.09375 758.953125 234.265625 768 234.363281 L 768 240.398438 C 764.839844 240.5 762.308594 243.074219 762.308594 246.257812 C 762.308594 249.441406 764.839844 252.015625 768 252.117188 L 768 259.152344 C 764.839844 259.253906 762.308594 261.832031 762.308594 265.015625 C 762.308594 268.195312 764.839844 270.773438 768 270.875 L 768 277.910156 C 764.839844 278.011719 762.308594 280.585938 762.308594 283.769531 C 762.308594 286.953125 764.839844 289.53125 768 289.632812 L 768 296.667969 C 764.839844 296.765625 762.308594 299.34375 762.308594 302.527344 C 762.308594 305.710938 764.839844 308.285156 768 308.386719 L 768 315.421875 C 764.839844 315.523438 762.308594 318.101562 762.308594 321.28125 C 762.308594 324.464844 764.839844 327.042969 768 327.144531 L 768 334.179688 C 764.839844 334.28125 762.308594 336.855469 762.308594 340.039062 C 762.308594 343.222656 764.839844 345.800781 768 345.898438 L 768 352.378906 C 767.753906 352.371094 767.511719 352.339844 767.257812 352.339844 C 748.15625 352.339844 732.667969 367.828125 732.667969 386.929688 C 732.667969 406.035156 748.15625 421.519531 767.257812 421.519531 C 767.511719 421.519531 767.753906 421.488281 768 421.484375 L 768 427.960938 C 764.839844 428.0625 762.308594 430.636719 762.308594 433.824219 C 762.308594 437.003906 764.839844 439.582031 768 439.679688 L 768 446.71875 C 764.839844 446.816406 762.308594 449.398438 762.308594 452.578125 C 762.308594 455.761719 764.839844 458.335938 768 458.4375 L 768 465.476562 C 764.839844 465.574219 762.308594 468.152344 762.308594 471.335938 C 762.308594 474.519531 764.839844 477.09375 768 477.195312 L 768 484.230469 C 764.839844 484.332031 762.308594 486.910156 762.308594 490.089844 C 762.308594 493.273438 764.839844 495.851562 768 495.953125 L 768 502.988281 C 764.839844 503.089844 762.308594 505.664062 762.308594 508.847656 C 762.308594 512.03125 764.839844 514.605469 768 514.707031 L 768 521.742188 C 764.839844 521.84375 762.308594 524.421875 762.308594 527.605469 C 762.308594 530.789062 764.839844 533.363281 768 533.464844 L 768 539.898438 C 758.710938 539.996094 751.210938 547.554688 751.210938 556.867188 M 191.582031 521.726562 C 188.335938 521.726562 185.703125 524.355469 185.703125 527.605469 C 185.703125 530.851562 188.335938 533.484375 191.582031 533.484375 C 194.828125 533.484375 197.460938 530.851562 197.460938 527.605469 C 197.460938 524.355469 194.828125 521.726562 191.582031 521.726562 M 191.582031 502.96875 C 188.335938 502.96875 185.703125 505.601562 185.703125 508.847656 C 185.703125 512.09375 188.335938 514.726562 191.582031 514.726562 C 194.828125 514.726562 197.460938 512.09375 197.460938 508.847656 C 197.460938 505.601562 194.828125 502.96875 191.582031 502.96875 M 191.582031 484.214844 C 188.335938 484.214844 185.703125 486.84375 185.703125 490.089844 C 185.703125 493.335938 188.335938 495.96875 191.582031 495.96875 C 194.828125 495.96875 197.460938 493.335938 197.460938 490.089844 C 197.460938 486.84375 194.828125 484.214844 191.582031 484.214844 M 191.582031 465.457031 C 188.335938 465.457031 185.703125 468.085938 185.703125 471.335938 C 185.703125 474.582031 188.335938 477.214844 191.582031 477.214844 C 194.828125 477.214844 197.460938 474.582031 197.460938 471.335938 C 197.460938 468.085938 194.828125 465.457031 191.582031 465.457031 M 191.582031 446.699219 C 188.335938 446.699219 185.703125 449.332031 185.703125 452.578125 C 185.703125 455.824219 188.335938 458.457031 191.582031 458.457031 C 194.828125 458.457031 197.460938 455.824219 197.460938 452.578125 C 197.460938 449.332031 194.828125 446.699219 191.582031 446.699219 M 191.582031 427.941406 C 188.335938 427.941406 185.703125 430.574219 185.703125 433.824219 C 185.703125 437.070312 188.335938 439.703125 191.582031 439.703125 C 194.828125 439.703125 197.460938 437.070312 197.460938 433.824219 C 197.460938 430.574219 194.828125 427.941406 191.582031 427.941406 M 191.582031 409.1875 C 188.335938 409.1875 185.703125 411.816406 185.703125 415.066406 C 185.703125 418.3125 188.335938 420.945312 191.582031 420.945312 C 194.828125 420.945312 197.460938 418.3125 197.460938 415.066406 C 197.460938 411.816406 194.828125 409.1875 191.582031 409.1875 M 191.582031 390.429688 C 188.335938 390.429688 185.703125 393.0625 185.703125 396.308594 C 185.703125 399.554688 188.335938 402.1875 191.582031 402.1875 C 194.828125 402.1875 197.460938 399.554688 197.460938 396.308594 C 197.460938 393.0625 194.828125 390.429688 191.582031 390.429688 M 191.582031 371.671875 C 188.335938 371.671875 185.703125 374.304688 185.703125 377.550781 C 185.703125 380.800781 188.335938 383.429688 191.582031 383.429688 C 194.828125 383.429688 197.460938 380.800781 197.460938 377.550781 C 197.460938 374.304688 194.828125 371.671875 191.582031 371.671875 M 191.582031 352.917969 C 188.335938 352.917969 185.703125 355.550781 185.703125 358.796875 C 185.703125 362.042969 188.335938 364.675781 191.582031 364.675781 C 194.828125 364.675781 197.460938 362.042969 197.460938 358.796875 C 197.460938 355.550781 194.828125 352.917969 191.582031 352.917969 M 191.582031 334.160156 C 188.335938 334.160156 185.703125 336.792969 185.703125 340.039062 C 185.703125 343.285156 188.335938 345.917969 191.582031 345.917969 C 194.828125 345.917969 197.460938 343.285156 197.460938 340.039062 C 197.460938 336.792969 194.828125 334.160156 191.582031 334.160156 M 191.582031 315.40625 C 188.335938 315.40625 185.703125 318.035156 185.703125 321.28125 C 185.703125 324.53125 188.335938 327.160156 191.582031 327.160156 C 194.828125 327.160156 197.460938 324.53125 197.460938 321.28125 C 197.460938 318.035156 194.828125 315.40625 191.582031 315.40625 M 191.582031 296.648438 C 188.335938 296.648438 185.703125 299.28125 185.703125 302.527344 C 185.703125 305.773438 188.335938 308.40625 191.582031 308.40625 C 194.828125 308.40625 197.460938 305.773438 197.460938 302.527344 C 197.460938 299.28125 194.828125 296.648438 191.582031 296.648438 M 191.582031 277.890625 C 188.335938 277.890625 185.703125 280.523438 185.703125 283.769531 C 185.703125 287.015625 188.335938 289.648438 191.582031 289.648438 C 194.828125 289.648438 197.460938 287.015625 197.460938 283.769531 C 197.460938 280.523438 194.828125 277.890625 191.582031 277.890625 M 191.582031 259.136719 C 188.335938 259.136719 185.703125 261.765625 185.703125 265.015625 C 185.703125 268.261719 188.335938 270.890625 191.582031 270.890625 C 194.828125 270.890625 197.460938 268.261719 197.460938 265.015625 C 197.460938 261.765625 194.828125 259.136719 191.582031 259.136719 M 191.582031 240.378906 C 188.335938 240.378906 185.703125 243.011719 185.703125 246.257812 C 185.703125 249.503906 188.335938 252.136719 191.582031 252.136719 C 194.828125 252.136719 197.460938 249.503906 197.460938 246.257812 C 197.460938 243.011719 194.828125 240.378906 191.582031 240.378906 " clip-rule="nonzero"/></clipPath><clipPath id="60e589c905"><path d="M 160.664062 -89.726562 L -131.941406 487.632812 L 611.984375 864.710938 L 904.59375 287.351562 Z M 160.664062 -89.726562 " clip-rule="nonzero"/></clipPath><radialGradient gradientTransform="matrix(0.891941, 0.452108, -0.452077, 0.892001, 386.32983, 387.495777)" gradientUnits="userSpaceOnUse" r="531.038157" cx="0" id="242fe1f027" cy="0" fx="-139.735816" fy="-118.595053"><stop stop-opacity="1" stop-color="rgb(79.598999%, 79.998779%, 79.998779%)" offset="0"/><stop stop-opacity="1" stop-color="rgb(79.698181%, 79.998779%, 79.998779%)" offset="0.125"/><stop stop-opacity="1" stop-color="rgb(79.882812%, 79.998779%, 79.998779%)" offset="0.152344"/><stop stop-opacity="1" stop-color="rgb(79.983521%, 80.134583%, 80.134583%)" offset="0.175781"/><stop stop-opacity="1" stop-color="rgb(80.136108%, 80.334473%, 80.334473%)" offset="0.1875"/><stop stop-opacity="1" stop-color="rgb(80.46875%, 80.531311%, 80.531311%)" offset="0.199219"/><stop stop-opacity="1" stop-color="rgb(80.731201%, 80.859375%, 80.859375%)" offset="0.210938"/><stop stop-opacity="1" stop-color="rgb(80.932617%, 81.126404%, 81.126404%)" offset="0.222656"/><stop stop-opacity="1" stop-color="rgb(81.137085%, 81.204224%, 81.204224%)" offset="0.234375"/><stop stop-opacity="1" stop-color="rgb(81.404114%, 81.404114%, 81.404114%)" offset="0.238281"/><stop stop-opacity="1" stop-color="rgb(81.599426%, 81.794739%, 81.794739%)" offset="0.25"/><stop stop-opacity="1" stop-color="rgb(81.787109%, 81.994629%, 81.994629%)" offset="0.261719"/><stop stop-opacity="1" stop-color="rgb(81.987%, 82.096863%, 82.096863%)" offset="0.269531"/><stop stop-opacity="1" stop-color="rgb(81.999207%, 82.296753%, 82.296753%)" offset="0.273438"/><stop stop-opacity="1" stop-color="rgb(82.099915%, 82.398987%, 82.398987%)" offset="0.28125"/><stop stop-opacity="1" stop-color="rgb(82.299805%, 82.470703%, 82.470703%)" offset="0.289062"/><stop stop-opacity="1" stop-color="rgb(82.467651%, 82.621765%, 82.621765%)" offset="0.296875"/><stop stop-opacity="1" stop-color="rgb(82.618713%, 82.798767%, 82.798767%)" offset="0.304688"/><stop stop-opacity="1" stop-color="rgb(82.806396%, 82.998657%, 82.998657%)" offset="0.3125"/><stop stop-opacity="1" stop-color="rgb(83.006287%, 83.201599%, 83.201599%)" offset="0.320312"/><stop stop-opacity="1" stop-color="rgb(83.2901%, 83.401489%, 83.401489%)" offset="0.328125"/><stop stop-opacity="1" stop-color="rgb(83.48999%, 83.599854%, 83.599854%)" offset="0.347656"/><stop stop-opacity="1" stop-color="rgb(83.607483%, 83.799744%, 83.799744%)" offset="0.351562"/><stop stop-opacity="1" stop-color="rgb(83.807373%, 84.002686%, 84.002686%)" offset="0.359375"/><stop stop-opacity="1" stop-color="rgb(83.998108%, 84.202576%, 84.202576%)" offset="0.367188"/><stop stop-opacity="1" stop-color="rgb(84.246826%, 84.346008%, 84.346008%)" offset="0.375"/><stop stop-opacity="1" stop-color="rgb(84.492493%, 84.492493%, 84.492493%)" offset="0.382812"/><stop stop-opacity="1" stop-color="rgb(84.643555%, 84.690857%, 84.690857%)" offset="0.390625"/><stop stop-opacity="1" stop-color="rgb(84.698486%, 84.895325%, 84.895325%)" offset="0.398438"/><stop stop-opacity="1" stop-color="rgb(84.74884%, 85.099792%, 85.099792%)" offset="0.40625"/><stop stop-opacity="1" stop-color="rgb(84.898376%, 85.298157%, 85.298157%)" offset="0.414062"/><stop stop-opacity="1" stop-color="rgb(85.096741%, 85.447693%, 85.447693%)" offset="0.421875"/><stop stop-opacity="1" stop-color="rgb(85.301208%, 85.499573%, 85.499573%)" offset="0.429688"/><stop stop-opacity="1" stop-color="rgb(85.505676%, 85.552979%, 85.552979%)" offset="0.4375"/><stop stop-opacity="1" stop-color="rgb(85.752869%, 85.801697%, 85.801697%)" offset="0.445312"/><stop stop-opacity="1" stop-color="rgb(85.899353%, 86.094666%, 86.094666%)" offset="0.460938"/><stop stop-opacity="1" stop-color="rgb(85.946655%, 86.29303%, 86.29303%)" offset="0.46875"/><stop stop-opacity="1" stop-color="rgb(86.097717%, 86.497498%, 86.497498%)" offset="0.476562"/><stop stop-opacity="1" stop-color="rgb(86.303711%, 86.650085%, 86.650085%)" offset="0.484375"/><stop stop-opacity="1" stop-color="rgb(86.550903%, 86.761475%, 86.761475%)" offset="0.492188"/><stop stop-opacity="1" stop-color="rgb(86.763%, 86.961365%, 86.961365%)" offset="0.507812"/><stop stop-opacity="1" stop-color="rgb(86.962891%, 87.168884%, 87.168884%)" offset="0.519531"/><stop stop-opacity="1" stop-color="rgb(87.164307%, 87.3703%, 87.3703%)" offset="0.53125"/><stop stop-opacity="1" stop-color="rgb(87.365723%, 87.545776%, 87.545776%)" offset="0.542969"/><stop stop-opacity="1" stop-color="rgb(87.545776%, 87.695312%, 87.695312%)" offset="0.554688"/><stop stop-opacity="1" stop-color="rgb(87.763977%, 87.867737%, 87.867737%)" offset="0.566406"/><stop stop-opacity="1" stop-color="rgb(88.101196%, 88.101196%, 88.101196%)" offset="0.578125"/><stop stop-opacity="1" stop-color="rgb(88.368225%, 88.368225%, 88.368225%)" offset="0.589844"/><stop stop-opacity="1" stop-color="rgb(88.569641%, 88.569641%, 88.569641%)" offset="0.601562"/><stop stop-opacity="1" stop-color="rgb(88.768005%, 88.768005%, 88.768005%)" offset="0.613281"/><stop stop-opacity="1" stop-color="rgb(88.9328%, 88.970947%, 88.970947%)" offset="0.625"/><stop stop-opacity="1" stop-color="rgb(88.999939%, 89.160156%, 89.160156%)" offset="0.636719"/><stop stop-opacity="1" stop-color="rgb(89.002991%, 89.323425%, 89.323425%)" offset="0.644531"/><stop stop-opacity="1" stop-color="rgb(89.201355%, 89.601135%, 89.601135%)" offset="0.652344"/><stop stop-opacity="1" stop-color="rgb(89.479065%, 89.797974%, 89.797974%)" offset="0.671875"/><stop stop-opacity="1" stop-color="rgb(89.680481%, 89.901733%, 89.901733%)" offset="0.679688"/><stop stop-opacity="1" stop-color="rgb(89.897156%, 90.101624%, 90.101624%)" offset="0.699219"/><stop stop-opacity="1" stop-color="rgb(90.097046%, 90.298462%, 90.298462%)" offset="0.714844"/><stop stop-opacity="1" stop-color="rgb(90.202332%, 90.501404%, 90.501404%)" offset="0.730469"/><stop stop-opacity="1" stop-color="rgb(90.402222%, 90.802002%, 90.802002%)" offset="0.738281"/><stop stop-opacity="1" stop-color="rgb(90.684509%, 90.997314%, 90.997314%)" offset="0.753906"/><stop stop-opacity="1" stop-color="rgb(90.858459%, 90.99884%, 90.99884%)" offset="0.765625"/><stop stop-opacity="1" stop-color="rgb(91.029358%, 91.056824%, 91.056824%)" offset="0.777344"/><stop stop-opacity="1" stop-color="rgb(91.256714%, 91.287231%, 91.287231%)" offset="0.789062"/><stop stop-opacity="1" stop-color="rgb(91.438293%, 91.629028%, 91.629028%)" offset="0.8125"/><stop stop-opacity="1" stop-color="rgb(91.65802%, 91.819763%, 91.819763%)" offset="0.835938"/><stop stop-opacity="1" stop-color="rgb(91.928101%, 91.928101%, 91.928101%)" offset="0.855469"/><stop stop-opacity="1" stop-color="rgb(92.108154%, 92.193604%, 92.193604%)" offset="0.871094"/><stop stop-opacity="1" stop-color="rgb(92.321777%, 92.433167%, 92.433167%)" offset="0.902344"/><stop stop-opacity="1" stop-color="rgb(92.471313%, 92.572021%, 92.572021%)" offset="0.949219"/><stop stop-opacity="1" stop-color="rgb(92.498779%, 92.771912%, 92.771912%)" offset="0.972656"/><stop stop-opacity="1" stop-color="rgb(92.498779%, 92.89856%, 92.89856%)" offset="1"/></radialGradient><clipPath id="3ad6e3142f"><path d="M 188 211.132812 L 764 211.132812 L 764 550 L 188 550 Z M 188 211.132812 " clip-rule="nonzero"/></clipPath><clipPath id="2a59cb130a"><path d="M 0 211.132812 L 186 211.132812 L 186 550 L 0 550 Z M 0 211.132812 " clip-rule="nonzero"/></clipPath></defs><g clip-path="url(#a91d872de8)"><g clip-path="url(#a5a1c1d7ea)"><g clip-path="url(#6f9a981576)"><g clip-path="url(#60e589c905)"><path fill="url(#242fe1f027)" d="M 160.667969 -89.726562 L -131.945312 487.632812 L 611.980469 864.710938 L 904.59375 287.351562 Z M 160.667969 -89.726562 " fill-rule="nonzero"/></g></g></g></g><g clip-path="url(#3ad6e3142f)"><path fill="#f8c025" d="M 763.347656 233.421875 L 763.347656 227.390625 C 754.300781 227.292969 746.96875 220.117188 746.59375 211.140625 L 205.039062 211.140625 C 204.671875 220.421875 197.3125 227.917969 188.09375 228.503906 L 188.09375 233.523438 C 190.785156 234.0625 192.808594 236.433594 192.808594 239.285156 C 192.808594 242.132812 190.785156 244.503906 188.09375 245.042969 L 188.09375 252.277344 C 190.785156 252.816406 192.808594 255.191406 192.808594 258.039062 C 192.808594 260.890625 190.785156 263.261719 188.09375 263.800781 L 188.09375 271.035156 C 190.785156 271.574219 192.808594 273.949219 192.808594 276.796875 C 192.808594 279.644531 190.785156 282.019531 188.09375 282.558594 L 188.09375 289.789062 C 190.785156 290.332031 192.808594 292.703125 192.808594 295.550781 C 192.808594 298.402344 190.785156 300.773438 188.09375 301.316406 L 188.09375 308.546875 C 190.785156 309.085938 192.808594 311.460938 192.808594 314.308594 C 192.808594 317.15625 190.785156 319.53125 188.09375 320.070312 L 188.09375 327.304688 C 190.785156 327.84375 192.808594 330.214844 192.808594 333.0625 C 192.808594 335.914062 190.785156 338.285156 188.09375 338.828125 L 188.09375 346.058594 C 190.785156 346.601562 192.808594 348.972656 192.808594 351.820312 C 192.808594 354.671875 190.785156 357.042969 188.09375 357.582031 L 188.09375 364.816406 C 190.785156 365.355469 192.808594 367.730469 192.808594 370.578125 C 192.808594 373.425781 190.785156 375.800781 188.09375 376.339844 L 188.09375 383.574219 C 190.785156 384.113281 192.808594 386.484375 192.808594 389.335938 C 192.808594 392.183594 190.785156 394.554688 188.09375 395.097656 L 188.09375 402.328125 C 190.785156 402.867188 192.808594 405.242188 192.808594 408.089844 C 192.808594 410.9375 190.785156 413.3125 188.09375 413.851562 L 188.09375 421.085938 C 190.785156 421.625 192.808594 423.996094 192.808594 426.847656 C 192.808594 429.695312 190.785156 432.070312 188.09375 432.609375 L 188.09375 439.839844 C 190.785156 440.378906 192.808594 442.753906 192.808594 445.601562 C 192.808594 448.453125 190.785156 450.824219 188.09375 451.363281 L 188.09375 458.597656 C 190.785156 459.136719 192.808594 461.511719 192.808594 464.359375 C 192.808594 467.207031 190.785156 469.582031 188.09375 470.121094 L 188.09375 477.355469 C 190.785156 477.894531 192.808594 480.265625 192.808594 483.117188 C 192.808594 485.964844 190.785156 488.335938 188.09375 488.878906 L 188.09375 496.109375 C 190.785156 496.648438 192.808594 499.023438 192.808594 501.875 C 192.808594 504.71875 190.785156 507.09375 188.09375 507.632812 L 188.09375 514.867188 C 190.785156 515.40625 192.808594 517.78125 192.808594 520.628906 C 192.808594 523.476562 190.785156 525.851562 188.09375 526.390625 L 188.09375 531.808594 C 197.554688 532.410156 205.074219 540.28125 205.074219 549.894531 L 746.554688 549.894531 C 746.554688 540.578125 754.058594 533.023438 763.347656 532.921875 L 763.347656 526.488281 C 760.1875 526.386719 757.660156 523.8125 757.660156 520.628906 C 757.660156 517.445312 760.1875 514.867188 763.347656 514.769531 L 763.347656 507.730469 C 760.1875 507.632812 757.660156 505.054688 757.660156 501.875 C 757.660156 498.6875 760.1875 496.113281 763.347656 496.011719 L 763.347656 488.976562 C 760.1875 488.875 757.660156 486.296875 757.660156 483.117188 C 757.660156 479.933594 760.1875 477.355469 763.347656 477.257812 L 763.347656 470.21875 C 760.1875 470.121094 757.660156 467.542969 757.660156 464.359375 C 757.660156 461.175781 760.1875 458.601562 763.347656 458.5 L 763.347656 451.460938 C 760.1875 451.363281 757.660156 448.785156 757.660156 445.601562 C 757.660156 442.421875 760.1875 439.84375 763.347656 439.742188 L 763.347656 432.707031 C 760.1875 432.605469 757.660156 430.03125 757.660156 426.847656 C 757.660156 423.664062 760.1875 421.085938 763.347656 420.988281 L 763.347656 414.507812 C 763.101562 414.515625 762.851562 414.546875 762.605469 414.546875 C 743.5 414.546875 728.015625 399.058594 728.015625 379.957031 C 728.015625 360.851562 743.5 345.367188 762.605469 345.367188 C 762.851562 345.367188 763.101562 345.398438 763.347656 345.402344 L 763.347656 338.925781 C 760.1875 338.824219 757.660156 336.25 757.660156 333.0625 C 757.660156 329.882812 760.1875 327.304688 763.347656 327.203125 L 763.347656 320.167969 C 760.1875 320.066406 757.660156 317.492188 757.660156 314.308594 C 757.660156 311.125 760.1875 308.550781 763.347656 308.449219 L 763.347656 301.414062 C 760.1875 301.3125 757.660156 298.734375 757.660156 295.550781 C 757.660156 292.367188 760.1875 289.792969 763.347656 289.691406 L 763.347656 282.65625 C 760.1875 282.554688 757.660156 279.980469 757.660156 276.796875 C 757.660156 273.613281 760.1875 271.035156 763.347656 270.9375 L 763.347656 263.898438 C 760.1875 263.796875 757.660156 261.222656 757.660156 258.039062 C 757.660156 254.855469 760.1875 252.28125 763.347656 252.179688 L 763.347656 245.144531 C 760.1875 245.042969 757.660156 242.464844 757.660156 239.285156 C 757.660156 236.101562 760.1875 233.523438 763.347656 233.421875 " fill-opacity="1" fill-rule="nonzero"/></g><g clip-path="url(#2a59cb130a)"><path fill="#f8c025" d="M 185.769531 526.390625 C 183.078125 525.851562 181.054688 523.476562 181.054688 520.628906 C 181.054688 517.78125 183.078125 515.40625 185.769531 514.867188 L 185.769531 507.632812 C 183.078125 507.09375 181.054688 504.722656 181.054688 501.875 C 181.054688 499.023438 183.078125 496.652344 185.769531 496.109375 L 185.769531 488.878906 C 183.078125 488.335938 181.054688 485.964844 181.054688 483.117188 C 181.054688 480.269531 183.078125 477.894531 185.769531 477.355469 L 185.769531 470.121094 C 183.078125 469.578125 181.054688 467.207031 181.054688 464.359375 C 181.054688 461.511719 183.078125 459.136719 185.769531 458.597656 L 185.769531 451.363281 C 183.078125 450.824219 181.054688 448.453125 181.054688 445.601562 C 181.054688 442.753906 183.078125 440.378906 185.769531 439.839844 L 185.769531 432.609375 C 183.078125 432.070312 181.054688 429.695312 181.054688 426.847656 C 181.054688 424 183.078125 421.625 185.769531 421.085938 L 185.769531 413.851562 C 183.078125 413.3125 181.054688 410.9375 181.054688 408.089844 C 181.054688 405.242188 183.078125 402.867188 185.769531 402.328125 L 185.769531 395.09375 C 183.078125 394.554688 181.054688 392.183594 181.054688 389.332031 C 181.054688 386.484375 183.078125 384.113281 185.769531 383.570312 L 185.769531 376.339844 C 183.078125 375.796875 181.054688 373.425781 181.054688 370.578125 C 181.054688 367.730469 183.078125 365.355469 185.769531 364.816406 L 185.769531 357.582031 C 183.078125 357.042969 181.054688 354.667969 181.054688 351.820312 C 181.054688 348.972656 183.078125 346.601562 185.769531 346.058594 L 185.769531 338.824219 C 183.078125 338.285156 181.054688 335.914062 181.054688 333.0625 C 181.054688 330.214844 183.078125 327.84375 185.769531 327.300781 L 185.769531 320.070312 C 183.078125 319.53125 181.054688 317.15625 181.054688 314.308594 C 181.054688 311.457031 183.078125 309.085938 185.769531 308.546875 L 185.769531 301.3125 C 183.078125 300.773438 181.054688 298.398438 181.054688 295.550781 C 181.054688 292.703125 183.078125 290.332031 185.769531 289.792969 L 185.769531 282.554688 C 183.078125 282.015625 181.054688 279.640625 181.054688 276.792969 C 181.054688 273.949219 183.078125 271.574219 185.769531 271.035156 L 185.769531 263.800781 C 183.078125 263.261719 181.054688 260.886719 181.054688 258.039062 C 181.054688 255.191406 183.078125 252.816406 185.769531 252.277344 L 185.769531 245.042969 C 183.078125 244.503906 181.054688 242.128906 181.054688 239.28125 C 181.054688 236.433594 183.078125 234.0625 185.769531 233.523438 L 185.769531 228.503906 C 176.546875 227.914062 169.195312 220.421875 168.824219 211.140625 L 18.164062 211.140625 C 17.78125 220.328125 10.210938 227.691406 0.929688 227.691406 C 0.617188 227.691406 0.308594 227.660156 0 227.640625 L 0 233.496094 C 0.304688 233.449219 0.609375 233.402344 0.929688 233.402344 C 4.175781 233.402344 6.808594 236.035156 6.808594 239.28125 C 6.808594 242.527344 4.175781 245.164062 0.929688 245.164062 C 0.609375 245.164062 0.304688 245.117188 0 245.066406 L 0 252.253906 C 0.304688 252.207031 0.609375 252.160156 0.929688 252.160156 C 4.175781 252.160156 6.808594 254.792969 6.808594 258.039062 C 6.808594 261.285156 4.175781 263.917969 0.929688 263.917969 C 0.609375 263.917969 0.304688 263.875 0 263.824219 L 0 271.011719 C 0.304688 270.960938 0.609375 270.917969 0.929688 270.917969 C 4.175781 270.917969 6.808594 273.546875 6.808594 276.792969 C 6.808594 280.042969 4.175781 282.675781 0.929688 282.675781 C 0.609375 282.675781 0.304688 282.628906 0 282.582031 L 0 289.765625 C 0.304688 289.71875 0.609375 289.671875 0.929688 289.671875 C 4.175781 289.671875 6.808594 292.304688 6.808594 295.550781 C 6.808594 298.796875 4.175781 301.429688 0.929688 301.429688 C 0.609375 301.429688 0.304688 301.386719 0 301.335938 L 0 308.523438 C 0.304688 308.476562 0.609375 308.429688 0.929688 308.429688 C 4.175781 308.429688 6.808594 311.058594 6.808594 314.308594 C 6.808594 317.554688 4.175781 320.1875 0.929688 320.1875 C 0.609375 320.1875 0.304688 320.144531 0 320.09375 L 0 327.28125 C 0.304688 327.230469 0.609375 327.1875 0.929688 327.1875 C 4.175781 327.1875 6.808594 329.816406 6.808594 333.0625 C 6.808594 336.3125 4.175781 338.945312 0.929688 338.945312 C 0.609375 338.945312 0.304688 338.898438 0 338.847656 L 0 345.074219 C 19.234375 345.074219 34.878906 360.722656 34.878906 379.953125 C 34.878906 399.191406 19.234375 414.835938 0 414.835938 L 0 421.0625 C 0.304688 421.011719 0.609375 420.96875 0.929688 420.96875 C 4.175781 420.96875 6.808594 423.601562 6.808594 426.847656 C 6.808594 430.09375 4.175781 432.726562 0.929688 432.726562 C 0.609375 432.726562 0.304688 432.679688 0 432.632812 L 0 439.816406 C 0.304688 439.769531 0.609375 439.726562 0.929688 439.726562 C 4.175781 439.726562 6.808594 442.355469 6.808594 445.601562 C 6.808594 448.851562 4.175781 451.480469 0.929688 451.480469 C 0.609375 451.480469 0.304688 451.4375 0 451.386719 L 0 458.574219 C 0.304688 458.523438 0.609375 458.480469 0.929688 458.480469 C 4.175781 458.480469 6.808594 461.113281 6.808594 464.359375 C 6.808594 467.605469 4.175781 470.238281 0.929688 470.238281 C 0.609375 470.238281 0.304688 470.191406 0 470.144531 L 0 477.332031 C 0.304688 477.28125 0.609375 477.234375 0.929688 477.234375 C 4.175781 477.234375 6.808594 479.871094 6.808594 483.117188 C 6.808594 486.363281 4.175781 488.996094 0.929688 488.996094 C 0.609375 488.996094 0.304688 488.949219 0 488.902344 L 0 496.085938 C 0.304688 496.039062 0.609375 495.992188 0.929688 495.992188 C 4.175781 495.992188 6.808594 498.625 6.808594 501.875 C 6.808594 505.121094 4.175781 507.75 0.929688 507.75 C 0.609375 507.75 0.304688 507.703125 0 507.65625 L 0 514.84375 C 0.304688 514.792969 0.609375 514.75 0.929688 514.75 C 4.175781 514.75 6.808594 517.382812 6.808594 520.628906 C 6.808594 523.875 4.175781 526.507812 0.929688 526.507812 C 0.609375 526.507812 0.304688 526.460938 0 526.414062 L 0 532.667969 C 0.308594 532.652344 0.617188 532.621094 0.929688 532.621094 C 10.453125 532.621094 18.203125 540.367188 18.203125 549.894531 L 168.789062 549.894531 C 168.789062 540.28125 176.304688 532.410156 185.769531 531.808594 L 185.769531 526.390625 " fill-opacity="1" fill-rule="nonzero"/></g><path fill="#fceec1" d="M 704.382812 239.878906 L 242.359375 239.878906 C 233.113281 239.878906 225.621094 247.375 225.621094 256.621094 L 225.621094 516.109375 C 225.621094 522.304688 228.992188 527.699219 233.988281 530.59375 L 717.355469 246.046875 C 714.289062 242.285156 709.621094 239.878906 704.382812 239.878906 " fill-opacity="1" fill-rule="nonzero"/><path fill="#dc9f10" d="M 233.992188 530.59375 C 236.457031 532.023438 239.308594 532.851562 242.359375 532.851562 L 704.386719 532.851562 C 713.636719 532.851562 721.128906 525.355469 721.128906 516.109375 L 721.128906 256.621094 C 721.128906 252.609375 719.714844 248.925781 717.359375 246.042969 L 233.992188 530.59375 " fill-opacity="1" fill-rule="nonzero"/><path fill="#ffffff" d="M 72.71875 396.246094 L 138.640625 396.246094 L 138.640625 403.722656 L 72.71875 403.722656 L 72.71875 396.246094 " fill-opacity="1" fill-rule="nonzero"/><path fill="#ffffff" d="M 72.71875 368.242188 L 138.640625 368.242188 L 138.640625 375.671875 L 72.71875 375.671875 L 72.71875 368.242188 " fill-opacity="1" fill-rule="nonzero"/><path fill="#ffffff" d="M 72.71875 502.769531 L 138.640625 502.769531 L 138.640625 508.21875 L 72.71875 508.21875 L 72.71875 502.769531 " fill-opacity="1" fill-rule="nonzero"/><path fill="#ffffff" d="M 72.71875 448.503906 L 138.640625 448.503906 L 138.640625 453.902344 L 72.71875 453.902344 L 72.71875 448.503906 " fill-opacity="1" fill-rule="nonzero"/><path fill="#ffffff" d="M 72.71875 261.792969 L 138.640625 261.792969 L 138.640625 267.242188 L 72.71875 267.242188 L 72.71875 261.792969 " fill-opacity="1" fill-rule="nonzero"/><path fill="#ffffff" d="M 72.71875 480.683594 L 138.640625 480.683594 L 138.640625 486.121094 L 72.71875 486.121094 L 72.71875 480.683594 " fill-opacity="1" fill-rule="nonzero"/><path fill="#ffffff" d="M 72.71875 382.210938 L 138.640625 382.210938 L 138.640625 387.648438 L 72.71875 387.648438 L 72.71875 382.210938 " fill-opacity="1" fill-rule="nonzero"/><path fill="#ffffff" d="M 138.640625 516.613281 L 138.640625 520.292969 L 72.71875 520.292969 L 72.71875 516.601562 C 94.691406 516.472656 116.664062 516.488281 138.640625 516.613281 " fill-opacity="1" fill-rule="nonzero"/><path fill="#ffffff" d="M 72.71875 301.605469 C 94.691406 301.65625 116.664062 301.605469 138.640625 301.71875 L 138.640625 305.53125 L 72.71875 305.53125 L 72.71875 301.605469 " fill-opacity="1" fill-rule="nonzero"/><path fill="#ffffff" d="M 72.71875 281.804688 L 138.640625 281.804688 L 138.640625 285.464844 C 116.664062 285.601562 94.691406 285.601562 72.71875 285.476562 L 72.71875 281.804688 " fill-opacity="1" fill-rule="nonzero"/><path fill="#ffffff" d="M 72.71875 490.375 C 94.691406 490.425781 116.664062 490.375 138.640625 490.488281 L 138.640625 494.3125 L 72.71875 494.3125 L 72.71875 490.375 " fill-opacity="1" fill-rule="nonzero"/><path fill="#ffffff" d="M 72.71875 273.78125 L 138.640625 273.78125 L 138.640625 277.4375 C 116.664062 277.578125 94.691406 277.578125 72.71875 277.4375 L 72.71875 273.78125 " fill-opacity="1" fill-rule="nonzero"/><path fill="#ffffff" d="M 138.640625 251.53125 L 138.640625 255.210938 L 72.71875 255.210938 L 72.71875 251.53125 C 94.691406 251.390625 116.664062 251.402344 138.640625 251.53125 " fill-opacity="1" fill-rule="nonzero"/><path fill="#ffffff" d="M 72.71875 460.25 C 94.691406 460.300781 116.648438 460.25 138.640625 460.367188 L 138.640625 464.1875 L 72.71875 464.1875 L 72.71875 460.25 " fill-opacity="1" fill-rule="nonzero"/><path fill="#ffffff" d="M 72.71875 434.140625 C 94.691406 434.191406 116.648438 434.140625 138.640625 434.265625 L 138.640625 438.0625 L 72.71875 438.0625 L 72.71875 434.140625 " fill-opacity="1" fill-rule="nonzero"/><path fill="#ffffff" d="M 72.71875 428.261719 L 138.640625 428.261719 L 138.640625 432.183594 C 116.648438 432.132812 94.691406 432.183594 72.71875 432.070312 L 72.71875 428.261719 " fill-opacity="1" fill-rule="nonzero"/><path fill="#ffffff" d="M 72.71875 406.035156 C 94.691406 406.074219 116.648438 406.023438 138.640625 406.148438 L 138.640625 409.960938 L 72.71875 409.960938 L 72.71875 406.035156 " fill-opacity="1" fill-rule="nonzero"/><path fill="#ffffff" d="M 72.71875 390.097656 L 138.640625 390.097656 L 138.640625 394.035156 C 116.664062 393.984375 94.691406 394.035156 72.71875 393.90625 L 72.71875 390.097656 " fill-opacity="1" fill-rule="nonzero"/><path fill="#ffffff" d="M 72.71875 349.941406 L 138.640625 349.941406 L 138.640625 353.867188 C 116.664062 353.828125 94.691406 353.878906 72.71875 353.75 L 72.71875 349.941406 " fill-opacity="1" fill-rule="nonzero"/><path fill="#ffffff" d="M 72.71875 327.71875 C 94.707031 327.753906 116.664062 327.703125 138.640625 327.832031 L 138.640625 331.640625 L 72.71875 331.640625 L 72.71875 327.71875 " fill-opacity="1" fill-rule="nonzero"/><path fill="#ffffff" d="M 72.71875 512.941406 L 138.640625 512.941406 L 138.640625 513.90625 L 72.71875 513.90625 L 72.71875 512.941406 " fill-opacity="1" fill-rule="nonzero"/><path fill="#ffffff" d="M 72.71875 496.980469 L 138.640625 496.980469 L 138.640625 497.980469 L 72.71875 497.980469 L 72.71875 496.980469 " fill-opacity="1" fill-rule="nonzero"/><path fill="#ffffff" d="M 72.71875 474.894531 L 138.640625 474.894531 L 138.640625 475.898438 L 72.71875 475.898438 L 72.71875 474.894531 " fill-opacity="1" fill-rule="nonzero"/><path fill="#ffffff" d="M 72.71875 466.742188 L 138.640625 466.742188 L 138.640625 467.746094 L 72.71875 467.746094 L 72.71875 466.742188 " fill-opacity="1" fill-rule="nonzero"/><path fill="#ffffff" d="M 72.71875 342.359375 L 138.640625 342.359375 L 138.640625 343.363281 L 72.71875 343.363281 L 72.71875 342.359375 " fill-opacity="1" fill-rule="nonzero"/><path fill="#ffffff" d="M 72.71875 334.332031 L 138.640625 334.332031 L 138.640625 335.324219 L 72.71875 335.324219 L 72.71875 334.332031 " fill-opacity="1" fill-rule="nonzero"/><path fill="#ffffff" d="M 72.71875 378.386719 L 138.640625 378.386719 L 138.640625 379.390625 L 72.71875 379.390625 L 72.71875 378.386719 " fill-opacity="1" fill-rule="nonzero"/><path fill="#ffffff" d="M 72.71875 320.285156 L 138.640625 320.285156 L 138.640625 321.265625 L 72.71875 321.265625 L 72.71875 320.285156 " fill-opacity="1" fill-rule="nonzero"/><path fill="#ffffff" d="M 72.71875 312.234375 L 138.640625 312.234375 L 138.640625 313.238281 L 72.71875 313.238281 L 72.71875 312.234375 " fill-opacity="1" fill-rule="nonzero"/><path fill="#ffffff" d="M 72.71875 418.671875 L 138.640625 418.671875 L 138.640625 419.664062 L 72.71875 419.664062 L 72.71875 418.671875 " fill-opacity="1" fill-rule="nonzero"/><path fill="#ffffff" d="M 72.71875 298.050781 L 138.640625 298.050781 L 138.640625 299.066406 L 72.71875 299.066406 L 72.71875 298.050781 " fill-opacity="1" fill-rule="nonzero"/><path fill="#ffffff" d="M 72.71875 288.015625 L 138.640625 288.015625 L 138.640625 289.019531 L 72.71875 289.019531 L 72.71875 288.015625 " fill-opacity="1" fill-rule="nonzero"/><path fill="#ffffff" d="M 72.71875 364.34375 L 138.640625 364.34375 L 138.640625 365.347656 L 72.71875 365.347656 L 72.71875 364.34375 " fill-opacity="1" fill-rule="nonzero"/><path fill="#ffffff" d="M 72.71875 360.429688 L 138.640625 360.429688 L 138.640625 361.433594 L 72.71875 361.433594 L 72.71875 360.429688 " fill-opacity="1" fill-rule="nonzero"/><path fill="#ffffff" d="M 72.71875 440.757812 L 138.640625 440.757812 L 138.640625 441.761719 L 72.71875 441.761719 L 72.71875 440.757812 " fill-opacity="1" fill-rule="nonzero"/><path fill="#ffffff" d="M 72.71875 258.019531 L 138.640625 258.019531 L 138.640625 259.023438 L 72.71875 259.023438 L 72.71875 258.019531 " fill-opacity="1" fill-rule="nonzero"/><path fill="#ffffff" d="M 72.71875 414.542969 L 138.640625 414.542969 L 138.640625 415.546875 L 72.71875 415.546875 L 72.71875 414.542969 " fill-opacity="1" fill-rule="nonzero"/></svg>